G04*
G04 #@! TF.GenerationSoftware,Altium Limited,Altium Designer,20.1.12 (249)*
G04*
G04 Layer_Color=16711935*
%FSLAX25Y25*%
%MOIN*%
G70*
G04*
G04 #@! TF.SameCoordinates,CC19F9FB-0A88-4C5E-BD8E-C5333B66DB7B*
G04*
G04*
G04 #@! TF.FilePolarity,Negative*
G04*
G01*
G75*
%ADD30C,0.07099*%
%ADD31R,0.07099X0.07099*%
%ADD32C,0.06902*%
%ADD33R,0.06902X0.06902*%
G04:AMPARAMS|DCode=34|XSize=145.8mil|YSize=59.18mil|CornerRadius=16.8mil|HoleSize=0mil|Usage=FLASHONLY|Rotation=180.000|XOffset=0mil|YOffset=0mil|HoleType=Round|Shape=RoundedRectangle|*
%AMROUNDEDRECTD34*
21,1,0.14580,0.02559,0,0,180.0*
21,1,0.11221,0.05918,0,0,180.0*
1,1,0.03359,-0.05610,0.01280*
1,1,0.03359,0.05610,0.01280*
1,1,0.03359,0.05610,-0.01280*
1,1,0.03359,-0.05610,-0.01280*
%
%ADD34ROUNDEDRECTD34*%
G04:AMPARAMS|DCode=35|XSize=145.8mil|YSize=59.18mil|CornerRadius=16.8mil|HoleSize=0mil|Usage=FLASHONLY|Rotation=90.000|XOffset=0mil|YOffset=0mil|HoleType=Round|Shape=RoundedRectangle|*
%AMROUNDEDRECTD35*
21,1,0.14580,0.02559,0,0,90.0*
21,1,0.11221,0.05918,0,0,90.0*
1,1,0.03359,0.01280,0.05610*
1,1,0.03359,0.01280,-0.05610*
1,1,0.03359,-0.01280,-0.05610*
1,1,0.03359,-0.01280,0.05610*
%
%ADD35ROUNDEDRECTD35*%
G04:AMPARAMS|DCode=36|XSize=165.48mil|YSize=59.18mil|CornerRadius=16.8mil|HoleSize=0mil|Usage=FLASHONLY|Rotation=90.000|XOffset=0mil|YOffset=0mil|HoleType=Round|Shape=RoundedRectangle|*
%AMROUNDEDRECTD36*
21,1,0.16548,0.02559,0,0,90.0*
21,1,0.13189,0.05918,0,0,90.0*
1,1,0.03359,0.01280,0.06594*
1,1,0.03359,0.01280,-0.06594*
1,1,0.03359,-0.01280,-0.06594*
1,1,0.03359,-0.01280,0.06594*
%
%ADD36ROUNDEDRECTD36*%
%ADD37R,0.06063X0.06063*%
%ADD38C,0.06063*%
%ADD39R,0.07099X0.07099*%
%ADD40R,0.06737X0.06737*%
%ADD41C,0.06737*%
%ADD42C,0.07300*%
%ADD43C,0.05800*%
%ADD44C,0.30800*%
D30*
X157500Y314000D02*
D03*
Y343500D02*
D03*
Y283500D02*
D03*
X194000Y390000D02*
D03*
D31*
X177500Y314000D02*
D03*
Y343500D02*
D03*
Y283500D02*
D03*
D32*
X306500Y243500D02*
D03*
X296500D02*
D03*
X286500D02*
D03*
X276500D02*
D03*
X306500Y253500D02*
D03*
X296500D02*
D03*
X286500D02*
D03*
D33*
X276500D02*
D03*
D34*
X144402Y383996D02*
D03*
D35*
X132591Y402500D02*
D03*
D36*
X157000D02*
D03*
D37*
X515705Y368858D02*
D03*
X463705Y392858D02*
D03*
X354205D02*
D03*
X379795Y327142D02*
D03*
X408205Y392858D02*
D03*
X489295Y327142D02*
D03*
X433795D02*
D03*
D38*
X541295Y368858D02*
D03*
X515705Y351142D02*
D03*
X541295D02*
D03*
X489295Y392858D02*
D03*
X463705Y375142D02*
D03*
X489295D02*
D03*
X379795D02*
D03*
X354205D02*
D03*
X379795Y392858D02*
D03*
X354205Y327142D02*
D03*
X379795Y344858D02*
D03*
X354205D02*
D03*
X433795Y392858D02*
D03*
X408205Y375142D02*
D03*
X433795D02*
D03*
X463705Y344858D02*
D03*
X489295D02*
D03*
X463705Y327142D02*
D03*
X408205Y344858D02*
D03*
X433795D02*
D03*
X408205Y327142D02*
D03*
D39*
X194000Y410000D02*
D03*
D40*
X323500Y289000D02*
D03*
D41*
Y299000D02*
D03*
Y309000D02*
D03*
Y319000D02*
D03*
Y329000D02*
D03*
Y339000D02*
D03*
Y349000D02*
D03*
Y359000D02*
D03*
Y369000D02*
D03*
Y379000D02*
D03*
Y389000D02*
D03*
Y399000D02*
D03*
Y409000D02*
D03*
Y419000D02*
D03*
Y429000D02*
D03*
X263500D02*
D03*
Y419000D02*
D03*
Y409000D02*
D03*
Y399000D02*
D03*
Y389000D02*
D03*
Y379000D02*
D03*
Y369000D02*
D03*
Y359000D02*
D03*
Y349000D02*
D03*
Y339000D02*
D03*
Y329000D02*
D03*
Y319000D02*
D03*
Y309000D02*
D03*
Y299000D02*
D03*
Y289000D02*
D03*
D42*
X323500Y439000D02*
D03*
X263500D02*
D03*
X323500Y279000D02*
D03*
X263500D02*
D03*
D43*
X304000Y355500D02*
D03*
X296500Y356000D02*
D03*
X297000Y418000D02*
D03*
X303500Y428000D02*
D03*
X477000Y319000D02*
D03*
X421500Y318500D02*
D03*
X366500D02*
D03*
X529000Y378000D02*
D03*
X476500Y401500D02*
D03*
X366000D02*
D03*
X421500D02*
D03*
X220000Y280000D02*
D03*
Y310000D02*
D03*
Y339500D02*
D03*
X141500Y273500D02*
D03*
Y303500D02*
D03*
Y333500D02*
D03*
X217500Y413000D02*
D03*
D44*
X120000Y443500D02*
D03*
X532500Y444500D02*
D03*
Y239500D02*
D03*
X120000D02*
D03*
M02*
