M48
;Layer_Color=9474304
;FILE_FORMAT=2:5
INCH,LZ
;TYPE=PLATED
T1F00S00C0.02800
T3F00S00C0.03898
T4F00S00C0.03937
T5F00S00C0.04094
T6F00S00C0.04291
T7F00S00C0.15700
;TYPE=NON_PLATED
T8F00S00C0.06500
%
T01
X022Y028
Y031
X01415Y03035
Y02735
Y03335
X022Y03395
X02175Y0413
X0297Y0418
X03035Y0428
X0304Y03555
X02965Y0356
X03665Y03185
X04215
Y04015
X0366
X04765
X0529Y0378
X0477Y0319
T03
X0354205Y0327142
Y0344858
X0379795
Y0327142
X0408205
Y0344858
X0433795
Y0327142
X0463705
Y0344858
Y0375142
Y0392858
X0433795
Y0375142
X0408205
Y0392858
X0379795
Y0375142
X0354205
Y0392858
X0489295
Y0375142
Y0344858
Y0327142
X0515705Y0351142
Y0368858
X0541295
Y0351142
T04
X03235Y0289
Y0299
Y0309
X02635
Y0299
Y0289
Y0319
Y0329
Y0339
Y0349
Y0359
Y0369
Y0379
Y0389
Y0399
Y0409
Y0419
Y0429
X03235
Y0419
Y0409
Y0399
Y0389
Y0379
Y0369
Y0359
Y0349
Y0339
Y0329
Y0319
T05
X02765Y02435
X02865
X02965
X03065
Y02535
X02965
X02865
X02765
T06
X01575Y02835
X01775
Y0314
X01575
Y03435
X01775
X0194Y039
Y041
T07
X05325Y02395
X012
Y04435
X05325Y04445
T08
X03235Y0279
X02635
Y0439
X03235
M30
