G04*
G04 #@! TF.GenerationSoftware,Altium Limited,Altium Designer,21.1.1 (26)*
G04*
G04 Layer_Color=16711935*
%FSLAX25Y25*%
%MOIN*%
G70*
G04*
G04 #@! TF.SameCoordinates,E26435C1-A805-435E-AC10-17EB525BB224*
G04*
G04*
G04 #@! TF.FilePolarity,Positive*
G04*
G01*
G75*
%ADD10C,0.00787*%
%ADD12C,0.00500*%
%ADD59C,0.00394*%
D10*
X332279Y288134D02*
X331492D01*
X332279D01*
X161803Y261681D02*
X161016D01*
X161803D01*
Y354181D02*
X161016D01*
X161803D01*
Y308390D02*
X161016D01*
X161803D01*
X243484Y398319D02*
X242697D01*
X243484D01*
D12*
X258500Y444000D02*
X328500D01*
X258500Y274000D02*
Y444000D01*
X328500Y274000D02*
Y444000D01*
X258500Y274000D02*
X328500D01*
X164598Y275500D02*
X229402D01*
Y235500D02*
Y275500D01*
X164598Y235500D02*
X229402D01*
X164598D02*
Y275500D01*
Y368000D02*
X229402D01*
Y328000D02*
Y368000D01*
X164598Y328000D02*
X229402D01*
X164598D02*
Y368000D01*
Y322209D02*
X229402D01*
Y282209D02*
Y322209D01*
X164598Y282209D02*
X229402D01*
X164598D02*
Y322209D01*
X175098Y384500D02*
X239902D01*
X175098D02*
Y424500D01*
X239902D01*
Y384500D02*
Y424500D01*
D59*
X103259Y420217D02*
X102563Y419928D01*
X102275Y419232D01*
Y385768D02*
X102563Y385072D01*
X103259Y384784D01*
X242850Y244425D02*
X249150D01*
Y247575D01*
X242850Y244425D02*
Y247575D01*
X249150D01*
X240672Y266854D02*
X249333D01*
X240672Y261146D02*
X249333D01*
X240672D02*
Y266854D01*
X249333Y261146D02*
Y266854D01*
X240672Y310354D02*
X249333D01*
X240672Y304646D02*
X249333D01*
X240672D02*
Y310354D01*
X249333Y304646D02*
Y310354D01*
X242850Y288425D02*
X249150D01*
Y291575D01*
X242850Y288425D02*
Y291575D01*
X249150D01*
X243350Y327425D02*
X249650D01*
Y330575D01*
X243350Y327425D02*
Y330575D01*
X249650D01*
X118752Y268500D02*
X128752D01*
X118752D02*
Y358500D01*
X128752Y268500D02*
Y358500D01*
X118752D02*
X128752D01*
X241172Y347354D02*
X249833D01*
X241172Y341646D02*
X249833D01*
X241172D02*
Y347354D01*
X249833Y341646D02*
Y347354D01*
X270496Y238756D02*
Y258244D01*
Y238756D02*
X312504D01*
Y258244D01*
X270496D02*
X312504D01*
X103260Y420217D02*
X159362D01*
X102276Y385768D02*
Y419232D01*
X159362Y384784D02*
Y420217D01*
X103260Y384784D02*
X159362D01*
X491730Y304669D02*
Y313331D01*
X486021Y304669D02*
Y313331D01*
X491730D01*
X486021Y304669D02*
X491730D01*
X475425Y304350D02*
Y310650D01*
Y304350D02*
X478575D01*
X475425Y310650D02*
X478575D01*
Y304350D02*
Y310650D01*
X461270Y304669D02*
Y313331D01*
X466979Y304669D02*
Y313331D01*
X461270Y304669D02*
X466979D01*
X461270Y313331D02*
X466979D01*
X430521Y304669D02*
X436230D01*
X430521Y313331D02*
X436230D01*
X430521Y304669D02*
Y313331D01*
X436230Y304669D02*
Y313331D01*
X382354Y304669D02*
Y313331D01*
X376646Y304669D02*
Y313331D01*
X382354D01*
X376646Y304669D02*
X382354D01*
X419925Y304350D02*
Y310650D01*
Y304350D02*
X423075D01*
X419925Y310650D02*
X423075D01*
Y304350D02*
Y310650D01*
X405770Y304669D02*
Y313331D01*
X411479Y304669D02*
Y313331D01*
X405770Y304669D02*
X411479D01*
X405770Y313331D02*
X411479D01*
X364925Y304350D02*
Y310650D01*
Y304350D02*
X368075D01*
X364925Y310650D02*
X368075D01*
Y304350D02*
Y310650D01*
X350146Y304669D02*
Y313331D01*
X355854Y304669D02*
Y313331D01*
X350146Y304669D02*
X355854D01*
X350146Y313331D02*
X355854D01*
X530575Y386350D02*
Y392650D01*
X527425D02*
X530575D01*
X527425Y386350D02*
X530575D01*
X527425D02*
Y392650D01*
X423075Y409850D02*
Y416150D01*
X419925D02*
X423075D01*
X419925Y409850D02*
X423075D01*
X419925D02*
Y416150D01*
X478075Y409350D02*
Y415650D01*
X474925D02*
X478075D01*
X474925Y409350D02*
X478075D01*
X474925D02*
Y415650D01*
X350931Y416331D02*
X356639D01*
X350931Y407669D02*
X356639D01*
Y416331D01*
X350931Y407669D02*
Y416331D01*
X367486Y409850D02*
Y416150D01*
X364336D02*
X367486D01*
X364336Y409850D02*
X367486D01*
X364336D02*
Y416150D01*
X383069Y407669D02*
Y416331D01*
X377361Y407669D02*
Y416331D01*
X383069D01*
X377361Y407669D02*
X383069D01*
X203854Y437669D02*
Y446331D01*
X198146Y437669D02*
Y446331D01*
X203854D01*
X198146Y437669D02*
X203854D01*
X212925Y436390D02*
Y442689D01*
Y436390D02*
X216075D01*
X212925Y442689D02*
X216075D01*
Y436390D02*
Y442689D01*
X513146Y392831D02*
X518854D01*
X513146Y384169D02*
X518854D01*
Y392831D01*
X513146Y384169D02*
Y392831D01*
X460431Y416331D02*
X466139D01*
X460431Y407669D02*
X466139D01*
Y416331D01*
X460431Y407669D02*
Y416331D01*
X405146D02*
X410854D01*
X405146Y407669D02*
X410854D01*
Y416331D01*
X405146Y407669D02*
Y416331D01*
X538646Y384169D02*
X544354D01*
X538646Y392831D02*
X544354D01*
X538646Y384169D02*
Y392831D01*
X544354Y384169D02*
Y392831D01*
X486021Y407669D02*
X491730D01*
X486021Y416331D02*
X491730D01*
X486021Y407669D02*
Y416331D01*
X491730Y407669D02*
Y416331D01*
X431146Y407669D02*
X436854D01*
X431146Y416331D02*
X436854D01*
X431146Y407669D02*
Y416331D01*
X436854Y407669D02*
Y416331D01*
M02*
