G04*
G04 #@! TF.GenerationSoftware,Altium Limited,Altium Designer,21.1.1 (26)*
G04*
G04 Layer_Physical_Order=2*
G04 Layer_Color=16711680*
%FSLAX25Y25*%
%MOIN*%
G70*
G04*
G04 #@! TF.SameCoordinates,E57EF3AD-EC9D-4E23-9065-B2E2A4799F1B*
G04*
G04*
G04 #@! TF.FilePolarity,Positive*
G04*
G01*
G75*
%ADD18C,0.01000*%
%ADD38R,0.06063X0.06063*%
%ADD39C,0.06063*%
%ADD48C,0.06299*%
%ADD49R,0.06299X0.06299*%
%ADD50C,0.06102*%
%ADD51R,0.06102X0.06102*%
G04:AMPARAMS|DCode=52|XSize=137.8mil|YSize=51.18mil|CornerRadius=12.8mil|HoleSize=0mil|Usage=FLASHONLY|Rotation=180.000|XOffset=0mil|YOffset=0mil|HoleType=Round|Shape=RoundedRectangle|*
%AMROUNDEDRECTD52*
21,1,0.13780,0.02559,0,0,180.0*
21,1,0.11221,0.05118,0,0,180.0*
1,1,0.02559,-0.05610,0.01280*
1,1,0.02559,0.05610,0.01280*
1,1,0.02559,0.05610,-0.01280*
1,1,0.02559,-0.05610,-0.01280*
%
%ADD52ROUNDEDRECTD52*%
G04:AMPARAMS|DCode=53|XSize=137.8mil|YSize=51.18mil|CornerRadius=12.8mil|HoleSize=0mil|Usage=FLASHONLY|Rotation=90.000|XOffset=0mil|YOffset=0mil|HoleType=Round|Shape=RoundedRectangle|*
%AMROUNDEDRECTD53*
21,1,0.13780,0.02559,0,0,90.0*
21,1,0.11221,0.05118,0,0,90.0*
1,1,0.02559,0.01280,0.05610*
1,1,0.02559,0.01280,-0.05610*
1,1,0.02559,-0.01280,-0.05610*
1,1,0.02559,-0.01280,0.05610*
%
%ADD53ROUNDEDRECTD53*%
G04:AMPARAMS|DCode=54|XSize=157.48mil|YSize=51.18mil|CornerRadius=12.8mil|HoleSize=0mil|Usage=FLASHONLY|Rotation=90.000|XOffset=0mil|YOffset=0mil|HoleType=Round|Shape=RoundedRectangle|*
%AMROUNDEDRECTD54*
21,1,0.15748,0.02559,0,0,90.0*
21,1,0.13189,0.05118,0,0,90.0*
1,1,0.02559,0.01280,0.06594*
1,1,0.02559,0.01280,-0.06594*
1,1,0.02559,-0.01280,-0.06594*
1,1,0.02559,-0.01280,0.06594*
%
%ADD54ROUNDEDRECTD54*%
%ADD55R,0.06299X0.06299*%
%ADD56R,0.05937X0.05937*%
%ADD57C,0.05937*%
%ADD58C,0.06500*%
%ADD59C,0.30000*%
%ADD60C,0.05000*%
G36*
X536139Y461684D02*
X538478Y461057D01*
X540715Y460131D01*
X542812Y458920D01*
X544733Y457445D01*
X546446Y455733D01*
X547920Y453812D01*
X549130Y451715D01*
X550057Y449478D01*
X550684Y447139D01*
X551000Y444738D01*
X551000Y443527D01*
X551000Y443527D01*
X551000Y443527D01*
X551000Y239473D01*
X551000Y238262D01*
X550684Y235861D01*
X550057Y233522D01*
X549130Y231285D01*
X547920Y229188D01*
X546446Y227267D01*
X544733Y225554D01*
X542812Y224080D01*
X540715Y222869D01*
X538478Y221943D01*
X536139Y221316D01*
X533738Y221000D01*
X532527Y221000D01*
X119973D01*
X118762Y221000D01*
X116361Y221316D01*
X114022Y221943D01*
X111785Y222869D01*
X109688Y224080D01*
X107767Y225554D01*
X106054Y227267D01*
X104580Y229188D01*
X103369Y231285D01*
X102443Y233522D01*
X101816Y235861D01*
X101500Y238262D01*
X101500Y239473D01*
Y443500D01*
X101500Y444713D01*
X101816Y447117D01*
X102444Y449459D01*
X103372Y451700D01*
X104585Y453800D01*
X106061Y455724D01*
X107776Y457439D01*
X109700Y458915D01*
X111800Y460128D01*
X114041Y461056D01*
X116383Y461683D01*
X118787Y462000D01*
X120000Y462000D01*
X120000Y462000D01*
X532527Y462000D01*
X533738Y462000D01*
X536139Y461684D01*
D02*
G37*
%LPC*%
G36*
X324060Y443250D02*
X322940D01*
X321860Y442960D01*
X320890Y442401D01*
X320099Y441610D01*
X319540Y440640D01*
X319250Y439560D01*
Y438441D01*
X319540Y437360D01*
X320099Y436390D01*
X320890Y435599D01*
X321860Y435040D01*
X322940Y434750D01*
X324060D01*
X325140Y435040D01*
X326110Y435599D01*
X326901Y436390D01*
X327460Y437360D01*
X327750Y438441D01*
Y439560D01*
X327460Y440640D01*
X326901Y441610D01*
X326110Y442401D01*
X325140Y442960D01*
X324060Y443250D01*
D02*
G37*
G36*
X264059D02*
X262941D01*
X261860Y442960D01*
X260890Y442401D01*
X260099Y441610D01*
X259540Y440640D01*
X259250Y439560D01*
Y438441D01*
X259540Y437360D01*
X260099Y436390D01*
X260890Y435599D01*
X261860Y435040D01*
X262941Y434750D01*
X264059D01*
X265140Y435040D01*
X266110Y435599D01*
X266901Y436390D01*
X267460Y437360D01*
X267750Y438441D01*
Y439560D01*
X267460Y440640D01*
X266901Y441610D01*
X266110Y442401D01*
X265140Y442960D01*
X264059Y443250D01*
D02*
G37*
G36*
X533759Y459500D02*
X531241D01*
X528753Y459106D01*
X526358Y458328D01*
X524114Y457184D01*
X522077Y455704D01*
X520296Y453923D01*
X518816Y451886D01*
X517672Y449642D01*
X516894Y447247D01*
X516500Y444759D01*
Y442241D01*
X516894Y439753D01*
X517672Y437358D01*
X518816Y435114D01*
X520296Y433077D01*
X522077Y431296D01*
X524114Y429816D01*
X526358Y428672D01*
X528753Y427894D01*
X531241Y427500D01*
X533759D01*
X536247Y427894D01*
X538642Y428672D01*
X540886Y429816D01*
X542923Y431296D01*
X544704Y433077D01*
X546184Y435114D01*
X547328Y437358D01*
X548106Y439753D01*
X548500Y442241D01*
Y444759D01*
X548106Y447247D01*
X547328Y449642D01*
X546184Y451886D01*
X544704Y453923D01*
X542923Y455704D01*
X540886Y457184D01*
X538642Y458328D01*
X536247Y459106D01*
X533759Y459500D01*
D02*
G37*
G36*
X121259D02*
X118741D01*
X116253Y459106D01*
X113858Y458328D01*
X111614Y457184D01*
X109577Y455704D01*
X107796Y453923D01*
X106316Y451886D01*
X105172Y449642D01*
X104394Y447247D01*
X104000Y444759D01*
Y442241D01*
X104394Y439753D01*
X105172Y437358D01*
X106316Y435114D01*
X107796Y433077D01*
X109577Y431296D01*
X111614Y429816D01*
X113858Y428672D01*
X116253Y427894D01*
X118741Y427500D01*
X121259D01*
X123747Y427894D01*
X126142Y428672D01*
X128386Y429816D01*
X130423Y431296D01*
X132204Y433077D01*
X133684Y435114D01*
X134828Y437358D01*
X135606Y439753D01*
X136000Y442241D01*
Y444759D01*
X135606Y447247D01*
X134828Y449642D01*
X133684Y451886D01*
X132204Y453923D01*
X130423Y455704D01*
X128386Y457184D01*
X126142Y458328D01*
X123747Y459106D01*
X121259Y459500D01*
D02*
G37*
G36*
X324023Y432969D02*
X322977D01*
X321968Y432698D01*
X321063Y432176D01*
X320324Y431437D01*
X319802Y430532D01*
X319531Y429523D01*
Y428477D01*
X319802Y427468D01*
X320324Y426563D01*
X321063Y425824D01*
X321968Y425302D01*
X322977Y425032D01*
X324023D01*
X325032Y425302D01*
X325937Y425824D01*
X326676Y426563D01*
X327198Y427468D01*
X327468Y428477D01*
Y429523D01*
X327198Y430532D01*
X326676Y431437D01*
X325937Y432176D01*
X325032Y432698D01*
X324023Y432969D01*
D02*
G37*
G36*
X264022D02*
X262978D01*
X261968Y432698D01*
X261063Y432176D01*
X260324Y431437D01*
X259802Y430532D01*
X259531Y429523D01*
Y428477D01*
X259802Y427468D01*
X260324Y426563D01*
X261063Y425824D01*
X261968Y425302D01*
X262978Y425032D01*
X264022D01*
X265032Y425302D01*
X265937Y425824D01*
X266676Y426563D01*
X267198Y427468D01*
X267469Y428477D01*
Y429523D01*
X267198Y430532D01*
X266676Y431437D01*
X265937Y432176D01*
X265032Y432698D01*
X264022Y432969D01*
D02*
G37*
G36*
X324023Y422968D02*
X322977D01*
X321968Y422698D01*
X321063Y422176D01*
X320324Y421437D01*
X319802Y420532D01*
X319531Y419522D01*
Y418477D01*
X319802Y417468D01*
X320324Y416563D01*
X321063Y415824D01*
X321968Y415302D01*
X322977Y415031D01*
X324023D01*
X325032Y415302D01*
X325937Y415824D01*
X326676Y416563D01*
X327198Y417468D01*
X327468Y418477D01*
Y419522D01*
X327198Y420532D01*
X326676Y421437D01*
X325937Y422176D01*
X325032Y422698D01*
X324023Y422968D01*
D02*
G37*
G36*
X264022D02*
X262978D01*
X261968Y422698D01*
X261063Y422176D01*
X260324Y421437D01*
X259802Y420532D01*
X259531Y419522D01*
Y418477D01*
X259802Y417468D01*
X260324Y416563D01*
X261063Y415824D01*
X261968Y415302D01*
X262978Y415031D01*
X264022D01*
X265032Y415302D01*
X265937Y415824D01*
X266676Y416563D01*
X267198Y417468D01*
X267469Y418477D01*
Y419522D01*
X267198Y420532D01*
X266676Y421437D01*
X265937Y422176D01*
X265032Y422698D01*
X264022Y422968D01*
D02*
G37*
G36*
X218000Y416490D02*
Y413500D01*
X220989D01*
X220761Y414351D01*
X220301Y415149D01*
X219649Y415801D01*
X218851Y416261D01*
X218000Y416490D01*
D02*
G37*
G36*
X217000D02*
X216149Y416261D01*
X215351Y415801D01*
X214699Y415149D01*
X214239Y414351D01*
X214011Y413500D01*
X217000D01*
Y416490D01*
D02*
G37*
G36*
X220989Y412500D02*
X218000D01*
Y409511D01*
X218851Y409738D01*
X219649Y410199D01*
X220301Y410851D01*
X220761Y411649D01*
X220989Y412500D01*
D02*
G37*
G36*
X217000D02*
X214011D01*
X214239Y411649D01*
X214699Y410851D01*
X215351Y410199D01*
X216149Y409738D01*
X217000Y409511D01*
Y412500D01*
D02*
G37*
G36*
X198150Y414150D02*
X189850D01*
Y405850D01*
X198150D01*
Y414150D01*
D02*
G37*
G36*
X324023Y412968D02*
X322977D01*
X321968Y412698D01*
X321063Y412176D01*
X320324Y411437D01*
X319802Y410532D01*
X319531Y409522D01*
Y408477D01*
X319802Y407468D01*
X320324Y406563D01*
X321063Y405824D01*
X321968Y405302D01*
X322977Y405031D01*
X324023D01*
X325032Y405302D01*
X325937Y405824D01*
X326676Y406563D01*
X327198Y407468D01*
X327468Y408477D01*
Y409522D01*
X327198Y410532D01*
X326676Y411437D01*
X325937Y412176D01*
X325032Y412698D01*
X324023Y412968D01*
D02*
G37*
G36*
X264022D02*
X262978D01*
X261968Y412698D01*
X261063Y412176D01*
X260324Y411437D01*
X259802Y410532D01*
X259531Y409522D01*
Y408477D01*
X259802Y407468D01*
X260324Y406563D01*
X261063Y405824D01*
X261968Y405302D01*
X262978Y405031D01*
X264022D01*
X265032Y405302D01*
X265937Y405824D01*
X266676Y406563D01*
X267198Y407468D01*
X267469Y408477D01*
Y409522D01*
X267198Y410532D01*
X266676Y411437D01*
X265937Y412176D01*
X265032Y412698D01*
X264022Y412968D01*
D02*
G37*
G36*
X133870Y410434D02*
X133091D01*
Y403000D01*
X136194D01*
Y408110D01*
X136017Y409000D01*
X135513Y409754D01*
X134759Y410257D01*
X133870Y410434D01*
D02*
G37*
G36*
X132091D02*
X131311D01*
X130422Y410257D01*
X129668Y409754D01*
X129164Y409000D01*
X128987Y408110D01*
Y403000D01*
X132091D01*
Y410434D01*
D02*
G37*
G36*
X477000Y404989D02*
Y402000D01*
X479989D01*
X479762Y402851D01*
X479301Y403649D01*
X478649Y404301D01*
X477851Y404762D01*
X477000Y404989D01*
D02*
G37*
G36*
X476000D02*
X475149Y404762D01*
X474351Y404301D01*
X473699Y403649D01*
X473239Y402851D01*
X473010Y402000D01*
X476000D01*
Y404989D01*
D02*
G37*
G36*
X422000D02*
Y402000D01*
X424990D01*
X424761Y402851D01*
X424301Y403649D01*
X423649Y404301D01*
X422851Y404762D01*
X422000Y404989D01*
D02*
G37*
G36*
X421000D02*
X420149Y404762D01*
X419351Y404301D01*
X418699Y403649D01*
X418238Y402851D01*
X418011Y402000D01*
X421000D01*
Y404989D01*
D02*
G37*
G36*
X366500D02*
Y402000D01*
X369490D01*
X369262Y402851D01*
X368801Y403649D01*
X368149Y404301D01*
X367351Y404762D01*
X366500Y404989D01*
D02*
G37*
G36*
X365500D02*
X364649Y404762D01*
X363851Y404301D01*
X363199Y403649D01*
X362738Y402851D01*
X362510Y402000D01*
X365500D01*
Y404989D01*
D02*
G37*
G36*
X479989Y401000D02*
X477000D01*
Y398010D01*
X477851Y398238D01*
X478649Y398699D01*
X479301Y399351D01*
X479762Y400149D01*
X479989Y401000D01*
D02*
G37*
G36*
X476000D02*
X473010D01*
X473239Y400149D01*
X473699Y399351D01*
X474351Y398699D01*
X475149Y398238D01*
X476000Y398010D01*
Y401000D01*
D02*
G37*
G36*
X424990D02*
X422000D01*
Y398010D01*
X422851Y398238D01*
X423649Y398699D01*
X424301Y399351D01*
X424761Y400149D01*
X424990Y401000D01*
D02*
G37*
G36*
X421000D02*
X418011D01*
X418238Y400149D01*
X418699Y399351D01*
X419351Y398699D01*
X420149Y398238D01*
X421000Y398010D01*
Y401000D01*
D02*
G37*
G36*
X369490D02*
X366500D01*
Y398010D01*
X367351Y398238D01*
X368149Y398699D01*
X368801Y399351D01*
X369262Y400149D01*
X369490Y401000D01*
D02*
G37*
G36*
X365500D02*
X362510D01*
X362738Y400149D01*
X363199Y399351D01*
X363851Y398699D01*
X364649Y398238D01*
X365500Y398010D01*
Y401000D01*
D02*
G37*
G36*
X324023Y402969D02*
X322977D01*
X321968Y402698D01*
X321063Y402176D01*
X320324Y401437D01*
X319802Y400532D01*
X319531Y399522D01*
Y398478D01*
X319802Y397468D01*
X320324Y396563D01*
X321063Y395824D01*
X321968Y395302D01*
X322977Y395031D01*
X324023D01*
X325032Y395302D01*
X325937Y395824D01*
X326676Y396563D01*
X327198Y397468D01*
X327468Y398478D01*
Y399522D01*
X327198Y400532D01*
X326676Y401437D01*
X325937Y402176D01*
X325032Y402698D01*
X324023Y402969D01*
D02*
G37*
G36*
X264022D02*
X262978D01*
X261968Y402698D01*
X261063Y402176D01*
X260324Y401437D01*
X259802Y400532D01*
X259531Y399522D01*
Y398478D01*
X259802Y397468D01*
X260324Y396563D01*
X261063Y395824D01*
X261968Y395302D01*
X262978Y395031D01*
X264022D01*
X265032Y395302D01*
X265937Y395824D01*
X266676Y396563D01*
X267198Y397468D01*
X267469Y398478D01*
Y399522D01*
X267198Y400532D01*
X266676Y401437D01*
X265937Y402176D01*
X265032Y402698D01*
X264022Y402969D01*
D02*
G37*
G36*
X136194Y402000D02*
X133091D01*
Y394566D01*
X133870D01*
X134759Y394742D01*
X135513Y395246D01*
X136017Y396000D01*
X136194Y396890D01*
Y402000D01*
D02*
G37*
G36*
X132091D02*
X128987D01*
Y396890D01*
X129164Y396000D01*
X129668Y395246D01*
X130422Y394742D01*
X131311Y394566D01*
X132091D01*
Y402000D01*
D02*
G37*
G36*
X158280Y411419D02*
X155720D01*
X154831Y411242D01*
X154077Y410738D01*
X153573Y409984D01*
X153396Y409094D01*
Y395905D01*
X153573Y395016D01*
X154077Y394262D01*
X154831Y393758D01*
X155720Y393581D01*
X158280D01*
X159169Y393758D01*
X159923Y394262D01*
X160427Y395016D01*
X160604Y395905D01*
Y409094D01*
X160427Y409984D01*
X159923Y410738D01*
X159169Y411242D01*
X158280Y411419D01*
D02*
G37*
G36*
X489826Y396890D02*
X488764D01*
X487739Y396615D01*
X486820Y396084D01*
X486069Y395334D01*
X485538Y394414D01*
X485264Y393389D01*
Y392327D01*
X485538Y391302D01*
X486069Y390383D01*
X486820Y389632D01*
X487739Y389102D01*
X488764Y388827D01*
X489826D01*
X490851Y389102D01*
X491771Y389632D01*
X492521Y390383D01*
X493052Y391302D01*
X493327Y392327D01*
Y393389D01*
X493052Y394414D01*
X492521Y395334D01*
X491771Y396084D01*
X490851Y396615D01*
X489826Y396890D01*
D02*
G37*
G36*
X467736D02*
X459673D01*
Y388827D01*
X467736D01*
Y396890D01*
D02*
G37*
G36*
X434326D02*
X433264D01*
X432239Y396615D01*
X431320Y396084D01*
X430569Y395334D01*
X430038Y394414D01*
X429764Y393389D01*
Y392327D01*
X430038Y391302D01*
X430569Y390383D01*
X431320Y389632D01*
X432239Y389102D01*
X433264Y388827D01*
X434326D01*
X435351Y389102D01*
X436271Y389632D01*
X437021Y390383D01*
X437552Y391302D01*
X437827Y392327D01*
Y393389D01*
X437552Y394414D01*
X437021Y395334D01*
X436271Y396084D01*
X435351Y396615D01*
X434326Y396890D01*
D02*
G37*
G36*
X412236D02*
X404173D01*
Y388827D01*
X412236D01*
Y396890D01*
D02*
G37*
G36*
X380326D02*
X379264D01*
X378239Y396615D01*
X377320Y396084D01*
X376569Y395334D01*
X376039Y394414D01*
X375764Y393389D01*
Y392327D01*
X376039Y391302D01*
X376569Y390383D01*
X377320Y389632D01*
X378239Y389102D01*
X379264Y388827D01*
X380326D01*
X381351Y389102D01*
X382271Y389632D01*
X383021Y390383D01*
X383552Y391302D01*
X383827Y392327D01*
Y393389D01*
X383552Y394414D01*
X383021Y395334D01*
X382271Y396084D01*
X381351Y396615D01*
X380326Y396890D01*
D02*
G37*
G36*
X358236D02*
X350173D01*
Y388827D01*
X358236D01*
Y396890D01*
D02*
G37*
G36*
X194546Y394150D02*
X193454D01*
X192398Y393867D01*
X191452Y393320D01*
X190680Y392548D01*
X190133Y391602D01*
X189850Y390546D01*
Y389454D01*
X190133Y388398D01*
X190680Y387452D01*
X191452Y386680D01*
X192398Y386133D01*
X193454Y385850D01*
X194546D01*
X195602Y386133D01*
X196548Y386680D01*
X197320Y387452D01*
X197867Y388398D01*
X198150Y389454D01*
Y390546D01*
X197867Y391602D01*
X197320Y392548D01*
X196548Y393320D01*
X195602Y393867D01*
X194546Y394150D01*
D02*
G37*
G36*
X324023Y392969D02*
X322977D01*
X321968Y392698D01*
X321063Y392176D01*
X320324Y391437D01*
X319802Y390532D01*
X319531Y389523D01*
Y388477D01*
X319802Y387468D01*
X320324Y386563D01*
X321063Y385824D01*
X321968Y385302D01*
X322977Y385032D01*
X324023D01*
X325032Y385302D01*
X325937Y385824D01*
X326676Y386563D01*
X327198Y387468D01*
X327468Y388477D01*
Y389523D01*
X327198Y390532D01*
X326676Y391437D01*
X325937Y392176D01*
X325032Y392698D01*
X324023Y392969D01*
D02*
G37*
G36*
X264022D02*
X262978D01*
X261968Y392698D01*
X261063Y392176D01*
X260324Y391437D01*
X259802Y390532D01*
X259531Y389523D01*
Y388477D01*
X259802Y387468D01*
X260324Y386563D01*
X261063Y385824D01*
X261968Y385302D01*
X262978Y385032D01*
X264022D01*
X265032Y385302D01*
X265937Y385824D01*
X266676Y386563D01*
X267198Y387468D01*
X267469Y388477D01*
Y389523D01*
X267198Y390532D01*
X266676Y391437D01*
X265937Y392176D01*
X265032Y392698D01*
X264022Y392969D01*
D02*
G37*
G36*
X150012Y387600D02*
X144902D01*
Y384496D01*
X152336D01*
Y385276D01*
X152159Y386165D01*
X151655Y386919D01*
X150901Y387423D01*
X150012Y387600D01*
D02*
G37*
G36*
X143902D02*
X138791D01*
X137902Y387423D01*
X137148Y386919D01*
X136644Y386165D01*
X136467Y385276D01*
Y384496D01*
X143902D01*
Y387600D01*
D02*
G37*
G36*
X152336Y383496D02*
X144902D01*
Y380392D01*
X150012D01*
X150901Y380569D01*
X151655Y381073D01*
X152159Y381827D01*
X152336Y382716D01*
Y383496D01*
D02*
G37*
G36*
X143902D02*
X136467D01*
Y382716D01*
X136644Y381827D01*
X137148Y381073D01*
X137902Y380569D01*
X138791Y380392D01*
X143902D01*
Y383496D01*
D02*
G37*
G36*
X529500Y381489D02*
Y378500D01*
X532489D01*
X532262Y379351D01*
X531801Y380149D01*
X531149Y380801D01*
X530351Y381261D01*
X529500Y381489D01*
D02*
G37*
G36*
X528500D02*
X527649Y381261D01*
X526851Y380801D01*
X526199Y380149D01*
X525738Y379351D01*
X525511Y378500D01*
X528500D01*
Y381489D01*
D02*
G37*
G36*
X324023Y382968D02*
X322977D01*
X321968Y382698D01*
X321063Y382176D01*
X320324Y381437D01*
X319802Y380532D01*
X319531Y379522D01*
Y378478D01*
X319802Y377468D01*
X320324Y376563D01*
X321063Y375824D01*
X321968Y375302D01*
X322977Y375031D01*
X324023D01*
X325032Y375302D01*
X325937Y375824D01*
X326676Y376563D01*
X327198Y377468D01*
X327468Y378478D01*
Y379522D01*
X327198Y380532D01*
X326676Y381437D01*
X325937Y382176D01*
X325032Y382698D01*
X324023Y382968D01*
D02*
G37*
G36*
X264022D02*
X262978D01*
X261968Y382698D01*
X261063Y382176D01*
X260324Y381437D01*
X259802Y380532D01*
X259531Y379522D01*
Y378478D01*
X259802Y377468D01*
X260324Y376563D01*
X261063Y375824D01*
X261968Y375302D01*
X262978Y375031D01*
X264022D01*
X265032Y375302D01*
X265937Y375824D01*
X266676Y376563D01*
X267198Y377468D01*
X267469Y378478D01*
Y379522D01*
X267198Y380532D01*
X266676Y381437D01*
X265937Y382176D01*
X265032Y382698D01*
X264022Y382968D01*
D02*
G37*
G36*
X532489Y377500D02*
X529500D01*
Y374511D01*
X530351Y374739D01*
X531149Y375199D01*
X531801Y375851D01*
X532262Y376649D01*
X532489Y377500D01*
D02*
G37*
G36*
X528500D02*
X525511D01*
X525738Y376649D01*
X526199Y375851D01*
X526851Y375199D01*
X527649Y374739D01*
X528500Y374511D01*
Y377500D01*
D02*
G37*
G36*
X489826Y379173D02*
X488764D01*
X487739Y378899D01*
X486820Y378368D01*
X486069Y377617D01*
X485538Y376698D01*
X485264Y375673D01*
Y374611D01*
X485538Y373586D01*
X486069Y372666D01*
X486820Y371916D01*
X487739Y371385D01*
X488764Y371110D01*
X489826D01*
X490851Y371385D01*
X491771Y371916D01*
X492521Y372666D01*
X493052Y373586D01*
X493327Y374611D01*
Y375673D01*
X493052Y376698D01*
X492521Y377617D01*
X491771Y378368D01*
X490851Y378899D01*
X489826Y379173D01*
D02*
G37*
G36*
X464235D02*
X463174D01*
X462149Y378899D01*
X461229Y378368D01*
X460479Y377617D01*
X459948Y376698D01*
X459673Y375673D01*
Y374611D01*
X459948Y373586D01*
X460479Y372666D01*
X461229Y371916D01*
X462149Y371385D01*
X463174Y371110D01*
X464235D01*
X465261Y371385D01*
X466180Y371916D01*
X466931Y372666D01*
X467461Y373586D01*
X467736Y374611D01*
Y375673D01*
X467461Y376698D01*
X466931Y377617D01*
X466180Y378368D01*
X465261Y378899D01*
X464235Y379173D01*
D02*
G37*
G36*
X434326D02*
X433264D01*
X432239Y378899D01*
X431320Y378368D01*
X430569Y377617D01*
X430038Y376698D01*
X429764Y375673D01*
Y374611D01*
X430038Y373586D01*
X430569Y372666D01*
X431320Y371916D01*
X432239Y371385D01*
X433264Y371110D01*
X434326D01*
X435351Y371385D01*
X436271Y371916D01*
X437021Y372666D01*
X437552Y373586D01*
X437827Y374611D01*
Y375673D01*
X437552Y376698D01*
X437021Y377617D01*
X436271Y378368D01*
X435351Y378899D01*
X434326Y379173D01*
D02*
G37*
G36*
X408736D02*
X407674D01*
X406649Y378899D01*
X405729Y378368D01*
X404979Y377617D01*
X404448Y376698D01*
X404173Y375673D01*
Y374611D01*
X404448Y373586D01*
X404979Y372666D01*
X405729Y371916D01*
X406649Y371385D01*
X407674Y371110D01*
X408736D01*
X409761Y371385D01*
X410680Y371916D01*
X411431Y372666D01*
X411962Y373586D01*
X412236Y374611D01*
Y375673D01*
X411962Y376698D01*
X411431Y377617D01*
X410680Y378368D01*
X409761Y378899D01*
X408736Y379173D01*
D02*
G37*
G36*
X380326D02*
X379264D01*
X378239Y378899D01*
X377320Y378368D01*
X376569Y377617D01*
X376039Y376698D01*
X375764Y375673D01*
Y374611D01*
X376039Y373586D01*
X376569Y372666D01*
X377320Y371916D01*
X378239Y371385D01*
X379264Y371110D01*
X380326D01*
X381351Y371385D01*
X382271Y371916D01*
X383021Y372666D01*
X383552Y373586D01*
X383827Y374611D01*
Y375673D01*
X383552Y376698D01*
X383021Y377617D01*
X382271Y378368D01*
X381351Y378899D01*
X380326Y379173D01*
D02*
G37*
G36*
X354735D02*
X353674D01*
X352649Y378899D01*
X351729Y378368D01*
X350979Y377617D01*
X350448Y376698D01*
X350173Y375673D01*
Y374611D01*
X350448Y373586D01*
X350979Y372666D01*
X351729Y371916D01*
X352649Y371385D01*
X353674Y371110D01*
X354735D01*
X355761Y371385D01*
X356680Y371916D01*
X357431Y372666D01*
X357962Y373586D01*
X358236Y374611D01*
Y375673D01*
X357962Y376698D01*
X357431Y377617D01*
X356680Y378368D01*
X355761Y378899D01*
X354735Y379173D01*
D02*
G37*
G36*
X324023Y372969D02*
X322977D01*
X321968Y372698D01*
X321063Y372176D01*
X320324Y371437D01*
X319802Y370532D01*
X319531Y369523D01*
Y368478D01*
X319802Y367468D01*
X320324Y366563D01*
X321063Y365824D01*
X321968Y365302D01*
X322977Y365032D01*
X324023D01*
X325032Y365302D01*
X325937Y365824D01*
X326676Y366563D01*
X327198Y367468D01*
X327468Y368478D01*
Y369523D01*
X327198Y370532D01*
X326676Y371437D01*
X325937Y372176D01*
X325032Y372698D01*
X324023Y372969D01*
D02*
G37*
G36*
X264022D02*
X262978D01*
X261968Y372698D01*
X261063Y372176D01*
X260324Y371437D01*
X259802Y370532D01*
X259531Y369523D01*
Y368478D01*
X259802Y367468D01*
X260324Y366563D01*
X261063Y365824D01*
X261968Y365302D01*
X262978Y365032D01*
X264022D01*
X265032Y365302D01*
X265937Y365824D01*
X266676Y366563D01*
X267198Y367468D01*
X267469Y368478D01*
Y369523D01*
X267198Y370532D01*
X266676Y371437D01*
X265937Y372176D01*
X265032Y372698D01*
X264022Y372969D01*
D02*
G37*
G36*
X541826Y372890D02*
X540765D01*
X539739Y372615D01*
X538820Y372084D01*
X538069Y371334D01*
X537538Y370414D01*
X537264Y369389D01*
Y368327D01*
X537538Y367302D01*
X538069Y366383D01*
X538820Y365632D01*
X539739Y365102D01*
X540765Y364827D01*
X541826D01*
X542851Y365102D01*
X543771Y365632D01*
X544521Y366383D01*
X545052Y367302D01*
X545327Y368327D01*
Y369389D01*
X545052Y370414D01*
X544521Y371334D01*
X543771Y372084D01*
X542851Y372615D01*
X541826Y372890D01*
D02*
G37*
G36*
X519736D02*
X511673D01*
Y364827D01*
X519736D01*
Y372890D01*
D02*
G37*
G36*
X324023Y362968D02*
X322977D01*
X321968Y362698D01*
X321063Y362176D01*
X320324Y361437D01*
X319802Y360532D01*
X319531Y359523D01*
Y358477D01*
X319802Y357468D01*
X320324Y356563D01*
X321063Y355824D01*
X321968Y355302D01*
X322977Y355031D01*
X324023D01*
X325032Y355302D01*
X325937Y355824D01*
X326676Y356563D01*
X327198Y357468D01*
X327468Y358477D01*
Y359523D01*
X327198Y360532D01*
X326676Y361437D01*
X325937Y362176D01*
X325032Y362698D01*
X324023Y362968D01*
D02*
G37*
G36*
X264022D02*
X262978D01*
X261968Y362698D01*
X261063Y362176D01*
X260324Y361437D01*
X259802Y360532D01*
X259531Y359523D01*
Y358477D01*
X259802Y357468D01*
X260324Y356563D01*
X261063Y355824D01*
X261968Y355302D01*
X262978Y355031D01*
X264022D01*
X265032Y355302D01*
X265937Y355824D01*
X266676Y356563D01*
X267198Y357468D01*
X267469Y358477D01*
Y359523D01*
X267198Y360532D01*
X266676Y361437D01*
X265937Y362176D01*
X265032Y362698D01*
X264022Y362968D01*
D02*
G37*
G36*
X297461Y421500D02*
X296539D01*
X295649Y421262D01*
X294851Y420801D01*
X294199Y420149D01*
X293739Y419351D01*
X293500Y418461D01*
Y417539D01*
X293739Y416649D01*
X294199Y415851D01*
X294851Y415199D01*
X295471Y414842D01*
Y359348D01*
X295149Y359261D01*
X294351Y358801D01*
X293699Y358149D01*
X293238Y357351D01*
X293000Y356461D01*
Y355539D01*
X293238Y354649D01*
X293699Y353851D01*
X294351Y353199D01*
X295149Y352738D01*
X296039Y352500D01*
X296961D01*
X297851Y352738D01*
X298649Y353199D01*
X299301Y353851D01*
X299762Y354649D01*
X300000Y355539D01*
Y356461D01*
X299762Y357351D01*
X299301Y358149D01*
X298649Y358801D01*
X298529Y358870D01*
Y414842D01*
X299149Y415199D01*
X299801Y415851D01*
X300261Y416649D01*
X300500Y417539D01*
Y418461D01*
X300261Y419351D01*
X299801Y420149D01*
X299149Y420801D01*
X298351Y421262D01*
X297461Y421500D01*
D02*
G37*
G36*
X303961Y431500D02*
X303039D01*
X302149Y431261D01*
X301351Y430801D01*
X300699Y430149D01*
X300238Y429351D01*
X300000Y428461D01*
Y427539D01*
X300238Y426649D01*
X300699Y425851D01*
X301351Y425199D01*
X302149Y424739D01*
X302471Y424652D01*
Y358659D01*
X301851Y358301D01*
X301199Y357649D01*
X300739Y356851D01*
X300500Y355961D01*
Y355039D01*
X300739Y354149D01*
X301199Y353351D01*
X301851Y352699D01*
X302649Y352238D01*
X303539Y352000D01*
X304461D01*
X305351Y352238D01*
X306149Y352699D01*
X306801Y353351D01*
X307261Y354149D01*
X307500Y355039D01*
Y355961D01*
X307261Y356851D01*
X306801Y357649D01*
X306149Y358301D01*
X305529Y358659D01*
Y425130D01*
X305649Y425199D01*
X306301Y425851D01*
X306762Y426649D01*
X307000Y427539D01*
Y428461D01*
X306762Y429351D01*
X306301Y430149D01*
X305649Y430801D01*
X304851Y431261D01*
X303961Y431500D01*
D02*
G37*
G36*
X220000Y352489D02*
Y349500D01*
X222990D01*
X222762Y350351D01*
X222301Y351149D01*
X221649Y351801D01*
X220851Y352261D01*
X220000Y352489D01*
D02*
G37*
G36*
X219000D02*
X218149Y352261D01*
X217351Y351801D01*
X216699Y351149D01*
X216238Y350351D01*
X216010Y349500D01*
X219000D01*
Y352489D01*
D02*
G37*
G36*
X181150Y357150D02*
X172850D01*
Y348850D01*
X181150D01*
Y357150D01*
D02*
G37*
G36*
X157546D02*
X156454D01*
X155398Y356867D01*
X154452Y356321D01*
X153680Y355548D01*
X153133Y354602D01*
X152850Y353546D01*
Y352454D01*
X153133Y351398D01*
X153680Y350452D01*
X154452Y349679D01*
X155398Y349133D01*
X156454Y348850D01*
X157546D01*
X158602Y349133D01*
X159548Y349679D01*
X160320Y350452D01*
X160867Y351398D01*
X161150Y352454D01*
Y353546D01*
X160867Y354602D01*
X160320Y355548D01*
X159548Y356321D01*
X158602Y356867D01*
X157546Y357150D01*
D02*
G37*
G36*
X541826Y355173D02*
X540765D01*
X539739Y354899D01*
X538820Y354368D01*
X538069Y353617D01*
X537538Y352698D01*
X537264Y351673D01*
Y350611D01*
X537538Y349586D01*
X538069Y348666D01*
X538820Y347916D01*
X539739Y347385D01*
X540765Y347110D01*
X541826D01*
X542851Y347385D01*
X543771Y347916D01*
X544521Y348666D01*
X545052Y349586D01*
X545327Y350611D01*
Y351673D01*
X545052Y352698D01*
X544521Y353617D01*
X543771Y354368D01*
X542851Y354899D01*
X541826Y355173D01*
D02*
G37*
G36*
X516235D02*
X515174D01*
X514149Y354899D01*
X513229Y354368D01*
X512479Y353617D01*
X511948Y352698D01*
X511673Y351673D01*
Y350611D01*
X511948Y349586D01*
X512479Y348666D01*
X513229Y347916D01*
X514149Y347385D01*
X515174Y347110D01*
X516235D01*
X517261Y347385D01*
X518180Y347916D01*
X518931Y348666D01*
X519461Y349586D01*
X519736Y350611D01*
Y351673D01*
X519461Y352698D01*
X518931Y353617D01*
X518180Y354368D01*
X517261Y354899D01*
X516235Y355173D01*
D02*
G37*
G36*
X222990Y348500D02*
X220000D01*
Y345511D01*
X220851Y345739D01*
X221649Y346199D01*
X222301Y346851D01*
X222762Y347649D01*
X222990Y348500D01*
D02*
G37*
G36*
X219000D02*
X216010D01*
X216238Y347649D01*
X216699Y346851D01*
X217351Y346199D01*
X218149Y345739D01*
X219000Y345511D01*
Y348500D01*
D02*
G37*
G36*
X324023Y352969D02*
X322977D01*
X321968Y352698D01*
X321063Y352176D01*
X320324Y351437D01*
X319802Y350532D01*
X319531Y349522D01*
Y348478D01*
X319802Y347468D01*
X320324Y346563D01*
X321063Y345824D01*
X321968Y345302D01*
X322977Y345031D01*
X324023D01*
X325032Y345302D01*
X325937Y345824D01*
X326676Y346563D01*
X327198Y347468D01*
X327468Y348478D01*
Y349522D01*
X327198Y350532D01*
X326676Y351437D01*
X325937Y352176D01*
X325032Y352698D01*
X324023Y352969D01*
D02*
G37*
G36*
X264022D02*
X262978D01*
X261968Y352698D01*
X261063Y352176D01*
X260324Y351437D01*
X259802Y350532D01*
X259531Y349522D01*
Y348478D01*
X259802Y347468D01*
X260324Y346563D01*
X261063Y345824D01*
X261968Y345302D01*
X262978Y345031D01*
X264022D01*
X265032Y345302D01*
X265937Y345824D01*
X266676Y346563D01*
X267198Y347468D01*
X267469Y348478D01*
Y349522D01*
X267198Y350532D01*
X266676Y351437D01*
X265937Y352176D01*
X265032Y352698D01*
X264022Y352969D01*
D02*
G37*
G36*
X489826Y348890D02*
X488764D01*
X487739Y348615D01*
X486820Y348084D01*
X486069Y347334D01*
X485538Y346414D01*
X485264Y345389D01*
Y344327D01*
X485538Y343302D01*
X486069Y342383D01*
X486820Y341632D01*
X487739Y341102D01*
X488764Y340827D01*
X489826D01*
X490851Y341102D01*
X491771Y341632D01*
X492521Y342383D01*
X493052Y343302D01*
X493327Y344327D01*
Y345389D01*
X493052Y346414D01*
X492521Y347334D01*
X491771Y348084D01*
X490851Y348615D01*
X489826Y348890D01*
D02*
G37*
G36*
X464235D02*
X463174D01*
X462149Y348615D01*
X461229Y348084D01*
X460479Y347334D01*
X459948Y346414D01*
X459673Y345389D01*
Y344327D01*
X459948Y343302D01*
X460479Y342383D01*
X461229Y341632D01*
X462149Y341102D01*
X463174Y340827D01*
X464235D01*
X465261Y341102D01*
X466180Y341632D01*
X466931Y342383D01*
X467461Y343302D01*
X467736Y344327D01*
Y345389D01*
X467461Y346414D01*
X466931Y347334D01*
X466180Y348084D01*
X465261Y348615D01*
X464235Y348890D01*
D02*
G37*
G36*
X434326D02*
X433264D01*
X432239Y348615D01*
X431320Y348084D01*
X430569Y347334D01*
X430038Y346414D01*
X429764Y345389D01*
Y344327D01*
X430038Y343302D01*
X430569Y342383D01*
X431320Y341632D01*
X432239Y341102D01*
X433264Y340827D01*
X434326D01*
X435351Y341102D01*
X436271Y341632D01*
X437021Y342383D01*
X437552Y343302D01*
X437827Y344327D01*
Y345389D01*
X437552Y346414D01*
X437021Y347334D01*
X436271Y348084D01*
X435351Y348615D01*
X434326Y348890D01*
D02*
G37*
G36*
X408736D02*
X407674D01*
X406649Y348615D01*
X405729Y348084D01*
X404979Y347334D01*
X404448Y346414D01*
X404173Y345389D01*
Y344327D01*
X404448Y343302D01*
X404979Y342383D01*
X405729Y341632D01*
X406649Y341102D01*
X407674Y340827D01*
X408736D01*
X409761Y341102D01*
X410680Y341632D01*
X411431Y342383D01*
X411962Y343302D01*
X412236Y344327D01*
Y345389D01*
X411962Y346414D01*
X411431Y347334D01*
X410680Y348084D01*
X409761Y348615D01*
X408736Y348890D01*
D02*
G37*
G36*
X380326D02*
X379264D01*
X378239Y348615D01*
X377320Y348084D01*
X376569Y347334D01*
X376039Y346414D01*
X375764Y345389D01*
Y344327D01*
X376039Y343302D01*
X376569Y342383D01*
X377320Y341632D01*
X378239Y341102D01*
X379264Y340827D01*
X380326D01*
X381351Y341102D01*
X382271Y341632D01*
X383021Y342383D01*
X383552Y343302D01*
X383827Y344327D01*
Y345389D01*
X383552Y346414D01*
X383021Y347334D01*
X382271Y348084D01*
X381351Y348615D01*
X380326Y348890D01*
D02*
G37*
G36*
X354735D02*
X353674D01*
X352649Y348615D01*
X351729Y348084D01*
X350979Y347334D01*
X350448Y346414D01*
X350173Y345389D01*
Y344327D01*
X350448Y343302D01*
X350979Y342383D01*
X351729Y341632D01*
X352649Y341102D01*
X353674Y340827D01*
X354735D01*
X355761Y341102D01*
X356680Y341632D01*
X357431Y342383D01*
X357962Y343302D01*
X358236Y344327D01*
Y345389D01*
X357962Y346414D01*
X357431Y347334D01*
X356680Y348084D01*
X355761Y348615D01*
X354735Y348890D01*
D02*
G37*
G36*
X324023Y342969D02*
X322977D01*
X321968Y342698D01*
X321063Y342176D01*
X320324Y341437D01*
X319802Y340532D01*
X319531Y339523D01*
Y338477D01*
X319802Y337468D01*
X320324Y336563D01*
X321063Y335824D01*
X321968Y335302D01*
X322977Y335032D01*
X324023D01*
X325032Y335302D01*
X325937Y335824D01*
X326676Y336563D01*
X327198Y337468D01*
X327468Y338477D01*
Y339523D01*
X327198Y340532D01*
X326676Y341437D01*
X325937Y342176D01*
X325032Y342698D01*
X324023Y342969D01*
D02*
G37*
G36*
X264022D02*
X262978D01*
X261968Y342698D01*
X261063Y342176D01*
X260324Y341437D01*
X259802Y340532D01*
X259531Y339523D01*
Y338477D01*
X259802Y337468D01*
X260324Y336563D01*
X261063Y335824D01*
X261968Y335302D01*
X262978Y335032D01*
X264022D01*
X265032Y335302D01*
X265937Y335824D01*
X266676Y336563D01*
X267198Y337468D01*
X267469Y338477D01*
Y339523D01*
X267198Y340532D01*
X266676Y341437D01*
X265937Y342176D01*
X265032Y342698D01*
X264022Y342969D01*
D02*
G37*
G36*
X142000Y336989D02*
Y334000D01*
X144990D01*
X144762Y334851D01*
X144301Y335649D01*
X143649Y336301D01*
X142851Y336761D01*
X142000Y336989D01*
D02*
G37*
G36*
X141000D02*
X140149Y336761D01*
X139351Y336301D01*
X138699Y335649D01*
X138239Y334851D01*
X138011Y334000D01*
X141000D01*
Y336989D01*
D02*
G37*
G36*
X144990Y333000D02*
X142000D01*
Y330011D01*
X142851Y330239D01*
X143649Y330699D01*
X144301Y331351D01*
X144762Y332149D01*
X144990Y333000D01*
D02*
G37*
G36*
X141000D02*
X138011D01*
X138239Y332149D01*
X138699Y331351D01*
X139351Y330699D01*
X140149Y330239D01*
X141000Y330011D01*
Y333000D01*
D02*
G37*
G36*
X324023Y332968D02*
X322977D01*
X321968Y332698D01*
X321063Y332176D01*
X320324Y331437D01*
X319802Y330532D01*
X319531Y329522D01*
Y328478D01*
X319802Y327468D01*
X320324Y326563D01*
X321063Y325824D01*
X321968Y325302D01*
X322977Y325031D01*
X324023D01*
X325032Y325302D01*
X325937Y325824D01*
X326676Y326563D01*
X327198Y327468D01*
X327468Y328478D01*
Y329522D01*
X327198Y330532D01*
X326676Y331437D01*
X325937Y332176D01*
X325032Y332698D01*
X324023Y332968D01*
D02*
G37*
G36*
X264022D02*
X262978D01*
X261968Y332698D01*
X261063Y332176D01*
X260324Y331437D01*
X259802Y330532D01*
X259531Y329522D01*
Y328478D01*
X259802Y327468D01*
X260324Y326563D01*
X261063Y325824D01*
X261968Y325302D01*
X262978Y325031D01*
X264022D01*
X265032Y325302D01*
X265937Y325824D01*
X266676Y326563D01*
X267198Y327468D01*
X267469Y328478D01*
Y329522D01*
X267198Y330532D01*
X266676Y331437D01*
X265937Y332176D01*
X265032Y332698D01*
X264022Y332968D01*
D02*
G37*
G36*
X493327Y331173D02*
X485264D01*
Y323110D01*
X493327D01*
Y331173D01*
D02*
G37*
G36*
X464235D02*
X463174D01*
X462149Y330898D01*
X461229Y330368D01*
X460479Y329617D01*
X459948Y328698D01*
X459673Y327673D01*
Y326611D01*
X459948Y325586D01*
X460479Y324666D01*
X461229Y323916D01*
X462149Y323385D01*
X463174Y323110D01*
X464235D01*
X465261Y323385D01*
X466180Y323916D01*
X466931Y324666D01*
X467461Y325586D01*
X467736Y326611D01*
Y327673D01*
X467461Y328698D01*
X466931Y329617D01*
X466180Y330368D01*
X465261Y330898D01*
X464235Y331173D01*
D02*
G37*
G36*
X437827D02*
X429764D01*
Y323110D01*
X437827D01*
Y331173D01*
D02*
G37*
G36*
X408736D02*
X407674D01*
X406649Y330898D01*
X405729Y330368D01*
X404979Y329617D01*
X404448Y328698D01*
X404173Y327673D01*
Y326611D01*
X404448Y325586D01*
X404979Y324666D01*
X405729Y323916D01*
X406649Y323385D01*
X407674Y323110D01*
X408736D01*
X409761Y323385D01*
X410680Y323916D01*
X411431Y324666D01*
X411962Y325586D01*
X412236Y326611D01*
Y327673D01*
X411962Y328698D01*
X411431Y329617D01*
X410680Y330368D01*
X409761Y330898D01*
X408736Y331173D01*
D02*
G37*
G36*
X383827D02*
X375764D01*
Y323110D01*
X383827D01*
Y331173D01*
D02*
G37*
G36*
X354735D02*
X353674D01*
X352649Y330898D01*
X351729Y330368D01*
X350979Y329617D01*
X350448Y328698D01*
X350173Y327673D01*
Y326611D01*
X350448Y325586D01*
X350979Y324666D01*
X351729Y323916D01*
X352649Y323385D01*
X353674Y323110D01*
X354735D01*
X355761Y323385D01*
X356680Y323916D01*
X357431Y324666D01*
X357962Y325586D01*
X358236Y326611D01*
Y327673D01*
X357962Y328698D01*
X357431Y329617D01*
X356680Y330368D01*
X355761Y330898D01*
X354735Y331173D01*
D02*
G37*
G36*
X220000Y322990D02*
Y320000D01*
X222990D01*
X222762Y320851D01*
X222301Y321649D01*
X221649Y322301D01*
X220851Y322762D01*
X220000Y322990D01*
D02*
G37*
G36*
X219000D02*
X218149Y322762D01*
X217351Y322301D01*
X216699Y321649D01*
X216238Y320851D01*
X216010Y320000D01*
X219000D01*
Y322990D01*
D02*
G37*
G36*
X477500Y322490D02*
Y319500D01*
X480489D01*
X480262Y320351D01*
X479801Y321149D01*
X479149Y321801D01*
X478351Y322262D01*
X477500Y322490D01*
D02*
G37*
G36*
X476500D02*
X475649Y322262D01*
X474851Y321801D01*
X474199Y321149D01*
X473738Y320351D01*
X473511Y319500D01*
X476500D01*
Y322490D01*
D02*
G37*
G36*
X181150Y327650D02*
X172850D01*
Y319350D01*
X181150D01*
Y327650D01*
D02*
G37*
G36*
X157546D02*
X156454D01*
X155398Y327367D01*
X154452Y326820D01*
X153680Y326048D01*
X153133Y325102D01*
X152850Y324046D01*
Y322954D01*
X153133Y321898D01*
X153680Y320952D01*
X154452Y320180D01*
X155398Y319633D01*
X156454Y319350D01*
X157546D01*
X158602Y319633D01*
X159548Y320180D01*
X160320Y320952D01*
X160867Y321898D01*
X161150Y322954D01*
Y324046D01*
X160867Y325102D01*
X160320Y326048D01*
X159548Y326820D01*
X158602Y327367D01*
X157546Y327650D01*
D02*
G37*
G36*
X422000Y321989D02*
Y319000D01*
X424990D01*
X424761Y319851D01*
X424301Y320649D01*
X423649Y321301D01*
X422851Y321761D01*
X422000Y321989D01*
D02*
G37*
G36*
X421000D02*
X420149Y321761D01*
X419351Y321301D01*
X418699Y320649D01*
X418238Y319851D01*
X418011Y319000D01*
X421000D01*
Y321989D01*
D02*
G37*
G36*
X367000D02*
Y319000D01*
X369989D01*
X369761Y319851D01*
X369301Y320649D01*
X368649Y321301D01*
X367851Y321761D01*
X367000Y321989D01*
D02*
G37*
G36*
X366000D02*
X365149Y321761D01*
X364351Y321301D01*
X363699Y320649D01*
X363239Y319851D01*
X363011Y319000D01*
X366000D01*
Y321989D01*
D02*
G37*
G36*
X222990Y319000D02*
X220000D01*
Y316010D01*
X220851Y316238D01*
X221649Y316699D01*
X222301Y317351D01*
X222762Y318149D01*
X222990Y319000D01*
D02*
G37*
G36*
X219000D02*
X216010D01*
X216238Y318149D01*
X216699Y317351D01*
X217351Y316699D01*
X218149Y316238D01*
X219000Y316010D01*
Y319000D01*
D02*
G37*
G36*
X480489Y318500D02*
X477500D01*
Y315511D01*
X478351Y315739D01*
X479149Y316199D01*
X479801Y316851D01*
X480262Y317649D01*
X480489Y318500D01*
D02*
G37*
G36*
X476500D02*
X473511D01*
X473738Y317649D01*
X474199Y316851D01*
X474851Y316199D01*
X475649Y315739D01*
X476500Y315511D01*
Y318500D01*
D02*
G37*
G36*
X324023Y322969D02*
X322977D01*
X321968Y322698D01*
X321063Y322176D01*
X320324Y321437D01*
X319802Y320532D01*
X319531Y319523D01*
Y318478D01*
X319802Y317468D01*
X320324Y316563D01*
X321063Y315824D01*
X321968Y315302D01*
X322977Y315032D01*
X324023D01*
X325032Y315302D01*
X325937Y315824D01*
X326676Y316563D01*
X327198Y317468D01*
X327468Y318478D01*
Y319523D01*
X327198Y320532D01*
X326676Y321437D01*
X325937Y322176D01*
X325032Y322698D01*
X324023Y322969D01*
D02*
G37*
G36*
X264022D02*
X262978D01*
X261968Y322698D01*
X261063Y322176D01*
X260324Y321437D01*
X259802Y320532D01*
X259531Y319523D01*
Y318478D01*
X259802Y317468D01*
X260324Y316563D01*
X261063Y315824D01*
X261968Y315302D01*
X262978Y315032D01*
X264022D01*
X265032Y315302D01*
X265937Y315824D01*
X266676Y316563D01*
X267198Y317468D01*
X267469Y318478D01*
Y319523D01*
X267198Y320532D01*
X266676Y321437D01*
X265937Y322176D01*
X265032Y322698D01*
X264022Y322969D01*
D02*
G37*
G36*
X424990Y318000D02*
X422000D01*
Y315010D01*
X422851Y315238D01*
X423649Y315699D01*
X424301Y316351D01*
X424761Y317149D01*
X424990Y318000D01*
D02*
G37*
G36*
X421000D02*
X418011D01*
X418238Y317149D01*
X418699Y316351D01*
X419351Y315699D01*
X420149Y315238D01*
X421000Y315010D01*
Y318000D01*
D02*
G37*
G36*
X369989D02*
X367000D01*
Y315010D01*
X367851Y315238D01*
X368649Y315699D01*
X369301Y316351D01*
X369761Y317149D01*
X369989Y318000D01*
D02*
G37*
G36*
X366000D02*
X363011D01*
X363239Y317149D01*
X363699Y316351D01*
X364351Y315699D01*
X365149Y315238D01*
X366000Y315010D01*
Y318000D01*
D02*
G37*
G36*
X324023Y312968D02*
X322977D01*
X321968Y312698D01*
X321063Y312176D01*
X320324Y311437D01*
X319802Y310532D01*
X319531Y309523D01*
Y308477D01*
X319802Y307468D01*
X320324Y306563D01*
X321063Y305824D01*
X321968Y305302D01*
X322977Y305031D01*
X324023D01*
X325032Y305302D01*
X325937Y305824D01*
X326676Y306563D01*
X327198Y307468D01*
X327468Y308477D01*
Y309523D01*
X327198Y310532D01*
X326676Y311437D01*
X325937Y312176D01*
X325032Y312698D01*
X324023Y312968D01*
D02*
G37*
G36*
X264022D02*
X262978D01*
X261968Y312698D01*
X261063Y312176D01*
X260324Y311437D01*
X259802Y310532D01*
X259531Y309523D01*
Y308477D01*
X259802Y307468D01*
X260324Y306563D01*
X261063Y305824D01*
X261968Y305302D01*
X262978Y305031D01*
X264022D01*
X265032Y305302D01*
X265937Y305824D01*
X266676Y306563D01*
X267198Y307468D01*
X267469Y308477D01*
Y309523D01*
X267198Y310532D01*
X266676Y311437D01*
X265937Y312176D01*
X265032Y312698D01*
X264022Y312968D01*
D02*
G37*
G36*
X142000Y306990D02*
Y304000D01*
X144990D01*
X144762Y304851D01*
X144301Y305649D01*
X143649Y306301D01*
X142851Y306762D01*
X142000Y306990D01*
D02*
G37*
G36*
X141000D02*
X140149Y306762D01*
X139351Y306301D01*
X138699Y305649D01*
X138239Y304851D01*
X138011Y304000D01*
X141000D01*
Y306990D01*
D02*
G37*
G36*
X144990Y303000D02*
X142000D01*
Y300010D01*
X142851Y300238D01*
X143649Y300699D01*
X144301Y301351D01*
X144762Y302149D01*
X144990Y303000D01*
D02*
G37*
G36*
X141000D02*
X138011D01*
X138239Y302149D01*
X138699Y301351D01*
X139351Y300699D01*
X140149Y300238D01*
X141000Y300010D01*
Y303000D01*
D02*
G37*
G36*
X264022Y302969D02*
X264000D01*
Y299500D01*
X267469D01*
Y299522D01*
X267198Y300532D01*
X266676Y301437D01*
X265937Y302176D01*
X265032Y302698D01*
X264022Y302969D01*
D02*
G37*
G36*
X263000D02*
X262978D01*
X261968Y302698D01*
X261063Y302176D01*
X260324Y301437D01*
X259802Y300532D01*
X259531Y299522D01*
Y299500D01*
X263000D01*
Y302969D01*
D02*
G37*
G36*
X324023D02*
X322977D01*
X321968Y302698D01*
X321063Y302176D01*
X320324Y301437D01*
X319802Y300532D01*
X319531Y299522D01*
Y298478D01*
X319802Y297468D01*
X320324Y296563D01*
X321063Y295824D01*
X321968Y295302D01*
X322977Y295031D01*
X324023D01*
X325032Y295302D01*
X325937Y295824D01*
X326676Y296563D01*
X327198Y297468D01*
X327468Y298478D01*
Y299522D01*
X327198Y300532D01*
X326676Y301437D01*
X325937Y302176D01*
X325032Y302698D01*
X324023Y302969D01*
D02*
G37*
G36*
X267469Y298500D02*
X264000D01*
Y295031D01*
X264022D01*
X265032Y295302D01*
X265937Y295824D01*
X266676Y296563D01*
X267198Y297468D01*
X267469Y298478D01*
Y298500D01*
D02*
G37*
G36*
X263000D02*
X259531D01*
Y298478D01*
X259802Y297468D01*
X260324Y296563D01*
X261063Y295824D01*
X261968Y295302D01*
X262978Y295031D01*
X263000D01*
Y298500D01*
D02*
G37*
G36*
X220000Y292989D02*
Y290000D01*
X222990D01*
X222762Y290851D01*
X222301Y291649D01*
X221649Y292301D01*
X220851Y292761D01*
X220000Y292989D01*
D02*
G37*
G36*
X219000D02*
X218149Y292761D01*
X217351Y292301D01*
X216699Y291649D01*
X216238Y290851D01*
X216010Y290000D01*
X219000D01*
Y292989D01*
D02*
G37*
G36*
X181150Y297150D02*
X172850D01*
Y288850D01*
X181150D01*
Y297150D01*
D02*
G37*
G36*
X157546D02*
X156454D01*
X155398Y296867D01*
X154452Y296321D01*
X153680Y295548D01*
X153133Y294602D01*
X152850Y293546D01*
Y292454D01*
X153133Y291398D01*
X153680Y290452D01*
X154452Y289680D01*
X155398Y289133D01*
X156454Y288850D01*
X157546D01*
X158602Y289133D01*
X159548Y289680D01*
X160320Y290452D01*
X160867Y291398D01*
X161150Y292454D01*
Y293546D01*
X160867Y294602D01*
X160320Y295548D01*
X159548Y296321D01*
X158602Y296867D01*
X157546Y297150D01*
D02*
G37*
G36*
X222990Y289000D02*
X220000D01*
Y286011D01*
X220851Y286239D01*
X221649Y286699D01*
X222301Y287351D01*
X222762Y288149D01*
X222990Y289000D01*
D02*
G37*
G36*
X219000D02*
X216010D01*
X216238Y288149D01*
X216699Y287351D01*
X217351Y286699D01*
X218149Y286239D01*
X219000Y286011D01*
Y289000D01*
D02*
G37*
G36*
X327468Y292969D02*
X319531D01*
Y285032D01*
X327468D01*
Y292969D01*
D02*
G37*
G36*
X264022D02*
X262978D01*
X261968Y292698D01*
X261063Y292176D01*
X260324Y291437D01*
X259802Y290532D01*
X259531Y289523D01*
Y288477D01*
X259802Y287468D01*
X260324Y286563D01*
X261063Y285824D01*
X261968Y285302D01*
X262978Y285032D01*
X264022D01*
X265032Y285302D01*
X265937Y285824D01*
X266676Y286563D01*
X267198Y287468D01*
X267469Y288477D01*
Y289523D01*
X267198Y290532D01*
X266676Y291437D01*
X265937Y292176D01*
X265032Y292698D01*
X264022Y292969D01*
D02*
G37*
G36*
X324060Y283250D02*
X322940D01*
X321860Y282960D01*
X320890Y282401D01*
X320099Y281610D01*
X319540Y280640D01*
X319250Y279559D01*
Y278440D01*
X319540Y277360D01*
X320099Y276390D01*
X320890Y275599D01*
X321860Y275040D01*
X322940Y274750D01*
X324060D01*
X325140Y275040D01*
X326110Y275599D01*
X326901Y276390D01*
X327460Y277360D01*
X327750Y278440D01*
Y279559D01*
X327460Y280640D01*
X326901Y281610D01*
X326110Y282401D01*
X325140Y282960D01*
X324060Y283250D01*
D02*
G37*
G36*
X264059D02*
X262941D01*
X261860Y282960D01*
X260890Y282401D01*
X260099Y281610D01*
X259540Y280640D01*
X259250Y279559D01*
Y278440D01*
X259540Y277360D01*
X260099Y276390D01*
X260890Y275599D01*
X261860Y275040D01*
X262941Y274750D01*
X264059D01*
X265140Y275040D01*
X266110Y275599D01*
X266901Y276390D01*
X267460Y277360D01*
X267750Y278440D01*
Y279559D01*
X267460Y280640D01*
X266901Y281610D01*
X266110Y282401D01*
X265140Y282960D01*
X264059Y283250D01*
D02*
G37*
G36*
X142000Y276990D02*
Y274000D01*
X144990D01*
X144762Y274851D01*
X144301Y275649D01*
X143649Y276301D01*
X142851Y276762D01*
X142000Y276990D01*
D02*
G37*
G36*
X141000D02*
X140149Y276762D01*
X139351Y276301D01*
X138699Y275649D01*
X138239Y274851D01*
X138011Y274000D01*
X141000D01*
Y276990D01*
D02*
G37*
G36*
X144990Y273000D02*
X142000D01*
Y270010D01*
X142851Y270238D01*
X143649Y270699D01*
X144301Y271351D01*
X144762Y272149D01*
X144990Y273000D01*
D02*
G37*
G36*
X141000D02*
X138011D01*
X138239Y272149D01*
X138699Y271351D01*
X139351Y270699D01*
X140149Y270238D01*
X141000Y270010D01*
Y273000D01*
D02*
G37*
G36*
X307033Y257551D02*
X305967D01*
X304936Y257275D01*
X304012Y256742D01*
X303258Y255988D01*
X302725Y255064D01*
X302449Y254033D01*
Y252967D01*
X302725Y251936D01*
X303258Y251012D01*
X304012Y250258D01*
X304936Y249725D01*
X305967Y249449D01*
X307033D01*
X308064Y249725D01*
X308987Y250258D01*
X309742Y251012D01*
X310275Y251936D01*
X310551Y252967D01*
Y254033D01*
X310275Y255064D01*
X309742Y255988D01*
X308987Y256742D01*
X308064Y257275D01*
X307033Y257551D01*
D02*
G37*
G36*
X297033D02*
X295967D01*
X294936Y257275D01*
X294012Y256742D01*
X293258Y255988D01*
X292725Y255064D01*
X292449Y254033D01*
Y252967D01*
X292725Y251936D01*
X293258Y251012D01*
X294012Y250258D01*
X294936Y249725D01*
X295967Y249449D01*
X297033D01*
X298064Y249725D01*
X298988Y250258D01*
X299742Y251012D01*
X300275Y251936D01*
X300551Y252967D01*
Y254033D01*
X300275Y255064D01*
X299742Y255988D01*
X298988Y256742D01*
X298064Y257275D01*
X297033Y257551D01*
D02*
G37*
G36*
X287033D02*
X285967D01*
X284936Y257275D01*
X284013Y256742D01*
X283258Y255988D01*
X282725Y255064D01*
X282449Y254033D01*
Y252967D01*
X282725Y251936D01*
X283258Y251012D01*
X284013Y250258D01*
X284936Y249725D01*
X285967Y249449D01*
X287033D01*
X288064Y249725D01*
X288987Y250258D01*
X289742Y251012D01*
X290275Y251936D01*
X290551Y252967D01*
Y254033D01*
X290275Y255064D01*
X289742Y255988D01*
X288987Y256742D01*
X288064Y257275D01*
X287033Y257551D01*
D02*
G37*
G36*
X280551D02*
X272449D01*
Y249449D01*
X280551D01*
Y257551D01*
D02*
G37*
G36*
X277033Y247551D02*
X277000D01*
Y244000D01*
X280551D01*
Y244033D01*
X280275Y245064D01*
X279742Y245988D01*
X278988Y246742D01*
X278064Y247275D01*
X277033Y247551D01*
D02*
G37*
G36*
X276000D02*
X275967D01*
X274936Y247275D01*
X274012Y246742D01*
X273258Y245988D01*
X272725Y245064D01*
X272449Y244033D01*
Y244000D01*
X276000D01*
Y247551D01*
D02*
G37*
G36*
X307033D02*
X305967D01*
X304936Y247275D01*
X304012Y246742D01*
X303258Y245988D01*
X302725Y245064D01*
X302449Y244033D01*
Y242967D01*
X302725Y241936D01*
X303258Y241013D01*
X304012Y240258D01*
X304936Y239725D01*
X305967Y239449D01*
X307033D01*
X308064Y239725D01*
X308987Y240258D01*
X309742Y241013D01*
X310275Y241936D01*
X310551Y242967D01*
Y244033D01*
X310275Y245064D01*
X309742Y245988D01*
X308987Y246742D01*
X308064Y247275D01*
X307033Y247551D01*
D02*
G37*
G36*
X297033D02*
X295967D01*
X294936Y247275D01*
X294012Y246742D01*
X293258Y245988D01*
X292725Y245064D01*
X292449Y244033D01*
Y242967D01*
X292725Y241936D01*
X293258Y241013D01*
X294012Y240258D01*
X294936Y239725D01*
X295967Y239449D01*
X297033D01*
X298064Y239725D01*
X298988Y240258D01*
X299742Y241013D01*
X300275Y241936D01*
X300551Y242967D01*
Y244033D01*
X300275Y245064D01*
X299742Y245988D01*
X298988Y246742D01*
X298064Y247275D01*
X297033Y247551D01*
D02*
G37*
G36*
X287033D02*
X285967D01*
X284936Y247275D01*
X284013Y246742D01*
X283258Y245988D01*
X282725Y245064D01*
X282449Y244033D01*
Y242967D01*
X282725Y241936D01*
X283258Y241013D01*
X284013Y240258D01*
X284936Y239725D01*
X285967Y239449D01*
X287033D01*
X288064Y239725D01*
X288987Y240258D01*
X289742Y241013D01*
X290275Y241936D01*
X290551Y242967D01*
Y244033D01*
X290275Y245064D01*
X289742Y245988D01*
X288987Y246742D01*
X288064Y247275D01*
X287033Y247551D01*
D02*
G37*
G36*
X280551Y243000D02*
X277000D01*
Y239449D01*
X277033D01*
X278064Y239725D01*
X278988Y240258D01*
X279742Y241013D01*
X280275Y241936D01*
X280551Y242967D01*
Y243000D01*
D02*
G37*
G36*
X276000D02*
X272449D01*
Y242967D01*
X272725Y241936D01*
X273258Y241013D01*
X274012Y240258D01*
X274936Y239725D01*
X275967Y239449D01*
X276000D01*
Y243000D01*
D02*
G37*
G36*
X533759Y255500D02*
X531241D01*
X528753Y255106D01*
X526358Y254328D01*
X524114Y253184D01*
X522077Y251704D01*
X520296Y249923D01*
X518816Y247886D01*
X517672Y245642D01*
X516894Y243247D01*
X516500Y240759D01*
Y238241D01*
X516894Y235753D01*
X517672Y233358D01*
X518816Y231114D01*
X520296Y229077D01*
X522077Y227296D01*
X524114Y225816D01*
X526358Y224672D01*
X528753Y223894D01*
X531241Y223500D01*
X533759D01*
X536247Y223894D01*
X538642Y224672D01*
X540886Y225816D01*
X542923Y227296D01*
X544704Y229077D01*
X546184Y231114D01*
X547328Y233358D01*
X548106Y235753D01*
X548500Y238241D01*
Y240759D01*
X548106Y243247D01*
X547328Y245642D01*
X546184Y247886D01*
X544704Y249923D01*
X542923Y251704D01*
X540886Y253184D01*
X538642Y254328D01*
X536247Y255106D01*
X533759Y255500D01*
D02*
G37*
G36*
X121259D02*
X118741D01*
X116253Y255106D01*
X113858Y254328D01*
X111614Y253184D01*
X109577Y251704D01*
X107796Y249923D01*
X106316Y247886D01*
X105172Y245642D01*
X104394Y243247D01*
X104000Y240759D01*
Y238241D01*
X104394Y235753D01*
X105172Y233358D01*
X106316Y231114D01*
X107796Y229077D01*
X109577Y227296D01*
X111614Y225816D01*
X113858Y224672D01*
X116253Y223894D01*
X118741Y223500D01*
X121259D01*
X123747Y223894D01*
X126142Y224672D01*
X128386Y225816D01*
X130423Y227296D01*
X132204Y229077D01*
X133684Y231114D01*
X134828Y233358D01*
X135606Y235753D01*
X136000Y238241D01*
Y240759D01*
X135606Y243247D01*
X134828Y245642D01*
X133684Y247886D01*
X132204Y249923D01*
X130423Y251704D01*
X128386Y253184D01*
X126142Y254328D01*
X123747Y255106D01*
X121259Y255500D01*
D02*
G37*
%LPD*%
D18*
X304000Y355500D02*
Y427500D01*
X303500Y428000D02*
X304000Y427500D01*
X296500Y356000D02*
X297000Y356500D01*
Y418000D01*
D38*
X515705Y368858D02*
D03*
X463705Y392858D02*
D03*
X354205D02*
D03*
X379795Y327142D02*
D03*
X408205Y392858D02*
D03*
X489295Y327142D02*
D03*
X433795D02*
D03*
D39*
X541295Y368858D02*
D03*
X515705Y351142D02*
D03*
X541295D02*
D03*
X489295Y392858D02*
D03*
X463705Y375142D02*
D03*
X489295D02*
D03*
X379795D02*
D03*
X354205D02*
D03*
X379795Y392858D02*
D03*
X354205Y327142D02*
D03*
X379795Y344858D02*
D03*
X354205D02*
D03*
X433795Y392858D02*
D03*
X408205Y375142D02*
D03*
X433795D02*
D03*
X463705Y344858D02*
D03*
X489295D02*
D03*
X463705Y327142D02*
D03*
X408205Y344858D02*
D03*
X433795D02*
D03*
X408205Y327142D02*
D03*
D48*
X157000Y323500D02*
D03*
Y353000D02*
D03*
Y293000D02*
D03*
X194000Y390000D02*
D03*
D49*
X177000Y323500D02*
D03*
Y353000D02*
D03*
Y293000D02*
D03*
D50*
X306500Y243500D02*
D03*
X296500D02*
D03*
X286500D02*
D03*
X276500D02*
D03*
X306500Y253500D02*
D03*
X296500D02*
D03*
X286500D02*
D03*
D51*
X276500D02*
D03*
D52*
X144402Y383996D02*
D03*
D53*
X132591Y402500D02*
D03*
D54*
X157000D02*
D03*
D55*
X194000Y410000D02*
D03*
D56*
X323500Y289000D02*
D03*
D57*
Y299000D02*
D03*
Y309000D02*
D03*
Y319000D02*
D03*
Y329000D02*
D03*
Y339000D02*
D03*
Y349000D02*
D03*
Y359000D02*
D03*
Y369000D02*
D03*
Y379000D02*
D03*
Y389000D02*
D03*
Y399000D02*
D03*
Y409000D02*
D03*
Y419000D02*
D03*
Y429000D02*
D03*
X263500D02*
D03*
Y419000D02*
D03*
Y409000D02*
D03*
Y399000D02*
D03*
Y389000D02*
D03*
Y379000D02*
D03*
Y369000D02*
D03*
Y359000D02*
D03*
Y349000D02*
D03*
Y339000D02*
D03*
Y329000D02*
D03*
Y319000D02*
D03*
Y309000D02*
D03*
Y299000D02*
D03*
Y289000D02*
D03*
D58*
X323500Y439000D02*
D03*
X263500D02*
D03*
X323500Y279000D02*
D03*
X263500D02*
D03*
D59*
X532500Y443500D02*
D03*
X120000D02*
D03*
X532500Y239500D02*
D03*
X120000D02*
D03*
D60*
X141500Y273500D02*
D03*
X304000Y355500D02*
D03*
X296500Y356000D02*
D03*
X297000Y418000D02*
D03*
X303500Y428000D02*
D03*
X477000Y319000D02*
D03*
X421500Y318500D02*
D03*
X366500D02*
D03*
X529000Y378000D02*
D03*
X476500Y401500D02*
D03*
X366000D02*
D03*
X421500D02*
D03*
X219500Y289500D02*
D03*
Y319500D02*
D03*
Y349000D02*
D03*
X141500Y303500D02*
D03*
Y333500D02*
D03*
X217500Y413000D02*
D03*
M02*
