G04*
G04 #@! TF.GenerationSoftware,Altium Limited,Altium Designer,21.1.1 (26)*
G04*
G04 Layer_Color=255*
%FSLAX25Y25*%
%MOIN*%
G70*
G04*
G04 #@! TF.SameCoordinates,E57EF3AD-EC9D-4E23-9065-B2E2A4799F1B*
G04*
G04*
G04 #@! TF.FilePolarity,Positive*
G04*
G01*
G75*
%ADD19R,0.06102X0.04921*%
%ADD20R,0.03150X0.02362*%
%ADD21R,0.06102X0.05315*%
%ADD22R,0.13504X0.05000*%
%ADD23R,0.04921X0.06102*%
%ADD24R,0.02362X0.03150*%
%ADD38R,0.06063X0.06063*%
%ADD39C,0.06063*%
%ADD48C,0.06299*%
%ADD49R,0.06299X0.06299*%
%ADD50C,0.06102*%
%ADD51R,0.06102X0.06102*%
G04:AMPARAMS|DCode=52|XSize=137.8mil|YSize=51.18mil|CornerRadius=12.8mil|HoleSize=0mil|Usage=FLASHONLY|Rotation=180.000|XOffset=0mil|YOffset=0mil|HoleType=Round|Shape=RoundedRectangle|*
%AMROUNDEDRECTD52*
21,1,0.13780,0.02559,0,0,180.0*
21,1,0.11221,0.05118,0,0,180.0*
1,1,0.02559,-0.05610,0.01280*
1,1,0.02559,0.05610,0.01280*
1,1,0.02559,0.05610,-0.01280*
1,1,0.02559,-0.05610,-0.01280*
%
%ADD52ROUNDEDRECTD52*%
G04:AMPARAMS|DCode=53|XSize=137.8mil|YSize=51.18mil|CornerRadius=12.8mil|HoleSize=0mil|Usage=FLASHONLY|Rotation=90.000|XOffset=0mil|YOffset=0mil|HoleType=Round|Shape=RoundedRectangle|*
%AMROUNDEDRECTD53*
21,1,0.13780,0.02559,0,0,90.0*
21,1,0.11221,0.05118,0,0,90.0*
1,1,0.02559,0.01280,0.05610*
1,1,0.02559,0.01280,-0.05610*
1,1,0.02559,-0.01280,-0.05610*
1,1,0.02559,-0.01280,0.05610*
%
%ADD53ROUNDEDRECTD53*%
G04:AMPARAMS|DCode=54|XSize=157.48mil|YSize=51.18mil|CornerRadius=12.8mil|HoleSize=0mil|Usage=FLASHONLY|Rotation=90.000|XOffset=0mil|YOffset=0mil|HoleType=Round|Shape=RoundedRectangle|*
%AMROUNDEDRECTD54*
21,1,0.15748,0.02559,0,0,90.0*
21,1,0.13189,0.05118,0,0,90.0*
1,1,0.02559,0.01280,0.06594*
1,1,0.02559,0.01280,-0.06594*
1,1,0.02559,-0.01280,-0.06594*
1,1,0.02559,-0.01280,0.06594*
%
%ADD54ROUNDEDRECTD54*%
%ADD55R,0.06299X0.06299*%
%ADD56R,0.05937X0.05937*%
%ADD57C,0.05937*%
%ADD58C,0.06500*%
D19*
X488876Y313035D02*
D03*
Y304965D02*
D03*
X433376D02*
D03*
Y313035D02*
D03*
X379500D02*
D03*
Y304965D02*
D03*
X353785Y416035D02*
D03*
Y407965D02*
D03*
X198000Y353538D02*
D03*
Y345467D02*
D03*
Y324038D02*
D03*
Y315967D02*
D03*
Y293538D02*
D03*
Y285467D02*
D03*
X516000Y392535D02*
D03*
Y384465D02*
D03*
X463285Y416035D02*
D03*
Y407965D02*
D03*
X408000Y416035D02*
D03*
Y407965D02*
D03*
D20*
X477000Y304646D02*
D03*
Y310354D02*
D03*
X421500Y304646D02*
D03*
Y310354D02*
D03*
X366500Y304646D02*
D03*
Y310354D02*
D03*
X529000Y392354D02*
D03*
Y386646D02*
D03*
X421500Y415854D02*
D03*
Y410146D02*
D03*
X476500Y415354D02*
D03*
Y409646D02*
D03*
X365911Y415854D02*
D03*
Y410146D02*
D03*
X211500Y317043D02*
D03*
Y322752D02*
D03*
Y346543D02*
D03*
Y352252D02*
D03*
Y286543D02*
D03*
Y292252D02*
D03*
D21*
X464124Y305161D02*
D03*
Y312839D02*
D03*
X408624Y305161D02*
D03*
Y312839D02*
D03*
X353000Y305161D02*
D03*
Y312839D02*
D03*
X380215Y415839D02*
D03*
Y408161D02*
D03*
X541500Y384661D02*
D03*
Y392339D02*
D03*
X488876Y408161D02*
D03*
Y415839D02*
D03*
X434000Y408161D02*
D03*
Y415839D02*
D03*
D22*
X118004Y273500D02*
D03*
X129500Y283500D02*
D03*
X118004Y293500D02*
D03*
X129500Y303500D02*
D03*
X118004Y313500D02*
D03*
X129500Y323500D02*
D03*
X118004Y333500D02*
D03*
X129500Y343500D02*
D03*
X118004Y353500D02*
D03*
D23*
X213965Y389000D02*
D03*
X222035D02*
D03*
D24*
X223315Y402500D02*
D03*
X217606D02*
D03*
D38*
X515705Y368858D02*
D03*
X463705Y392858D02*
D03*
X354205D02*
D03*
X379795Y327142D02*
D03*
X408205Y392858D02*
D03*
X489295Y327142D02*
D03*
X433795D02*
D03*
D39*
X541295Y368858D02*
D03*
X515705Y351142D02*
D03*
X541295D02*
D03*
X489295Y392858D02*
D03*
X463705Y375142D02*
D03*
X489295D02*
D03*
X379795D02*
D03*
X354205D02*
D03*
X379795Y392858D02*
D03*
X354205Y327142D02*
D03*
X379795Y344858D02*
D03*
X354205D02*
D03*
X433795Y392858D02*
D03*
X408205Y375142D02*
D03*
X433795D02*
D03*
X463705Y344858D02*
D03*
X489295D02*
D03*
X463705Y327142D02*
D03*
X408205Y344858D02*
D03*
X433795D02*
D03*
X408205Y327142D02*
D03*
D48*
X157000Y323500D02*
D03*
Y353000D02*
D03*
Y293000D02*
D03*
X194000Y390000D02*
D03*
D49*
X177000Y323500D02*
D03*
Y353000D02*
D03*
Y293000D02*
D03*
D50*
X306500Y243500D02*
D03*
X296500D02*
D03*
X286500D02*
D03*
X276500D02*
D03*
X306500Y253500D02*
D03*
X296500D02*
D03*
X286500D02*
D03*
D51*
X276500D02*
D03*
D52*
X144402Y383996D02*
D03*
D53*
X132591Y402500D02*
D03*
D54*
X157000D02*
D03*
D55*
X194000Y410000D02*
D03*
D56*
X323500Y289000D02*
D03*
D57*
Y299000D02*
D03*
Y309000D02*
D03*
Y319000D02*
D03*
Y329000D02*
D03*
Y339000D02*
D03*
Y349000D02*
D03*
Y359000D02*
D03*
Y369000D02*
D03*
Y379000D02*
D03*
Y389000D02*
D03*
Y399000D02*
D03*
Y409000D02*
D03*
Y419000D02*
D03*
Y429000D02*
D03*
X263500D02*
D03*
Y419000D02*
D03*
Y409000D02*
D03*
Y399000D02*
D03*
Y389000D02*
D03*
Y379000D02*
D03*
Y369000D02*
D03*
Y359000D02*
D03*
Y349000D02*
D03*
Y339000D02*
D03*
Y329000D02*
D03*
Y319000D02*
D03*
Y309000D02*
D03*
Y299000D02*
D03*
Y289000D02*
D03*
D58*
X323500Y439000D02*
D03*
X263500D02*
D03*
X323500Y279000D02*
D03*
X263500D02*
D03*
M02*
