M48
;Layer_Color=9474304
;FILE_FORMAT=2:5
INCH,TZ
;TYPE=PLATED
T1F00S00C0.02800
T3F00S00C0.03898
T4F00S00C0.03937
T5F00S00C0.04094
T6F00S00C0.06890
T7F00S00C0.15700
;TYPE=NON_PLATED
T8F00S00C0.06500
%
T01
X189500Y272000
X236500
X243127Y253872
X243220Y297720
X141500Y303500
X132500Y273000
X141500Y333500
X189500Y316500
Y363500
X250500Y354124
X243500Y335500
X236500Y316500
X302000Y349500
X296500Y356000
X297000Y418000
X303500Y428000
X225000Y442500
X366000Y401500
X421500
Y318500
X366500
X477000Y319000
X476500Y401500
X529000Y378000
T03
X354205Y327142
Y344858
X379795
Y327142
X408205
Y344858
X433795
Y327142
X463705
Y344858
Y375142
Y392858
X433795
Y375142
X408205
Y392858
X379795
Y375142
X354205
Y392858
X489295
Y375142
Y344858
Y327142
X515705Y351142
Y368858
X541295
Y351142
T04
X323500Y289000
Y299000
Y309000
X263500
Y299000
Y289000
Y319000
Y329000
Y339000
Y349000
Y359000
Y369000
Y379000
Y389000
Y399000
Y409000
Y419000
Y429000
X323500
Y419000
Y409000
Y399000
Y389000
Y379000
Y369000
Y359000
Y349000
Y339000
Y329000
Y319000
T05
X276500Y243500
X286500
X296500
X306500
Y253500
X296500
X286500
X276500
T06
X178890Y259791
X197000
Y306500
X178890
Y352291
X197000
X207500Y400209
X225610
T07
X532500Y239500
X120000
Y443500
X532500
T08
X323500Y279000
X263500
Y439000
X323500
M30
