G04*
G04 #@! TF.GenerationSoftware,Altium Limited,Altium Designer,20.1.12 (249)*
G04*
G04 Layer_Color=32768*
%FSLAX25Y25*%
%MOIN*%
G70*
G04*
G04 #@! TF.SameCoordinates,CC19F9FB-0A88-4C5E-BD8E-C5333B66DB7B*
G04*
G04*
G04 #@! TF.FilePolarity,Positive*
G04*
G01*
G75*
%ADD60C,0.00394*%
%ADD61C,0.00197*%
D60*
X167500Y312032D02*
Y315968D01*
X165532Y314000D02*
X169468D01*
X132591Y400531D02*
Y404468D01*
X130622Y402500D02*
X134559D01*
X486907Y309000D02*
X490844D01*
X488876Y307031D02*
Y310968D01*
X477000Y306516D02*
Y308484D01*
X476016Y307500D02*
X477984D01*
X462156Y309000D02*
X466093D01*
X464124Y307031D02*
Y310968D01*
X433376Y307031D02*
Y310968D01*
X431407Y309000D02*
X435344D01*
X377532D02*
X381469D01*
X379500Y307031D02*
Y310968D01*
X421500Y306516D02*
Y308484D01*
X420516Y307500D02*
X422484D01*
X406656Y309000D02*
X410593D01*
X408624Y307031D02*
Y310968D01*
X366500Y306516D02*
Y308484D01*
X365516Y307500D02*
X367484D01*
X351031Y309000D02*
X354969D01*
X353000Y307031D02*
Y310968D01*
X529000Y388516D02*
Y390484D01*
X528016Y389500D02*
X529984D01*
X421500Y412016D02*
Y413984D01*
X420516Y413000D02*
X422484D01*
X476500Y411516D02*
Y413484D01*
X475516Y412500D02*
X477484D01*
X353785Y410032D02*
Y413969D01*
X351817Y412000D02*
X355753D01*
X365911Y412016D02*
Y413984D01*
X364927Y413000D02*
X366895D01*
X378246Y412000D02*
X382184D01*
X380215Y410032D02*
Y413969D01*
X198500Y338034D02*
Y341971D01*
X196531Y340002D02*
X200468D01*
X167500Y341531D02*
Y345468D01*
X165532Y343500D02*
X169468D01*
X165532Y283500D02*
X169468D01*
X167500Y281532D02*
Y285469D01*
X121783Y313500D02*
X125721D01*
X123752Y311531D02*
Y315469D01*
X218000Y387032D02*
Y390968D01*
X216032Y389000D02*
X219969D01*
X219476Y402500D02*
X221445D01*
X220461Y401516D02*
Y403484D01*
X211016Y310398D02*
X212984D01*
X212000Y309413D02*
Y311382D01*
X211016Y339898D02*
X212984D01*
X212000Y338913D02*
Y340882D01*
X194000Y398031D02*
Y401968D01*
X192032Y400000D02*
X195968D01*
X198500Y308534D02*
Y312471D01*
X196531Y310502D02*
X200468D01*
X211016Y279898D02*
X212984D01*
X212000Y278913D02*
Y280882D01*
X198500Y278034D02*
Y281971D01*
X196531Y280002D02*
X200468D01*
X516000Y386531D02*
Y390469D01*
X514032Y388500D02*
X517969D01*
X463285Y410032D02*
Y413969D01*
X461316Y412000D02*
X465253D01*
X408000Y410032D02*
Y413969D01*
X406032Y412000D02*
X409969D01*
X541500Y386531D02*
Y390469D01*
X539532Y388500D02*
X543469D01*
X488876Y410032D02*
Y413969D01*
X486907Y412000D02*
X490844D01*
X434000Y410032D02*
Y413969D01*
X432031Y412000D02*
X435968D01*
D61*
X147106Y303606D02*
Y324394D01*
X187894Y303606D02*
Y324394D01*
X147106Y303606D02*
X187894D01*
X147106Y324394D02*
X187894D01*
X269610Y237870D02*
Y259130D01*
Y237870D02*
X313390D01*
Y259130D01*
X269610D02*
X313390D01*
X159953Y381043D02*
Y420610D01*
X101882Y381043D02*
X159953D01*
X101882D02*
Y420610D01*
X159953D01*
X493994Y300535D02*
Y317465D01*
X483757Y300535D02*
Y317465D01*
X493994D01*
X483757Y300535D02*
X493994D01*
X475000Y303071D02*
Y311929D01*
X475032Y303071D02*
X478968D01*
Y311929D01*
X475032D02*
X478968D01*
X459006Y300535D02*
Y317465D01*
X469242Y300535D02*
Y317465D01*
X459006Y300535D02*
X469242D01*
X459006Y317465D02*
X469242D01*
X428258Y300535D02*
X438494D01*
X428258Y317465D02*
X438494D01*
X428258Y300535D02*
Y317465D01*
X438494Y300535D02*
Y317465D01*
X384618Y300535D02*
Y317465D01*
X374382Y300535D02*
Y317465D01*
X384618D01*
X374382Y300535D02*
X384618D01*
X419500Y303071D02*
Y311929D01*
X419531Y303071D02*
X423468D01*
Y311929D01*
X419531D02*
X423468D01*
X403506Y300535D02*
Y317465D01*
X413742Y300535D02*
Y317465D01*
X403506Y300535D02*
X413742D01*
X403506Y317465D02*
X413742D01*
X364500Y303071D02*
Y311929D01*
X364531Y303071D02*
X368468D01*
Y311929D01*
X364531D02*
X368468D01*
X347882Y300535D02*
Y317465D01*
X358118Y300535D02*
Y317465D01*
X347882Y300535D02*
X358118D01*
X347882Y317465D02*
X358118D01*
X531000Y385071D02*
Y393929D01*
X527032D02*
X530969D01*
X527032Y385071D02*
Y393929D01*
Y385071D02*
X530969D01*
X423500Y408571D02*
Y417429D01*
X419531D02*
X423468D01*
X419531Y408571D02*
Y417429D01*
Y408571D02*
X423468D01*
X478500Y408071D02*
Y416929D01*
X474532D02*
X478469D01*
X474532Y408071D02*
Y416929D01*
Y408071D02*
X478469D01*
X348667Y420465D02*
X358903D01*
X348667Y403535D02*
X358903D01*
Y420465D01*
X348667Y403535D02*
Y420465D01*
X367911Y408571D02*
Y417429D01*
X363943D02*
X367880D01*
X363943Y408571D02*
Y417429D01*
Y408571D02*
X367880D01*
X385333Y403535D02*
Y420465D01*
X375097Y403535D02*
Y420465D01*
X385333D01*
X375097Y403535D02*
X385333D01*
X193382Y348467D02*
X203618D01*
X193382Y331538D02*
X203618D01*
Y348467D01*
X193382Y331538D02*
Y348467D01*
X147106Y333106D02*
Y353894D01*
X187894Y333106D02*
Y353894D01*
X147106Y333106D02*
X187894D01*
X147106Y353894D02*
X187894D01*
X147106Y293894D02*
X187894D01*
X147106Y273106D02*
X187894D01*
Y293894D01*
X147106Y273106D02*
Y293894D01*
X136744Y267614D02*
Y359386D01*
X110760Y267614D02*
Y359386D01*
X136744D01*
X110760Y267614D02*
X136744D01*
X209535Y394118D02*
X226465D01*
X209535Y383882D02*
X226465D01*
X209535D02*
Y394118D01*
X226465Y383882D02*
Y394118D01*
X216032Y400500D02*
X224890D01*
Y400531D02*
Y404468D01*
X216032D02*
X224890D01*
X216032Y400531D02*
Y404468D01*
X210032Y305968D02*
X213968D01*
X210032D02*
Y314827D01*
X213968D01*
X214000Y305968D02*
Y314827D01*
X210032Y335469D02*
X213968D01*
X210032D02*
Y344327D01*
X213968D01*
X214000Y335469D02*
Y344327D01*
X183606Y379606D02*
Y420394D01*
X204394Y379606D02*
Y420394D01*
X183606D02*
X204394D01*
X183606Y379606D02*
X204394D01*
X257516Y273016D02*
X329484D01*
X257516D02*
Y444984D01*
X329484D01*
Y273016D02*
Y444984D01*
X193382Y318967D02*
X203618D01*
X193382Y302038D02*
X203618D01*
Y318967D01*
X193382Y302038D02*
Y318967D01*
X210032Y275468D02*
X213968D01*
X210032D02*
Y284327D01*
X213968D01*
X214000Y275468D02*
Y284327D01*
X193382Y288467D02*
X203618D01*
X193382Y271538D02*
X203618D01*
Y288467D01*
X193382Y271538D02*
Y288467D01*
X510882Y396965D02*
X521118D01*
X510882Y380035D02*
X521118D01*
Y396965D01*
X510882Y380035D02*
Y396965D01*
X458167Y420465D02*
X468403D01*
X458167Y403535D02*
X468403D01*
Y420465D01*
X458167Y403535D02*
Y420465D01*
X402882D02*
X413118D01*
X402882Y403535D02*
X413118D01*
Y420465D01*
X402882Y403535D02*
Y420465D01*
X536382Y380035D02*
X546618D01*
X536382Y396965D02*
X546618D01*
X536382Y380035D02*
Y396965D01*
X546618Y380035D02*
Y396965D01*
X483757Y403535D02*
X493994D01*
X483757Y420465D02*
X493994D01*
X483757Y403535D02*
Y420465D01*
X493994Y403535D02*
Y420465D01*
X428882Y403535D02*
X439118D01*
X428882Y420465D02*
X439118D01*
X428882Y403535D02*
Y420465D01*
X439118Y403535D02*
Y420465D01*
M02*
