G04*
G04 #@! TF.GenerationSoftware,Altium Limited,Altium Designer,21.1.1 (26)*
G04*
G04 Layer_Color=16711935*
%FSLAX25Y25*%
%MOIN*%
G70*
G04*
G04 #@! TF.SameCoordinates,E26435C1-A805-435E-AC10-17EB525BB224*
G04*
G04*
G04 #@! TF.FilePolarity,Negative*
G04*
G01*
G75*
%ADD31C,0.07300*%
%ADD32C,0.06737*%
%ADD33R,0.06737X0.06737*%
%ADD34C,0.11135*%
%ADD35R,0.11135X0.11135*%
%ADD36C,0.06902*%
%ADD37R,0.06902X0.06902*%
G04:AMPARAMS|DCode=38|XSize=145.8mil|YSize=59.18mil|CornerRadius=16.8mil|HoleSize=0mil|Usage=FLASHONLY|Rotation=180.000|XOffset=0mil|YOffset=0mil|HoleType=Round|Shape=RoundedRectangle|*
%AMROUNDEDRECTD38*
21,1,0.14580,0.02559,0,0,180.0*
21,1,0.11221,0.05918,0,0,180.0*
1,1,0.03359,-0.05610,0.01280*
1,1,0.03359,0.05610,0.01280*
1,1,0.03359,0.05610,-0.01280*
1,1,0.03359,-0.05610,-0.01280*
%
%ADD38ROUNDEDRECTD38*%
G04:AMPARAMS|DCode=39|XSize=145.8mil|YSize=59.18mil|CornerRadius=16.8mil|HoleSize=0mil|Usage=FLASHONLY|Rotation=90.000|XOffset=0mil|YOffset=0mil|HoleType=Round|Shape=RoundedRectangle|*
%AMROUNDEDRECTD39*
21,1,0.14580,0.02559,0,0,90.0*
21,1,0.11221,0.05918,0,0,90.0*
1,1,0.03359,0.01280,0.05610*
1,1,0.03359,0.01280,-0.05610*
1,1,0.03359,-0.01280,-0.05610*
1,1,0.03359,-0.01280,0.05610*
%
%ADD39ROUNDEDRECTD39*%
G04:AMPARAMS|DCode=40|XSize=165.48mil|YSize=59.18mil|CornerRadius=16.8mil|HoleSize=0mil|Usage=FLASHONLY|Rotation=90.000|XOffset=0mil|YOffset=0mil|HoleType=Round|Shape=RoundedRectangle|*
%AMROUNDEDRECTD40*
21,1,0.16548,0.02559,0,0,90.0*
21,1,0.13189,0.05918,0,0,90.0*
1,1,0.03359,0.01280,0.06594*
1,1,0.03359,0.01280,-0.06594*
1,1,0.03359,-0.01280,-0.06594*
1,1,0.03359,-0.01280,0.06594*
%
%ADD40ROUNDEDRECTD40*%
%ADD41R,0.06063X0.06063*%
%ADD42C,0.06063*%
%ADD43C,0.05800*%
%ADD44C,0.30800*%
D31*
X263500Y279000D02*
D03*
X323500D02*
D03*
X263500Y439000D02*
D03*
X323500D02*
D03*
D32*
X263500Y289000D02*
D03*
Y299000D02*
D03*
Y309000D02*
D03*
Y319000D02*
D03*
Y329000D02*
D03*
Y339000D02*
D03*
Y349000D02*
D03*
Y359000D02*
D03*
Y369000D02*
D03*
Y379000D02*
D03*
Y389000D02*
D03*
Y399000D02*
D03*
Y409000D02*
D03*
Y419000D02*
D03*
Y429000D02*
D03*
X323500D02*
D03*
Y419000D02*
D03*
Y409000D02*
D03*
Y399000D02*
D03*
Y389000D02*
D03*
Y379000D02*
D03*
Y369000D02*
D03*
Y359000D02*
D03*
Y349000D02*
D03*
Y339000D02*
D03*
Y329000D02*
D03*
Y319000D02*
D03*
Y309000D02*
D03*
Y299000D02*
D03*
D33*
Y289000D02*
D03*
D34*
X197000Y259791D02*
D03*
Y352291D02*
D03*
Y306500D02*
D03*
X207500Y400209D02*
D03*
D35*
X178890Y259791D02*
D03*
Y352291D02*
D03*
Y306500D02*
D03*
X225610Y400209D02*
D03*
D36*
X306500Y243500D02*
D03*
X296500D02*
D03*
X286500D02*
D03*
X276500D02*
D03*
X306500Y253500D02*
D03*
X296500D02*
D03*
X286500D02*
D03*
D37*
X276500D02*
D03*
D38*
X144402Y383996D02*
D03*
D39*
X132591Y402500D02*
D03*
D40*
X157000D02*
D03*
D41*
X515705Y368858D02*
D03*
X463705Y392858D02*
D03*
X354205D02*
D03*
X379795Y327142D02*
D03*
X408205Y392858D02*
D03*
X489295Y327142D02*
D03*
X433795D02*
D03*
D42*
X541295Y368858D02*
D03*
X515705Y351142D02*
D03*
X541295D02*
D03*
X489295Y392858D02*
D03*
X463705Y375142D02*
D03*
X489295D02*
D03*
X379795D02*
D03*
X354205D02*
D03*
X379795Y392858D02*
D03*
X354205Y327142D02*
D03*
X379795Y344858D02*
D03*
X354205D02*
D03*
X433795Y392858D02*
D03*
X408205Y375142D02*
D03*
X433795D02*
D03*
X463705Y344858D02*
D03*
X489295D02*
D03*
X463705Y327142D02*
D03*
X408205Y344858D02*
D03*
X433795D02*
D03*
X408205Y327142D02*
D03*
D43*
X189500Y272000D02*
D03*
Y363500D02*
D03*
Y316500D02*
D03*
X250500Y354124D02*
D03*
X236500Y316500D02*
D03*
Y272000D02*
D03*
X302000Y349500D02*
D03*
X243127Y253872D02*
D03*
X243220Y297720D02*
D03*
X243500Y335500D02*
D03*
X132500Y273000D02*
D03*
X141500Y303500D02*
D03*
Y333500D02*
D03*
X296500Y356000D02*
D03*
X297000Y418000D02*
D03*
X303500Y428000D02*
D03*
X477000Y319000D02*
D03*
X421500Y318500D02*
D03*
X366500D02*
D03*
X529000Y378000D02*
D03*
X476500Y401500D02*
D03*
X366000D02*
D03*
X421500D02*
D03*
X225000Y442500D02*
D03*
D44*
X532500Y443500D02*
D03*
X120000D02*
D03*
X532500Y239500D02*
D03*
X120000D02*
D03*
M02*
