G04*
G04 #@! TF.GenerationSoftware,Altium Limited,Altium Designer,20.1.12 (249)*
G04*
G04 Layer_Color=16711935*
%FSLAX25Y25*%
%MOIN*%
G70*
G04*
G04 #@! TF.SameCoordinates,FC4995DB-79A5-4183-918C-7F1BB9846EA6*
G04*
G04*
G04 #@! TF.FilePolarity,Positive*
G04*
G01*
G75*
%ADD11C,0.00787*%
%ADD15C,0.00500*%
%ADD60C,0.00394*%
D11*
X332279Y288134D02*
X331492D01*
X332279D01*
D15*
X258500Y274000D02*
X328500D01*
Y444000D01*
X258500Y274000D02*
Y444000D01*
X328500D01*
D60*
X103259Y420217D02*
X102563Y419928D01*
X102275Y419232D01*
Y385768D02*
X102563Y385072D01*
X103259Y384784D01*
X147000Y313500D02*
X187000D01*
X147001Y333501D02*
X187001D01*
X187000Y313500D02*
X187001Y333501D01*
X147001Y313500D02*
X147001Y333501D01*
X270496Y238756D02*
Y258244D01*
Y238756D02*
X312504D01*
Y258244D01*
X270496D02*
X312504D01*
X103260Y420217D02*
X159362D01*
X102276Y385768D02*
Y419232D01*
X159362Y384784D02*
Y420217D01*
X103260Y384784D02*
X159362D01*
X491730Y304669D02*
Y313331D01*
X486021Y304669D02*
Y313331D01*
X491730D01*
X486021Y304669D02*
X491730D01*
X475425Y304350D02*
Y310650D01*
Y304350D02*
X478575D01*
X475425Y310650D02*
X478575D01*
Y304350D02*
Y310650D01*
X461270Y304669D02*
Y313331D01*
X466979Y304669D02*
Y313331D01*
X461270Y304669D02*
X466979D01*
X461270Y313331D02*
X466979D01*
X430521Y304669D02*
X436230D01*
X430521Y313331D02*
X436230D01*
X430521Y304669D02*
Y313331D01*
X436230Y304669D02*
Y313331D01*
X382354Y304669D02*
Y313331D01*
X376646Y304669D02*
Y313331D01*
X382354D01*
X376646Y304669D02*
X382354D01*
X419925Y304350D02*
Y310650D01*
Y304350D02*
X423075D01*
X419925Y310650D02*
X423075D01*
Y304350D02*
Y310650D01*
X405770Y304669D02*
Y313331D01*
X411479Y304669D02*
Y313331D01*
X405770Y304669D02*
X411479D01*
X405770Y313331D02*
X411479D01*
X364925Y304350D02*
Y310650D01*
Y304350D02*
X368075D01*
X364925Y310650D02*
X368075D01*
Y304350D02*
Y310650D01*
X350146Y304669D02*
Y313331D01*
X355854Y304669D02*
Y313331D01*
X350146Y304669D02*
X355854D01*
X350146Y313331D02*
X355854D01*
X530575Y386350D02*
Y392650D01*
X527425D02*
X530575D01*
X527425Y386350D02*
X530575D01*
X527425D02*
Y392650D01*
X423075Y409850D02*
Y416150D01*
X419925D02*
X423075D01*
X419925Y409850D02*
X423075D01*
X419925D02*
Y416150D01*
X478075Y409350D02*
Y415650D01*
X474925D02*
X478075D01*
X474925Y409350D02*
X478075D01*
X474925D02*
Y415650D01*
X350931Y416331D02*
X356639D01*
X350931Y407669D02*
X356639D01*
Y416331D01*
X350931Y407669D02*
Y416331D01*
X367486Y409850D02*
Y416150D01*
X364336D02*
X367486D01*
X364336Y409850D02*
X367486D01*
X364336D02*
Y416150D01*
X383069Y407669D02*
Y416331D01*
X377361Y407669D02*
Y416331D01*
X383069D01*
X377361Y407669D02*
X383069D01*
X195146Y353833D02*
X200854D01*
X195146Y345172D02*
X200854D01*
Y353833D01*
X195146Y345172D02*
Y353833D01*
X147000Y343000D02*
X187000D01*
X147001Y363001D02*
X187001D01*
X187000Y343000D02*
X187001Y363001D01*
X147001Y343000D02*
X147001Y363001D01*
X147001Y283000D02*
X147001Y303001D01*
X187000Y283000D02*
X187001Y303001D01*
X147001D02*
X187001D01*
X147000Y283000D02*
X187000D01*
X118752Y358500D02*
X128752D01*
Y268500D02*
Y358500D01*
X118752Y268500D02*
Y358500D01*
Y268500D02*
X128752D01*
X213669Y391854D02*
X222331D01*
X213669Y386146D02*
X222331D01*
X213669D02*
Y391854D01*
X222331Y386146D02*
Y391854D01*
X217311Y400925D02*
X223610D01*
Y404075D01*
X217311Y400925D02*
Y404075D01*
X223610D01*
X209925Y316748D02*
Y323047D01*
Y316748D02*
X213075D01*
X209925Y323047D02*
X213075D01*
Y316748D02*
Y323047D01*
X209925Y346248D02*
Y352547D01*
Y346248D02*
X213075D01*
X209925Y352547D02*
X213075D01*
Y346248D02*
Y352547D01*
X183999Y380001D02*
X204000Y380001D01*
X183999Y420001D02*
X204000Y420000D01*
X183999Y380001D02*
Y420001D01*
X204000Y380000D02*
Y420000D01*
X195146Y324333D02*
X200854D01*
X195146Y315672D02*
X200854D01*
Y324333D01*
X195146Y315672D02*
Y324333D01*
X209925Y286248D02*
Y292547D01*
Y286248D02*
X213075D01*
X209925Y292547D02*
X213075D01*
Y286248D02*
Y292547D01*
X195146Y293833D02*
X200854D01*
X195146Y285172D02*
X200854D01*
Y293833D01*
X195146Y285172D02*
Y293833D01*
X513146Y392831D02*
X518854D01*
X513146Y384169D02*
X518854D01*
Y392831D01*
X513146Y384169D02*
Y392831D01*
X460431Y416331D02*
X466139D01*
X460431Y407669D02*
X466139D01*
Y416331D01*
X460431Y407669D02*
Y416331D01*
X405146D02*
X410854D01*
X405146Y407669D02*
X410854D01*
Y416331D01*
X405146Y407669D02*
Y416331D01*
X538646Y384169D02*
X544354D01*
X538646Y392831D02*
X544354D01*
X538646Y384169D02*
Y392831D01*
X544354Y384169D02*
Y392831D01*
X486021Y407669D02*
X491730D01*
X486021Y416331D02*
X491730D01*
X486021Y407669D02*
Y416331D01*
X491730Y407669D02*
Y416331D01*
X431146Y407669D02*
X436854D01*
X431146Y416331D02*
X436854D01*
X431146Y407669D02*
Y416331D01*
X436854Y407669D02*
Y416331D01*
M02*
