G04*
G04 #@! TF.GenerationSoftware,Altium Limited,Altium Designer,21.1.1 (26)*
G04*
G04 Layer_Color=32768*
%FSLAX25Y25*%
%MOIN*%
G70*
G04*
G04 #@! TF.SameCoordinates,E26435C1-A805-435E-AC10-17EB525BB224*
G04*
G04*
G04 #@! TF.FilePolarity,Positive*
G04*
G01*
G75*
%ADD59C,0.00394*%
%ADD60C,0.00197*%
D59*
X245016Y246000D02*
X246984D01*
X246000Y245016D02*
Y246984D01*
X245002Y262032D02*
Y265968D01*
X243034Y264000D02*
X246971D01*
X245002Y305532D02*
Y309469D01*
X243034Y307500D02*
X246971D01*
X245016Y290000D02*
X246984D01*
X246000Y289016D02*
Y290984D01*
X245516Y329000D02*
X247484D01*
X246500Y328016D02*
Y329984D01*
X123752Y311531D02*
Y315469D01*
X121783Y313500D02*
X125721D01*
X245502Y342531D02*
Y346468D01*
X243534Y344500D02*
X247471D01*
X132591Y400531D02*
Y404468D01*
X130622Y402500D02*
X134559D01*
X486907Y309000D02*
X490844D01*
X488876Y307031D02*
Y310968D01*
X477000Y306516D02*
Y308484D01*
X476016Y307500D02*
X477984D01*
X462156Y309000D02*
X466093D01*
X464124Y307031D02*
Y310968D01*
X433376Y307031D02*
Y310968D01*
X431407Y309000D02*
X435344D01*
X377532D02*
X381469D01*
X379500Y307031D02*
Y310968D01*
X421500Y306516D02*
Y308484D01*
X420516Y307500D02*
X422484D01*
X406656Y309000D02*
X410593D01*
X408624Y307031D02*
Y310968D01*
X366500Y306516D02*
Y308484D01*
X365516Y307500D02*
X367484D01*
X351031Y309000D02*
X354969D01*
X353000Y307031D02*
Y310968D01*
X529000Y388516D02*
Y390484D01*
X528016Y389500D02*
X529984D01*
X421500Y412016D02*
Y413984D01*
X420516Y413000D02*
X422484D01*
X476500Y411516D02*
Y413484D01*
X475516Y412500D02*
X477484D01*
X353785Y410032D02*
Y413969D01*
X351817Y412000D02*
X355753D01*
X365911Y412016D02*
Y413984D01*
X364927Y413000D02*
X366895D01*
X378246Y412000D02*
X382184D01*
X380215Y410032D02*
Y413969D01*
X199031Y442000D02*
X202969D01*
X201000Y440031D02*
Y443968D01*
X214500Y438555D02*
Y440524D01*
X213516Y439539D02*
X215484D01*
X516000Y386531D02*
Y390469D01*
X514032Y388500D02*
X517969D01*
X463285Y410032D02*
Y413969D01*
X461316Y412000D02*
X465253D01*
X408000Y410032D02*
Y413969D01*
X406032Y412000D02*
X409969D01*
X541500Y386531D02*
Y390469D01*
X539532Y388500D02*
X543469D01*
X488876Y410032D02*
Y413969D01*
X486907Y412000D02*
X490844D01*
X434000Y410032D02*
Y413969D01*
X432031Y412000D02*
X435968D01*
D60*
X329484Y273016D02*
Y444984D01*
X257516D02*
X329484D01*
X257516Y273016D02*
Y444984D01*
Y273016D02*
X329484D01*
X241571Y244000D02*
X250429D01*
Y244032D02*
Y247969D01*
X241571D02*
X250429D01*
X241571Y244032D02*
Y247969D01*
X236538Y269118D02*
X253467D01*
X236538Y258882D02*
X253467D01*
X236538D02*
Y269118D01*
X253467Y258882D02*
Y269118D01*
X236538Y312618D02*
X253467D01*
X236538Y302382D02*
X253467D01*
X236538D02*
Y312618D01*
X253467Y302382D02*
Y312618D01*
X241571Y288000D02*
X250429D01*
Y288032D02*
Y291968D01*
X241571D02*
X250429D01*
X241571Y288032D02*
Y291968D01*
X242071Y327000D02*
X250929D01*
Y327031D02*
Y330968D01*
X242071D02*
X250929D01*
X242071Y327031D02*
Y330968D01*
X163614Y276484D02*
X230386D01*
Y234516D02*
Y276484D01*
X163614Y234516D02*
X230386D01*
X163614D02*
Y276484D01*
X110760Y267614D02*
X136744D01*
X110760Y359386D02*
X136744D01*
X110760Y267614D02*
Y359386D01*
X136744Y267614D02*
Y359386D01*
X163614Y368984D02*
X230386D01*
Y327016D02*
Y368984D01*
X163614Y327016D02*
X230386D01*
X163614D02*
Y368984D01*
Y323193D02*
X230386D01*
Y281224D02*
Y323193D01*
X163614Y281224D02*
X230386D01*
X163614D02*
Y323193D01*
X237038Y349618D02*
X253967D01*
X237038Y339382D02*
X253967D01*
X237038D02*
Y349618D01*
X253967Y339382D02*
Y349618D01*
X174114Y383516D02*
X240886D01*
X174114D02*
Y425484D01*
X240886D01*
Y383516D02*
Y425484D01*
X269610Y237870D02*
Y259130D01*
Y237870D02*
X313390D01*
Y259130D01*
X269610D02*
X313390D01*
X159953Y381043D02*
Y420610D01*
X101882Y381043D02*
X159953D01*
X101882D02*
Y420610D01*
X159953D01*
X493994Y300535D02*
Y317465D01*
X483757Y300535D02*
Y317465D01*
X493994D01*
X483757Y300535D02*
X493994D01*
X475000Y303071D02*
Y311929D01*
X475032Y303071D02*
X478968D01*
Y311929D01*
X475032D02*
X478968D01*
X459006Y300535D02*
Y317465D01*
X469242Y300535D02*
Y317465D01*
X459006Y300535D02*
X469242D01*
X459006Y317465D02*
X469242D01*
X428258Y300535D02*
X438494D01*
X428258Y317465D02*
X438494D01*
X428258Y300535D02*
Y317465D01*
X438494Y300535D02*
Y317465D01*
X384618Y300535D02*
Y317465D01*
X374382Y300535D02*
Y317465D01*
X384618D01*
X374382Y300535D02*
X384618D01*
X419500Y303071D02*
Y311929D01*
X419531Y303071D02*
X423468D01*
Y311929D01*
X419531D02*
X423468D01*
X403506Y300535D02*
Y317465D01*
X413742Y300535D02*
Y317465D01*
X403506Y300535D02*
X413742D01*
X403506Y317465D02*
X413742D01*
X364500Y303071D02*
Y311929D01*
X364531Y303071D02*
X368468D01*
Y311929D01*
X364531D02*
X368468D01*
X347882Y300535D02*
Y317465D01*
X358118Y300535D02*
Y317465D01*
X347882Y300535D02*
X358118D01*
X347882Y317465D02*
X358118D01*
X531000Y385071D02*
Y393929D01*
X527032D02*
X530969D01*
X527032Y385071D02*
Y393929D01*
Y385071D02*
X530969D01*
X423500Y408571D02*
Y417429D01*
X419531D02*
X423468D01*
X419531Y408571D02*
Y417429D01*
Y408571D02*
X423468D01*
X478500Y408071D02*
Y416929D01*
X474532D02*
X478469D01*
X474532Y408071D02*
Y416929D01*
Y408071D02*
X478469D01*
X348667Y420465D02*
X358903D01*
X348667Y403535D02*
X358903D01*
Y420465D01*
X348667Y403535D02*
Y420465D01*
X367911Y408571D02*
Y417429D01*
X363943D02*
X367880D01*
X363943Y408571D02*
Y417429D01*
Y408571D02*
X367880D01*
X385333Y403535D02*
Y420465D01*
X375097Y403535D02*
Y420465D01*
X385333D01*
X375097Y403535D02*
X385333D01*
X206118Y433535D02*
Y450465D01*
X195882Y433535D02*
Y450465D01*
X206118D01*
X195882Y433535D02*
X206118D01*
X212500Y435110D02*
Y443968D01*
X212531Y435110D02*
X216469D01*
Y443968D01*
X212531D02*
X216469D01*
X510882Y396965D02*
X521118D01*
X510882Y380035D02*
X521118D01*
Y396965D01*
X510882Y380035D02*
Y396965D01*
X458167Y420465D02*
X468403D01*
X458167Y403535D02*
X468403D01*
Y420465D01*
X458167Y403535D02*
Y420465D01*
X402882D02*
X413118D01*
X402882Y403535D02*
X413118D01*
Y420465D01*
X402882Y403535D02*
Y420465D01*
X536382Y380035D02*
X546618D01*
X536382Y396965D02*
X546618D01*
X536382Y380035D02*
Y396965D01*
X546618Y380035D02*
Y396965D01*
X483757Y403535D02*
X493994D01*
X483757Y420465D02*
X493994D01*
X483757Y403535D02*
Y420465D01*
X493994Y403535D02*
Y420465D01*
X428882Y403535D02*
X439118D01*
X428882Y420465D02*
X439118D01*
X428882Y403535D02*
Y420465D01*
X439118Y403535D02*
Y420465D01*
M02*
