G04*
G04 #@! TF.GenerationSoftware,Altium Limited,Altium Designer,20.1.12 (249)*
G04*
G04 Layer_Color=255*
%FSLAX25Y25*%
%MOIN*%
G70*
G04*
G04 #@! TF.SameCoordinates,CC19F9FB-0A88-4C5E-BD8E-C5333B66DB7B*
G04*
G04*
G04 #@! TF.FilePolarity,Positive*
G04*
G01*
G75*
%ADD37R,0.06063X0.06063*%
%ADD38C,0.06063*%
%ADD47C,0.06299*%
%ADD48R,0.06299X0.06299*%
%ADD49C,0.06102*%
%ADD50R,0.06102X0.06102*%
G04:AMPARAMS|DCode=51|XSize=137.8mil|YSize=51.18mil|CornerRadius=12.8mil|HoleSize=0mil|Usage=FLASHONLY|Rotation=180.000|XOffset=0mil|YOffset=0mil|HoleType=Round|Shape=RoundedRectangle|*
%AMROUNDEDRECTD51*
21,1,0.13780,0.02559,0,0,180.0*
21,1,0.11221,0.05118,0,0,180.0*
1,1,0.02559,-0.05610,0.01280*
1,1,0.02559,0.05610,0.01280*
1,1,0.02559,0.05610,-0.01280*
1,1,0.02559,-0.05610,-0.01280*
%
%ADD51ROUNDEDRECTD51*%
G04:AMPARAMS|DCode=52|XSize=137.8mil|YSize=51.18mil|CornerRadius=12.8mil|HoleSize=0mil|Usage=FLASHONLY|Rotation=90.000|XOffset=0mil|YOffset=0mil|HoleType=Round|Shape=RoundedRectangle|*
%AMROUNDEDRECTD52*
21,1,0.13780,0.02559,0,0,90.0*
21,1,0.11221,0.05118,0,0,90.0*
1,1,0.02559,0.01280,0.05610*
1,1,0.02559,0.01280,-0.05610*
1,1,0.02559,-0.01280,-0.05610*
1,1,0.02559,-0.01280,0.05610*
%
%ADD52ROUNDEDRECTD52*%
G04:AMPARAMS|DCode=53|XSize=157.48mil|YSize=51.18mil|CornerRadius=12.8mil|HoleSize=0mil|Usage=FLASHONLY|Rotation=90.000|XOffset=0mil|YOffset=0mil|HoleType=Round|Shape=RoundedRectangle|*
%AMROUNDEDRECTD53*
21,1,0.15748,0.02559,0,0,90.0*
21,1,0.13189,0.05118,0,0,90.0*
1,1,0.02559,0.01280,0.06594*
1,1,0.02559,0.01280,-0.06594*
1,1,0.02559,-0.01280,-0.06594*
1,1,0.02559,-0.01280,0.06594*
%
%ADD53ROUNDEDRECTD53*%
%ADD54R,0.06299X0.06299*%
%ADD55R,0.05937X0.05937*%
%ADD56C,0.05937*%
%ADD57C,0.06500*%
D37*
X515705Y368858D02*
D03*
X463705Y392858D02*
D03*
X354205D02*
D03*
X379795Y327142D02*
D03*
X408205Y392858D02*
D03*
X489295Y327142D02*
D03*
X433795D02*
D03*
D38*
X541295Y368858D02*
D03*
X515705Y351142D02*
D03*
X541295D02*
D03*
X489295Y392858D02*
D03*
X463705Y375142D02*
D03*
X489295D02*
D03*
X379795D02*
D03*
X354205D02*
D03*
X379795Y392858D02*
D03*
X354205Y327142D02*
D03*
X379795Y344858D02*
D03*
X354205D02*
D03*
X433795Y392858D02*
D03*
X408205Y375142D02*
D03*
X433795D02*
D03*
X463705Y344858D02*
D03*
X489295D02*
D03*
X463705Y327142D02*
D03*
X408205Y344858D02*
D03*
X433795D02*
D03*
X408205Y327142D02*
D03*
D47*
X157500Y314000D02*
D03*
Y343500D02*
D03*
Y283500D02*
D03*
X194000Y390000D02*
D03*
D48*
X177500Y314000D02*
D03*
Y343500D02*
D03*
Y283500D02*
D03*
D49*
X306500Y243500D02*
D03*
X296500D02*
D03*
X286500D02*
D03*
X276500D02*
D03*
X306500Y253500D02*
D03*
X296500D02*
D03*
X286500D02*
D03*
D50*
X276500D02*
D03*
D51*
X144402Y383996D02*
D03*
D52*
X132591Y402500D02*
D03*
D53*
X157000D02*
D03*
D54*
X194000Y410000D02*
D03*
D55*
X323500Y289000D02*
D03*
D56*
Y299000D02*
D03*
Y309000D02*
D03*
Y319000D02*
D03*
Y329000D02*
D03*
Y339000D02*
D03*
Y349000D02*
D03*
Y359000D02*
D03*
Y369000D02*
D03*
Y379000D02*
D03*
Y389000D02*
D03*
Y399000D02*
D03*
Y409000D02*
D03*
Y419000D02*
D03*
Y429000D02*
D03*
X263500D02*
D03*
Y419000D02*
D03*
Y409000D02*
D03*
Y399000D02*
D03*
Y389000D02*
D03*
Y379000D02*
D03*
Y369000D02*
D03*
Y359000D02*
D03*
Y349000D02*
D03*
Y339000D02*
D03*
Y329000D02*
D03*
Y319000D02*
D03*
Y309000D02*
D03*
Y299000D02*
D03*
Y289000D02*
D03*
D57*
X323500Y439000D02*
D03*
X263500D02*
D03*
X323500Y279000D02*
D03*
X263500D02*
D03*
M02*
