G04*
G04 #@! TF.GenerationSoftware,Altium Limited,Altium Designer,21.1.1 (26)*
G04*
G04 Layer_Color=8388736*
%FSLAX25Y25*%
%MOIN*%
G70*
G04*
G04 #@! TF.SameCoordinates,E57EF3AD-EC9D-4E23-9065-B2E2A4799F1B*
G04*
G04*
G04 #@! TF.FilePolarity,Positive*
G04*
G01*
G75*
%ADD11C,0.00787*%
D11*
X516118Y372382D02*
X540882D01*
Y347618D02*
Y372382D01*
X516118Y347618D02*
X540882D01*
X516118D02*
Y372382D01*
X464118Y396382D02*
X488882D01*
Y371618D02*
Y396382D01*
X464118Y371618D02*
X488882D01*
X464118D02*
Y396382D01*
X354618Y371618D02*
Y396382D01*
Y371618D02*
X379382D01*
Y396382D01*
X354618D02*
X379382D01*
X354618Y323618D02*
X379382D01*
X354618D02*
Y348382D01*
X379382D01*
Y323618D02*
Y348382D01*
X408618Y396382D02*
X433382D01*
Y371618D02*
Y396382D01*
X408618Y371618D02*
X433382D01*
X408618D02*
Y396382D01*
X488882Y323618D02*
Y348382D01*
X464118D02*
X488882D01*
X464118Y323618D02*
Y348382D01*
Y323618D02*
X488882D01*
X433382D02*
Y348382D01*
X408618D02*
X433382D01*
X408618Y323618D02*
Y348382D01*
Y323618D02*
X433382D01*
M02*
