G04*
G04 #@! TF.GenerationSoftware,Altium Limited,Altium Designer,21.1.1 (26)*
G04*
G04 Layer_Color=16711935*
%FSLAX25Y25*%
%MOIN*%
G70*
G04*
G04 #@! TF.SameCoordinates,E26435C1-A805-435E-AC10-17EB525BB224*
G04*
G04*
G04 #@! TF.FilePolarity,Positive*
G04*
G01*
G75*
%ADD17C,0.01000*%
D17*
X551027Y443500D02*
X551001Y444486D01*
X550922Y445470D01*
X550791Y446448D01*
X550608Y447417D01*
X550374Y448376D01*
X550089Y449320D01*
X549754Y450248D01*
X549370Y451157D01*
X548939Y452045D01*
X548461Y452908D01*
X547937Y453744D01*
X547370Y454551D01*
X546761Y455327D01*
X546111Y456070D01*
X545422Y456776D01*
X544697Y457445D01*
X543938Y458075D01*
X543146Y458663D01*
X542323Y459208D01*
X541473Y459709D01*
X540597Y460164D01*
X539699Y460571D01*
X538780Y460930D01*
X537843Y461240D01*
X536891Y461499D01*
X535927Y461707D01*
X534952Y461864D01*
X533971Y461969D01*
X532986Y462021D01*
X531999Y462020D01*
X120617Y462017D02*
X119609Y462023D01*
X118602Y461974D01*
X117599Y461871D01*
X116604Y461713D01*
X115618Y461501D01*
X114645Y461236D01*
X113688Y460919D01*
X112750Y460550D01*
X111833Y460130D01*
X110941Y459661D01*
X110075Y459144D01*
X109239Y458581D01*
X108434Y457974D01*
X107664Y457323D01*
X106931Y456632D01*
X106236Y455901D01*
X105581Y455134D01*
X104970Y454333D01*
X104403Y453499D01*
X103882Y452636D01*
X103409Y451746D01*
X102985Y450831D01*
X102611Y449895D01*
X102289Y448939D01*
X102020Y447968D01*
X101803Y446983D01*
X101641Y445988D01*
X101533Y444986D01*
X101479Y443979D01*
X101481Y442971D01*
X533029Y220981D02*
X534013Y221035D01*
X534992Y221141D01*
X535964Y221300D01*
X536927Y221510D01*
X537877Y221770D01*
X538812Y222081D01*
X539729Y222442D01*
X540625Y222850D01*
X541499Y223305D01*
X542347Y223807D01*
X543167Y224352D01*
X543958Y224941D01*
X544715Y225570D01*
X545438Y226239D01*
X546125Y226946D01*
X546773Y227688D01*
X547381Y228463D01*
X547946Y229270D01*
X548468Y230105D01*
X548945Y230967D01*
X549375Y231854D01*
X549758Y232761D01*
X550092Y233688D01*
X550376Y234632D01*
X550609Y235589D01*
X550792Y236557D01*
X550922Y237533D01*
X551001Y238515D01*
X551027Y239500D01*
X101473D02*
X101499Y238514D01*
X101578Y237530D01*
X101709Y236552D01*
X101892Y235583D01*
X102126Y234624D01*
X102411Y233680D01*
X102746Y232752D01*
X103129Y231843D01*
X103561Y230955D01*
X104039Y230092D01*
X104563Y229256D01*
X105130Y228449D01*
X105739Y227673D01*
X106389Y226930D01*
X107078Y226224D01*
X107803Y225554D01*
X108562Y224925D01*
X109354Y224337D01*
X110177Y223792D01*
X111027Y223291D01*
X111903Y222836D01*
X112801Y222429D01*
X113720Y222070D01*
X114657Y221760D01*
X115609Y221501D01*
X116573Y221293D01*
X117548Y221136D01*
X118529Y221031D01*
X119514Y220979D01*
X120501Y220980D01*
X101473Y239500D02*
Y442963D01*
X120621Y462020D02*
X531999D01*
X551027Y443500D02*
X551027Y239500D01*
X120501Y220981D02*
X533029D01*
M02*
