G04*
G04 #@! TF.GenerationSoftware,Altium Limited,Altium Designer,21.1.1 (26)*
G04*
G04 Layer_Physical_Order=1*
G04 Layer_Color=255*
%FSLAX25Y25*%
%MOIN*%
G70*
G04*
G04 #@! TF.SameCoordinates,E26435C1-A805-435E-AC10-17EB525BB224*
G04*
G04*
G04 #@! TF.FilePolarity,Positive*
G04*
G01*
G75*
%ADD17C,0.01000*%
%ADD19R,0.02362X0.03150*%
%ADD20R,0.04921X0.06102*%
%ADD21R,0.13504X0.05000*%
%ADD22R,0.06102X0.04921*%
%ADD23R,0.03150X0.02362*%
%ADD24R,0.06102X0.05315*%
%ADD41R,0.06063X0.06063*%
%ADD42C,0.06063*%
%ADD45C,0.06000*%
%ADD46C,0.08000*%
%ADD47C,0.06500*%
%ADD48C,0.05937*%
%ADD49R,0.05937X0.05937*%
%ADD50C,0.10335*%
%ADD51R,0.10335X0.10335*%
%ADD52C,0.06102*%
%ADD53R,0.06102X0.06102*%
G04:AMPARAMS|DCode=54|XSize=137.8mil|YSize=51.18mil|CornerRadius=12.8mil|HoleSize=0mil|Usage=FLASHONLY|Rotation=180.000|XOffset=0mil|YOffset=0mil|HoleType=Round|Shape=RoundedRectangle|*
%AMROUNDEDRECTD54*
21,1,0.13780,0.02559,0,0,180.0*
21,1,0.11221,0.05118,0,0,180.0*
1,1,0.02559,-0.05610,0.01280*
1,1,0.02559,0.05610,0.01280*
1,1,0.02559,0.05610,-0.01280*
1,1,0.02559,-0.05610,-0.01280*
%
%ADD54ROUNDEDRECTD54*%
G04:AMPARAMS|DCode=55|XSize=137.8mil|YSize=51.18mil|CornerRadius=12.8mil|HoleSize=0mil|Usage=FLASHONLY|Rotation=90.000|XOffset=0mil|YOffset=0mil|HoleType=Round|Shape=RoundedRectangle|*
%AMROUNDEDRECTD55*
21,1,0.13780,0.02559,0,0,90.0*
21,1,0.11221,0.05118,0,0,90.0*
1,1,0.02559,0.01280,0.05610*
1,1,0.02559,0.01280,-0.05610*
1,1,0.02559,-0.01280,-0.05610*
1,1,0.02559,-0.01280,0.05610*
%
%ADD55ROUNDEDRECTD55*%
G04:AMPARAMS|DCode=56|XSize=157.48mil|YSize=51.18mil|CornerRadius=12.8mil|HoleSize=0mil|Usage=FLASHONLY|Rotation=90.000|XOffset=0mil|YOffset=0mil|HoleType=Round|Shape=RoundedRectangle|*
%AMROUNDEDRECTD56*
21,1,0.15748,0.02559,0,0,90.0*
21,1,0.13189,0.05118,0,0,90.0*
1,1,0.02559,0.01280,0.06594*
1,1,0.02559,0.01280,-0.06594*
1,1,0.02559,-0.01280,-0.06594*
1,1,0.02559,-0.01280,0.06594*
%
%ADD56ROUNDEDRECTD56*%
%ADD57C,0.05000*%
%ADD58C,0.30000*%
G36*
X536139Y461684D02*
X538478Y461057D01*
X540715Y460131D01*
X542812Y458920D01*
X544733Y457445D01*
X546446Y455733D01*
X547920Y453812D01*
X549130Y451715D01*
X550057Y449478D01*
X550684Y447139D01*
X551000Y444738D01*
X551000Y443527D01*
X551000Y443527D01*
X551000Y443527D01*
X551000Y239473D01*
X551000Y238262D01*
X550684Y235861D01*
X550057Y233522D01*
X549130Y231285D01*
X547920Y229188D01*
X546446Y227267D01*
X544733Y225554D01*
X542812Y224080D01*
X540715Y222869D01*
X538478Y221943D01*
X536139Y221316D01*
X533738Y221000D01*
X532527Y221000D01*
X119973D01*
X118762Y221000D01*
X116361Y221316D01*
X114022Y221943D01*
X111785Y222869D01*
X109688Y224080D01*
X107767Y225554D01*
X106054Y227267D01*
X104580Y229188D01*
X103369Y231285D01*
X102443Y233522D01*
X101816Y235861D01*
X101500Y238262D01*
X101500Y239473D01*
Y443500D01*
X101500Y444713D01*
X101816Y447117D01*
X102444Y449459D01*
X103372Y451700D01*
X104585Y453800D01*
X106061Y455724D01*
X107776Y457439D01*
X109700Y458915D01*
X111800Y460128D01*
X114041Y461056D01*
X116383Y461683D01*
X118787Y462000D01*
X120000Y462000D01*
X120000Y462000D01*
X532527Y462000D01*
X533738Y462000D01*
X536139Y461684D01*
D02*
G37*
%LPC*%
G36*
X205051Y449496D02*
X201500D01*
Y446535D01*
X205051D01*
Y449496D01*
D02*
G37*
G36*
X200500D02*
X196949D01*
Y446535D01*
X200500D01*
Y449496D01*
D02*
G37*
G36*
X225461Y446000D02*
X224539D01*
X223649Y445761D01*
X222851Y445301D01*
X222199Y444649D01*
X221811Y443976D01*
X217075D01*
Y444575D01*
X211925D01*
Y440213D01*
X217075D01*
Y440917D01*
X221872D01*
X222199Y440351D01*
X222851Y439699D01*
X223649Y439239D01*
X224539Y439000D01*
X225461D01*
X226351Y439239D01*
X227149Y439699D01*
X227801Y440351D01*
X228261Y441149D01*
X228500Y442039D01*
Y442961D01*
X228261Y443851D01*
X227801Y444649D01*
X227149Y445301D01*
X226351Y445761D01*
X225461Y446000D01*
D02*
G37*
G36*
X205051Y445535D02*
X201500D01*
Y442575D01*
X205051D01*
Y445535D01*
D02*
G37*
G36*
X200500D02*
X196949D01*
Y442575D01*
X200500D01*
Y445535D01*
D02*
G37*
G36*
X324060Y443250D02*
X322940D01*
X321860Y442960D01*
X320890Y442401D01*
X320099Y441610D01*
X319540Y440640D01*
X319250Y439560D01*
Y438441D01*
X319540Y437360D01*
X320099Y436390D01*
X320890Y435599D01*
X321860Y435040D01*
X322940Y434750D01*
X324060D01*
X325140Y435040D01*
X326110Y435599D01*
X326901Y436390D01*
X327460Y437360D01*
X327750Y438441D01*
Y439560D01*
X327460Y440640D01*
X326901Y441610D01*
X326110Y442401D01*
X325140Y442960D01*
X324060Y443250D01*
D02*
G37*
G36*
X264059D02*
X262941D01*
X261860Y442960D01*
X260890Y442401D01*
X260099Y441610D01*
X259540Y440640D01*
X259250Y439560D01*
Y438441D01*
X259540Y437360D01*
X260099Y436390D01*
X260890Y435599D01*
X261860Y435040D01*
X262941Y434750D01*
X264059D01*
X265140Y435040D01*
X266110Y435599D01*
X266901Y436390D01*
X267460Y437360D01*
X267750Y438441D01*
Y439560D01*
X267460Y440640D01*
X266901Y441610D01*
X266110Y442401D01*
X265140Y442960D01*
X264059Y443250D01*
D02*
G37*
G36*
X205051Y441425D02*
X196949D01*
Y434504D01*
X205051D01*
Y435156D01*
X211925D01*
Y434504D01*
X217075D01*
Y438866D01*
X211925D01*
Y438214D01*
X205051D01*
Y441425D01*
D02*
G37*
G36*
X324023Y432969D02*
X322977D01*
X321968Y432698D01*
X321063Y432176D01*
X320324Y431437D01*
X319802Y430532D01*
X319667Y430029D01*
X306370D01*
X306301Y430149D01*
X305649Y430801D01*
X304851Y431261D01*
X303961Y431500D01*
X303039D01*
X302149Y431261D01*
X301351Y430801D01*
X300699Y430149D01*
X300238Y429351D01*
X300000Y428461D01*
Y427539D01*
X300238Y426649D01*
X300699Y425851D01*
X301351Y425199D01*
X302149Y424739D01*
X303039Y424500D01*
X303961D01*
X304851Y424739D01*
X305649Y425199D01*
X306301Y425851D01*
X306762Y426649D01*
X306848Y426971D01*
X320089D01*
X320324Y426563D01*
X321063Y425824D01*
X321968Y425302D01*
X322977Y425032D01*
X324023D01*
X325032Y425302D01*
X325937Y425824D01*
X326676Y426563D01*
X327198Y427468D01*
X327468Y428477D01*
Y429523D01*
X327198Y430532D01*
X326676Y431437D01*
X325937Y432176D01*
X325032Y432698D01*
X324023Y432969D01*
D02*
G37*
G36*
X533759Y459500D02*
X531241D01*
X528753Y459106D01*
X526358Y458328D01*
X524114Y457184D01*
X522077Y455704D01*
X520296Y453923D01*
X518816Y451886D01*
X517672Y449642D01*
X516894Y447247D01*
X516500Y444759D01*
Y442241D01*
X516894Y439753D01*
X517672Y437358D01*
X518816Y435114D01*
X520296Y433077D01*
X522077Y431296D01*
X524114Y429816D01*
X526358Y428672D01*
X528753Y427894D01*
X531241Y427500D01*
X533759D01*
X536247Y427894D01*
X538642Y428672D01*
X540886Y429816D01*
X542923Y431296D01*
X544704Y433077D01*
X546184Y435114D01*
X547328Y437358D01*
X548106Y439753D01*
X548500Y442241D01*
Y444759D01*
X548106Y447247D01*
X547328Y449642D01*
X546184Y451886D01*
X544704Y453923D01*
X542923Y455704D01*
X540886Y457184D01*
X538642Y458328D01*
X536247Y459106D01*
X533759Y459500D01*
D02*
G37*
G36*
X121259D02*
X118741D01*
X116253Y459106D01*
X113858Y458328D01*
X111614Y457184D01*
X109577Y455704D01*
X107796Y453923D01*
X106316Y451886D01*
X105172Y449642D01*
X104394Y447247D01*
X104000Y444759D01*
Y442241D01*
X104394Y439753D01*
X105172Y437358D01*
X106316Y435114D01*
X107796Y433077D01*
X109577Y431296D01*
X111614Y429816D01*
X113858Y428672D01*
X116253Y427894D01*
X118741Y427500D01*
X121259D01*
X123747Y427894D01*
X126142Y428672D01*
X128386Y429816D01*
X130423Y431296D01*
X132204Y433077D01*
X133684Y435114D01*
X134828Y437358D01*
X135606Y439753D01*
X136000Y442241D01*
Y444759D01*
X135606Y447247D01*
X134828Y449642D01*
X133684Y451886D01*
X132204Y453923D01*
X130423Y455704D01*
X128386Y457184D01*
X126142Y458328D01*
X123747Y459106D01*
X121259Y459500D01*
D02*
G37*
G36*
X324023Y422968D02*
X322977D01*
X321968Y422698D01*
X321063Y422176D01*
X320324Y421437D01*
X319802Y420532D01*
X319667Y420029D01*
X299870D01*
X299801Y420149D01*
X299149Y420801D01*
X298351Y421262D01*
X297461Y421500D01*
X296539D01*
X295649Y421262D01*
X294851Y420801D01*
X294199Y420149D01*
X293739Y419351D01*
X293500Y418461D01*
Y417539D01*
X293739Y416649D01*
X294199Y415851D01*
X294851Y415199D01*
X295649Y414739D01*
X296539Y414500D01*
X297461D01*
X298351Y414739D01*
X299149Y415199D01*
X299801Y415851D01*
X300261Y416649D01*
X300348Y416971D01*
X320089D01*
X320324Y416563D01*
X321063Y415824D01*
X321968Y415302D01*
X322977Y415031D01*
X324023D01*
X325032Y415302D01*
X325937Y415824D01*
X326676Y416563D01*
X327198Y417468D01*
X327468Y418477D01*
Y419522D01*
X327198Y420532D01*
X326676Y421437D01*
X325937Y422176D01*
X325032Y422698D01*
X324023Y422968D01*
D02*
G37*
G36*
X412051Y419496D02*
X403949D01*
Y412575D01*
X412051D01*
Y414325D01*
X418925D01*
Y413673D01*
X424075D01*
Y418035D01*
X418925D01*
Y417384D01*
X412051D01*
Y419496D01*
D02*
G37*
G36*
X357836D02*
X349734D01*
Y412575D01*
X357836D01*
Y414325D01*
X363336D01*
Y413673D01*
X368486D01*
Y418035D01*
X363336D01*
Y417384D01*
X357836D01*
Y419496D01*
D02*
G37*
G36*
X467336D02*
X459234D01*
Y412575D01*
X467336D01*
Y413825D01*
X473925D01*
Y413173D01*
X479075D01*
Y417535D01*
X473925D01*
Y416884D01*
X467336D01*
Y419496D01*
D02*
G37*
G36*
X438051D02*
X429949D01*
Y414344D01*
X427280Y411675D01*
X424075D01*
Y412327D01*
X418925D01*
Y407965D01*
X419971D01*
Y404659D01*
X419351Y404301D01*
X418699Y403649D01*
X418238Y402851D01*
X418000Y401961D01*
Y401039D01*
X418238Y400149D01*
X418699Y399351D01*
X419351Y398699D01*
X420149Y398238D01*
X421039Y398000D01*
X421961D01*
X422851Y398238D01*
X423649Y398699D01*
X424301Y399351D01*
X424761Y400149D01*
X425000Y401039D01*
Y401961D01*
X424761Y402851D01*
X424301Y403649D01*
X423649Y404301D01*
X423029Y404659D01*
Y407965D01*
X424075D01*
Y408616D01*
X427913D01*
X428499Y408733D01*
X428995Y409064D01*
X429487Y409556D01*
X429949Y409365D01*
Y404504D01*
X432266D01*
Y396622D01*
X432239Y396615D01*
X431320Y396084D01*
X430569Y395334D01*
X430038Y394414D01*
X429764Y393389D01*
Y392327D01*
X430038Y391302D01*
X430569Y390383D01*
X431320Y389632D01*
X432239Y389102D01*
X433264Y388827D01*
X434326D01*
X435351Y389102D01*
X436271Y389632D01*
X437021Y390383D01*
X437552Y391302D01*
X437827Y392327D01*
Y393389D01*
X437552Y394414D01*
X437021Y395334D01*
X436271Y396084D01*
X435351Y396615D01*
X435325Y396622D01*
Y404504D01*
X438051D01*
Y411819D01*
X438051Y411819D01*
Y412181D01*
X438051D01*
X438051Y412319D01*
Y419496D01*
D02*
G37*
G36*
X384266D02*
X376164D01*
Y414344D01*
X373495Y411675D01*
X368486D01*
Y412327D01*
X363336D01*
Y407965D01*
X364471D01*
Y404659D01*
X363851Y404301D01*
X363199Y403649D01*
X362738Y402851D01*
X362500Y401961D01*
Y401039D01*
X362738Y400149D01*
X363199Y399351D01*
X363851Y398699D01*
X364649Y398238D01*
X365539Y398000D01*
X366461D01*
X367351Y398238D01*
X368149Y398699D01*
X368801Y399351D01*
X369262Y400149D01*
X369500Y401039D01*
Y401961D01*
X369262Y402851D01*
X368801Y403649D01*
X368149Y404301D01*
X367529Y404659D01*
Y407965D01*
X368486D01*
Y408616D01*
X374128D01*
X374714Y408733D01*
X375210Y409064D01*
X375702Y409556D01*
X376164Y409365D01*
Y404504D01*
X378266D01*
Y396622D01*
X378239Y396615D01*
X377320Y396084D01*
X376569Y395334D01*
X376039Y394414D01*
X375764Y393389D01*
Y392327D01*
X376039Y391302D01*
X376569Y390383D01*
X377320Y389632D01*
X378239Y389102D01*
X379264Y388827D01*
X380326D01*
X381351Y389102D01*
X382271Y389632D01*
X383021Y390383D01*
X383552Y391302D01*
X383827Y392327D01*
Y393389D01*
X383552Y394414D01*
X383021Y395334D01*
X382271Y396084D01*
X381351Y396615D01*
X381325Y396622D01*
Y404504D01*
X384266D01*
Y411819D01*
X384266Y411819D01*
Y412181D01*
X384266D01*
X384266Y412319D01*
Y419496D01*
D02*
G37*
G36*
X492927D02*
X484824D01*
Y414344D01*
X481656Y411175D01*
X479075D01*
Y411827D01*
X473925D01*
Y407465D01*
X474971D01*
Y404659D01*
X474351Y404301D01*
X473699Y403649D01*
X473239Y402851D01*
X473000Y401961D01*
Y401039D01*
X473239Y400149D01*
X473699Y399351D01*
X474351Y398699D01*
X475149Y398238D01*
X476039Y398000D01*
X476961D01*
X477851Y398238D01*
X478649Y398699D01*
X479301Y399351D01*
X479762Y400149D01*
X480000Y401039D01*
Y401961D01*
X479762Y402851D01*
X479301Y403649D01*
X478649Y404301D01*
X478029Y404659D01*
Y407465D01*
X479075D01*
Y408116D01*
X482289D01*
X482874Y408233D01*
X483370Y408564D01*
X484363Y409556D01*
X484824Y409365D01*
Y404504D01*
X487766D01*
Y396622D01*
X487739Y396615D01*
X486820Y396084D01*
X486069Y395334D01*
X485538Y394414D01*
X485264Y393389D01*
Y392327D01*
X485538Y391302D01*
X486069Y390383D01*
X486820Y389632D01*
X487739Y389102D01*
X488764Y388827D01*
X489826D01*
X490851Y389102D01*
X491771Y389632D01*
X492521Y390383D01*
X493052Y391302D01*
X493327Y392327D01*
Y393389D01*
X493052Y394414D01*
X492521Y395334D01*
X491771Y396084D01*
X490851Y396615D01*
X490825Y396622D01*
Y404504D01*
X492927D01*
Y411819D01*
X492927Y411819D01*
Y412181D01*
X492927D01*
X492927Y412319D01*
Y419496D01*
D02*
G37*
G36*
X264022Y412968D02*
X262978D01*
X261968Y412698D01*
X261063Y412176D01*
X260324Y411437D01*
X259802Y410532D01*
X259531Y409522D01*
Y408477D01*
X259802Y407468D01*
X260324Y406563D01*
X261063Y405824D01*
X261968Y405302D01*
X262978Y405031D01*
X264022D01*
X265032Y405302D01*
X265937Y405824D01*
X266676Y406563D01*
X267198Y407468D01*
X267469Y408477D01*
Y409522D01*
X267198Y410532D01*
X266676Y411437D01*
X265937Y412176D01*
X265032Y412698D01*
X264022Y412968D01*
D02*
G37*
G36*
X231778Y406376D02*
X226110D01*
Y400709D01*
X231778D01*
Y406376D01*
D02*
G37*
G36*
X225110D02*
X219443D01*
Y400709D01*
X225110D01*
Y406376D01*
D02*
G37*
G36*
X264022Y402969D02*
X262978D01*
X261968Y402698D01*
X261063Y402176D01*
X260324Y401437D01*
X259802Y400532D01*
X259531Y399522D01*
Y398478D01*
X259802Y397468D01*
X259803Y397466D01*
X202366Y340029D01*
X139385D01*
X137252Y342163D01*
Y347000D01*
X121748D01*
Y340000D01*
X135089D01*
X137671Y337419D01*
X138167Y337087D01*
X138752Y336971D01*
X139511D01*
X139645Y336471D01*
X139351Y336301D01*
X138699Y335649D01*
X138341Y335029D01*
X125756D01*
Y337000D01*
X110252D01*
Y330000D01*
X125756D01*
Y331971D01*
X138341D01*
X138699Y331351D01*
X139351Y330699D01*
X140149Y330239D01*
X141039Y330000D01*
X141961D01*
X142851Y330239D01*
X143649Y330699D01*
X144301Y331351D01*
X144762Y332149D01*
X145000Y333039D01*
Y333961D01*
X144762Y334851D01*
X144301Y335649D01*
X143649Y336301D01*
X143355Y336471D01*
X143489Y336971D01*
X203000D01*
X203585Y337087D01*
X204081Y337419D01*
X261966Y395303D01*
X261968Y395302D01*
X262978Y395031D01*
X264022D01*
X265032Y395302D01*
X265937Y395824D01*
X266676Y396563D01*
X267198Y397468D01*
X267469Y398478D01*
Y399522D01*
X267198Y400532D01*
X266676Y401437D01*
X265937Y402176D01*
X265032Y402698D01*
X264022Y402969D01*
D02*
G37*
G36*
X133870Y410434D02*
X131311D01*
X130422Y410257D01*
X129668Y409754D01*
X129164Y409000D01*
X128987Y408110D01*
Y396890D01*
X129164Y396000D01*
X129668Y395246D01*
X130422Y394742D01*
X131311Y394566D01*
X133870D01*
X134759Y394742D01*
X135513Y395246D01*
X136017Y396000D01*
X136194Y396890D01*
Y408110D01*
X136017Y409000D01*
X135513Y409754D01*
X134759Y410257D01*
X133870Y410434D01*
D02*
G37*
G36*
X231778Y399709D02*
X226110D01*
Y394041D01*
X231778D01*
Y399709D01*
D02*
G37*
G36*
X225110D02*
X219443D01*
Y394041D01*
X225110D01*
Y399709D01*
D02*
G37*
G36*
X158280Y411419D02*
X155720D01*
X154831Y411242D01*
X154077Y410738D01*
X153573Y409984D01*
X153396Y409094D01*
Y395905D01*
X153573Y395016D01*
X154077Y394262D01*
X154831Y393758D01*
X155720Y393581D01*
X158280D01*
X159169Y393758D01*
X159923Y394262D01*
X160427Y395016D01*
X160457Y395165D01*
X203947D01*
X204579Y394743D01*
X205701Y394278D01*
X206893Y394041D01*
X208107D01*
X209299Y394278D01*
X210421Y394743D01*
X211431Y395418D01*
X212291Y396277D01*
X212965Y397287D01*
X213430Y398410D01*
X213667Y399601D01*
Y400816D01*
X213430Y402008D01*
X212965Y403130D01*
X212291Y404140D01*
X211431Y404999D01*
X210421Y405674D01*
X209299Y406139D01*
X208107Y406376D01*
X206893D01*
X205701Y406139D01*
X204579Y405674D01*
X203947Y405252D01*
X160604D01*
Y409094D01*
X160427Y409984D01*
X159923Y410738D01*
X159169Y411242D01*
X158280Y411419D01*
D02*
G37*
G36*
X357836Y411425D02*
X349734D01*
Y404504D01*
X352256D01*
Y396890D01*
X350173D01*
Y394388D01*
X327358D01*
X326773Y394271D01*
X326277Y393940D01*
X325034Y392697D01*
X325032Y392698D01*
X324023Y392969D01*
X322977D01*
X321968Y392698D01*
X321063Y392176D01*
X320324Y391437D01*
X319802Y390532D01*
X319531Y389523D01*
Y388477D01*
X319802Y387468D01*
X320324Y386563D01*
X321063Y385824D01*
X321968Y385302D01*
X322977Y385032D01*
X324023D01*
X325032Y385302D01*
X325937Y385824D01*
X326676Y386563D01*
X327198Y387468D01*
X327468Y388477D01*
Y389523D01*
X327198Y390532D01*
X327197Y390534D01*
X327992Y391329D01*
X350173D01*
Y388827D01*
X358236D01*
Y396890D01*
X355314D01*
Y404504D01*
X357836D01*
Y411425D01*
D02*
G37*
G36*
X520051Y395996D02*
X511949D01*
Y389075D01*
X520051D01*
Y390825D01*
X526425D01*
Y390173D01*
X531575D01*
Y394535D01*
X526425D01*
Y393884D01*
X520051D01*
Y395996D01*
D02*
G37*
G36*
X545551D02*
X537449D01*
Y390844D01*
X534780Y388175D01*
X531575D01*
Y388827D01*
X526425D01*
Y384465D01*
X527471D01*
Y381158D01*
X526851Y380801D01*
X526199Y380149D01*
X525738Y379351D01*
X525500Y378461D01*
Y377539D01*
X525738Y376649D01*
X526199Y375851D01*
X526851Y375199D01*
X527649Y374739D01*
X528539Y374500D01*
X529461D01*
X530351Y374739D01*
X531149Y375199D01*
X531801Y375851D01*
X532262Y376649D01*
X532500Y377539D01*
Y378461D01*
X532262Y379351D01*
X531801Y380149D01*
X531149Y380801D01*
X530529Y381158D01*
Y384465D01*
X531575D01*
Y385116D01*
X535413D01*
X535999Y385233D01*
X536495Y385564D01*
X536987Y386056D01*
X537449Y385865D01*
Y381004D01*
X539766D01*
Y372622D01*
X539739Y372615D01*
X538820Y372084D01*
X538069Y371334D01*
X537538Y370414D01*
X537264Y369389D01*
Y368327D01*
X537538Y367302D01*
X538069Y366383D01*
X538820Y365632D01*
X539739Y365102D01*
X540765Y364827D01*
X541826D01*
X542851Y365102D01*
X543771Y365632D01*
X544521Y366383D01*
X545052Y367302D01*
X545327Y368327D01*
Y369389D01*
X545052Y370414D01*
X544521Y371334D01*
X543771Y372084D01*
X542851Y372615D01*
X542825Y372622D01*
Y381004D01*
X545551D01*
Y388319D01*
X545551Y388319D01*
Y388681D01*
X545551D01*
X545551Y388819D01*
Y395996D01*
D02*
G37*
G36*
X264022Y392969D02*
X262978D01*
X261968Y392698D01*
X261063Y392176D01*
X260324Y391437D01*
X259802Y390532D01*
X259531Y389523D01*
Y388477D01*
X259802Y387468D01*
X259803Y387466D01*
X206919Y334581D01*
X206587Y334085D01*
X206471Y333500D01*
Y306134D01*
X200867Y300529D01*
X200008D01*
X199909Y301029D01*
X199921Y301035D01*
X200931Y301710D01*
X201790Y302569D01*
X202465Y303579D01*
X202930Y304701D01*
X203167Y305893D01*
Y306000D01*
X190833D01*
Y305893D01*
X191070Y304701D01*
X191535Y303579D01*
X192209Y302569D01*
X193069Y301710D01*
X194079Y301035D01*
X194091Y301029D01*
X193992Y300529D01*
X185057D01*
Y312667D01*
X178428D01*
X164743Y326353D01*
X163907Y326994D01*
X162934Y327397D01*
X161890Y327535D01*
X161890Y327535D01*
X129500D01*
X128456Y327397D01*
X127497Y327000D01*
X121748D01*
Y320000D01*
X127497D01*
X128456Y319603D01*
X129500Y319465D01*
X160219D01*
X172722Y306962D01*
Y300529D01*
X144186D01*
X143979Y301029D01*
X144301Y301351D01*
X144762Y302149D01*
X145000Y303039D01*
Y303961D01*
X144762Y304851D01*
X144301Y305649D01*
X143649Y306301D01*
X142851Y306762D01*
X141961Y307000D01*
X141039D01*
X140149Y306762D01*
X139351Y306301D01*
X138699Y305649D01*
X138341Y305029D01*
X137252D01*
Y307000D01*
X121748D01*
Y302695D01*
X121286Y302503D01*
X119533Y304256D01*
Y310000D01*
X125756D01*
Y317000D01*
X110252D01*
Y310000D01*
X116474D01*
Y303623D01*
X116591Y303038D01*
X116922Y302541D01*
X121545Y297919D01*
X122041Y297587D01*
X122305Y297534D01*
X122256Y297035D01*
X118504D01*
X118242Y297000D01*
X110252D01*
Y290000D01*
X115843D01*
X116487Y289506D01*
X117460Y289103D01*
X118504Y288966D01*
X144010D01*
X172722Y260253D01*
Y253624D01*
X185057D01*
Y265959D01*
X178428D01*
X148534Y295853D01*
X147698Y296494D01*
X146725Y296897D01*
X146167Y296971D01*
X146199Y297471D01*
X201500D01*
X202085Y297587D01*
X202581Y297919D01*
X209081Y304419D01*
X209413Y304915D01*
X209529Y305500D01*
Y332867D01*
X261966Y385303D01*
X261968Y385302D01*
X262978Y385032D01*
X264022D01*
X265032Y385302D01*
X265937Y385824D01*
X266676Y386563D01*
X267198Y387468D01*
X267469Y388477D01*
Y389523D01*
X267198Y390532D01*
X266676Y391437D01*
X265937Y392176D01*
X265032Y392698D01*
X264022Y392969D01*
D02*
G37*
G36*
X412051Y411425D02*
X403949D01*
Y404504D01*
X406471D01*
Y396890D01*
X404173D01*
Y390990D01*
X394386Y381203D01*
X326811D01*
X326676Y381437D01*
X325937Y382176D01*
X325032Y382698D01*
X324023Y382968D01*
X322977D01*
X321968Y382698D01*
X321063Y382176D01*
X320324Y381437D01*
X319802Y380532D01*
X319531Y379522D01*
Y378478D01*
X319802Y377468D01*
X320324Y376563D01*
X321063Y375824D01*
X321968Y375302D01*
X322977Y375031D01*
X324023D01*
X325032Y375302D01*
X325937Y375824D01*
X326676Y376563D01*
X327198Y377468D01*
X327379Y378144D01*
X350852D01*
X351044Y377682D01*
X350979Y377617D01*
X350448Y376698D01*
X350173Y375673D01*
Y375642D01*
X358236D01*
Y375673D01*
X357962Y376698D01*
X357431Y377617D01*
X357366Y377682D01*
X357557Y378144D01*
X376443D01*
X376634Y377682D01*
X376569Y377617D01*
X376039Y376698D01*
X375764Y375673D01*
Y374611D01*
X376039Y373586D01*
X376569Y372666D01*
X377320Y371916D01*
X378239Y371385D01*
X379264Y371110D01*
X380326D01*
X381351Y371385D01*
X382271Y371916D01*
X383021Y372666D01*
X383552Y373586D01*
X383827Y374611D01*
Y375673D01*
X383552Y376698D01*
X383021Y377617D01*
X382957Y377682D01*
X383148Y378144D01*
X395020D01*
X395605Y378260D01*
X396101Y378592D01*
X406336Y388827D01*
X412236D01*
Y396890D01*
X409529D01*
Y404504D01*
X412051D01*
Y411425D01*
D02*
G37*
G36*
X150012Y387600D02*
X138791D01*
X137902Y387423D01*
X137148Y386919D01*
X136644Y386165D01*
X136467Y385276D01*
Y382716D01*
X136644Y381827D01*
X137148Y381073D01*
X137902Y380569D01*
X138791Y380392D01*
X150012D01*
X150901Y380569D01*
X151655Y381073D01*
X152159Y381827D01*
X152336Y382716D01*
Y385276D01*
X152159Y386165D01*
X151655Y386919D01*
X150901Y387423D01*
X150012Y387600D01*
D02*
G37*
G36*
X464235Y379173D02*
X464205D01*
Y375642D01*
X467736D01*
Y375673D01*
X467461Y376698D01*
X466931Y377617D01*
X466180Y378368D01*
X465261Y378899D01*
X464235Y379173D01*
D02*
G37*
G36*
X463205D02*
X463174D01*
X462149Y378899D01*
X461229Y378368D01*
X460479Y377617D01*
X459948Y376698D01*
X459673Y375673D01*
Y375642D01*
X463205D01*
Y379173D01*
D02*
G37*
G36*
X408736D02*
X408705D01*
Y375642D01*
X412236D01*
Y375673D01*
X411962Y376698D01*
X411431Y377617D01*
X410680Y378368D01*
X409761Y378899D01*
X408736Y379173D01*
D02*
G37*
G36*
X407705D02*
X407674D01*
X406649Y378899D01*
X405729Y378368D01*
X404979Y377617D01*
X404448Y376698D01*
X404173Y375673D01*
Y375642D01*
X407705D01*
Y379173D01*
D02*
G37*
G36*
X264022Y382968D02*
X262978D01*
X261968Y382698D01*
X261063Y382176D01*
X260324Y381437D01*
X259802Y380532D01*
X259531Y379522D01*
Y378478D01*
X259802Y377468D01*
X259803Y377466D01*
X212919Y330581D01*
X212587Y330085D01*
X212471Y329500D01*
Y262134D01*
X201366Y251029D01*
X168386D01*
X137252Y282163D01*
Y287000D01*
X121748D01*
Y280000D01*
X135089D01*
X166378Y248711D01*
X166378Y248711D01*
X166671Y248418D01*
X167167Y248087D01*
X167752Y247971D01*
X202000D01*
X202585Y248087D01*
X203081Y248419D01*
X215081Y260419D01*
X215413Y260915D01*
X215529Y261500D01*
Y328867D01*
X261966Y375303D01*
X261968Y375302D01*
X262978Y375031D01*
X264022D01*
X265032Y375302D01*
X265937Y375824D01*
X266676Y376563D01*
X267198Y377468D01*
X267469Y378478D01*
Y379522D01*
X267198Y380532D01*
X266676Y381437D01*
X265937Y382176D01*
X265032Y382698D01*
X264022Y382968D01*
D02*
G37*
G36*
X489826Y379173D02*
X488764D01*
X487739Y378899D01*
X486820Y378368D01*
X486069Y377617D01*
X485538Y376698D01*
X485264Y375673D01*
Y374611D01*
X485538Y373586D01*
X486069Y372666D01*
X486820Y371916D01*
X487739Y371385D01*
X488764Y371110D01*
X489826D01*
X490851Y371385D01*
X491771Y371916D01*
X492521Y372666D01*
X493052Y373586D01*
X493327Y374611D01*
Y375673D01*
X493052Y376698D01*
X492521Y377617D01*
X491771Y378368D01*
X490851Y378899D01*
X489826Y379173D01*
D02*
G37*
G36*
X467736Y374642D02*
X464205D01*
Y371110D01*
X464235D01*
X465261Y371385D01*
X466180Y371916D01*
X466931Y372666D01*
X467461Y373586D01*
X467736Y374611D01*
Y374642D01*
D02*
G37*
G36*
X463205D02*
X459673D01*
Y374611D01*
X459948Y373586D01*
X460479Y372666D01*
X461229Y371916D01*
X462149Y371385D01*
X463174Y371110D01*
X463205D01*
Y374642D01*
D02*
G37*
G36*
X434326Y379173D02*
X433264D01*
X432239Y378899D01*
X431320Y378368D01*
X430569Y377617D01*
X430038Y376698D01*
X429764Y375673D01*
Y374611D01*
X430038Y373586D01*
X430569Y372666D01*
X431320Y371916D01*
X432239Y371385D01*
X433264Y371110D01*
X434326D01*
X435351Y371385D01*
X436271Y371916D01*
X437021Y372666D01*
X437552Y373586D01*
X437827Y374611D01*
Y375673D01*
X437552Y376698D01*
X437021Y377617D01*
X436271Y378368D01*
X435351Y378899D01*
X434326Y379173D01*
D02*
G37*
G36*
X412236Y374642D02*
X408705D01*
Y371110D01*
X408736D01*
X409761Y371385D01*
X410680Y371916D01*
X411431Y372666D01*
X411962Y373586D01*
X412236Y374611D01*
Y374642D01*
D02*
G37*
G36*
X407705D02*
X404173D01*
Y374611D01*
X404448Y373586D01*
X404979Y372666D01*
X405729Y371916D01*
X406649Y371385D01*
X407674Y371110D01*
X407705D01*
Y374642D01*
D02*
G37*
G36*
X358236D02*
X354705D01*
Y371110D01*
X354735D01*
X355761Y371385D01*
X356680Y371916D01*
X357431Y372666D01*
X357962Y373586D01*
X358236Y374611D01*
Y374642D01*
D02*
G37*
G36*
X353705D02*
X350173D01*
Y374611D01*
X350448Y373586D01*
X350979Y372666D01*
X351729Y371916D01*
X352649Y371385D01*
X353674Y371110D01*
X353705D01*
Y374642D01*
D02*
G37*
G36*
X467336Y411425D02*
X459234D01*
Y404504D01*
X461756D01*
Y396890D01*
X459673D01*
Y390990D01*
X435713Y367029D01*
X327634D01*
X327197Y367466D01*
X327198Y367468D01*
X327468Y368478D01*
Y369523D01*
X327198Y370532D01*
X326676Y371437D01*
X325937Y372176D01*
X325032Y372698D01*
X324023Y372969D01*
X322977D01*
X321968Y372698D01*
X321063Y372176D01*
X320324Y371437D01*
X319802Y370532D01*
X319531Y369523D01*
Y368478D01*
X319802Y367468D01*
X320324Y366563D01*
X321063Y365824D01*
X321968Y365302D01*
X322977Y365032D01*
X324023D01*
X325032Y365302D01*
X325034Y365303D01*
X325919Y364419D01*
X326415Y364087D01*
X327000Y363971D01*
X436346D01*
X436932Y364087D01*
X437428Y364419D01*
X461836Y388827D01*
X467736D01*
Y396890D01*
X464814D01*
Y404504D01*
X467336D01*
Y411425D01*
D02*
G37*
G36*
X264022Y372969D02*
X262978D01*
X261968Y372698D01*
X261063Y372176D01*
X260324Y371437D01*
X259802Y370532D01*
X259531Y369523D01*
Y368478D01*
X259802Y367468D01*
X260324Y366563D01*
X261063Y365824D01*
X261968Y365302D01*
X262978Y365032D01*
X264022D01*
X265032Y365302D01*
X265937Y365824D01*
X266676Y366563D01*
X267198Y367468D01*
X267469Y368478D01*
Y369523D01*
X267198Y370532D01*
X266676Y371437D01*
X265937Y372176D01*
X265032Y372698D01*
X264022Y372969D01*
D02*
G37*
G36*
X520051Y387925D02*
X511949D01*
Y381004D01*
X514471D01*
Y372890D01*
X511673D01*
Y366990D01*
X505213Y360529D01*
X327199D01*
X327198Y360532D01*
X326676Y361437D01*
X325937Y362176D01*
X325032Y362698D01*
X324023Y362968D01*
X322977D01*
X321968Y362698D01*
X321063Y362176D01*
X320324Y361437D01*
X319802Y360532D01*
X319531Y359523D01*
Y358477D01*
X319802Y357468D01*
X320324Y356563D01*
X321063Y355824D01*
X321968Y355302D01*
X322977Y355031D01*
X324023D01*
X325032Y355302D01*
X325937Y355824D01*
X326676Y356563D01*
X327198Y357468D01*
X327199Y357471D01*
X505847D01*
X506432Y357587D01*
X506928Y357919D01*
X513836Y364827D01*
X519736D01*
Y372890D01*
X517529D01*
Y381004D01*
X520051D01*
Y387925D01*
D02*
G37*
G36*
X189961Y367000D02*
X189039D01*
X188149Y366761D01*
X187351Y366301D01*
X186699Y365649D01*
X186239Y364851D01*
X186000Y363961D01*
Y363039D01*
X186239Y362149D01*
X186699Y361351D01*
X187351Y360699D01*
X188149Y360239D01*
X189039Y360000D01*
X189961D01*
X190851Y360239D01*
X191649Y360699D01*
X192301Y361351D01*
X192762Y362149D01*
X193000Y363039D01*
Y363961D01*
X192762Y364851D01*
X192301Y365649D01*
X191649Y366301D01*
X190851Y366761D01*
X189961Y367000D01*
D02*
G37*
G36*
X264022Y362968D02*
X262978D01*
X261968Y362698D01*
X261063Y362176D01*
X260324Y361437D01*
X259802Y360532D01*
X259531Y359523D01*
Y358477D01*
X259802Y357468D01*
X260324Y356563D01*
X261063Y355824D01*
X261968Y355302D01*
X262978Y355031D01*
X264022D01*
X265032Y355302D01*
X265937Y355824D01*
X266676Y356563D01*
X267198Y357468D01*
X267469Y358477D01*
Y359523D01*
X267198Y360532D01*
X266676Y361437D01*
X265937Y362176D01*
X265032Y362698D01*
X264022Y362968D01*
D02*
G37*
G36*
X197607Y358459D02*
X197500D01*
Y352791D01*
X203167D01*
Y352899D01*
X202930Y354090D01*
X202465Y355213D01*
X201790Y356223D01*
X200931Y357082D01*
X199921Y357757D01*
X198799Y358222D01*
X197607Y358459D01*
D02*
G37*
G36*
X196500D02*
X196393D01*
X195201Y358222D01*
X194079Y357757D01*
X193069Y357082D01*
X192209Y356223D01*
X191535Y355213D01*
X191070Y354090D01*
X190833Y352899D01*
Y352791D01*
X196500D01*
Y358459D01*
D02*
G37*
G36*
X462437Y355529D02*
X328500D01*
X327915Y355413D01*
X327419Y355081D01*
X325034Y352697D01*
X325032Y352698D01*
X324023Y352969D01*
X322977D01*
X321968Y352698D01*
X321063Y352176D01*
X320324Y351437D01*
X319802Y350532D01*
X319531Y349522D01*
Y348478D01*
X319802Y347468D01*
X320324Y346563D01*
X321063Y345824D01*
X321968Y345302D01*
X322977Y345031D01*
X324023D01*
X325032Y345302D01*
X325937Y345824D01*
X326676Y346563D01*
X327198Y347468D01*
X327468Y348478D01*
Y349522D01*
X327198Y350532D01*
X327197Y350534D01*
X329134Y352471D01*
X461803D01*
X465098Y349176D01*
X464839Y348728D01*
X464235Y348890D01*
X463174D01*
X462149Y348615D01*
X461229Y348084D01*
X460479Y347334D01*
X459948Y346414D01*
X459673Y345389D01*
Y344327D01*
X459948Y343302D01*
X460479Y342383D01*
X461229Y341632D01*
X462149Y341102D01*
X463174Y340827D01*
X464235D01*
X465261Y341102D01*
X466180Y341632D01*
X466931Y342383D01*
X467461Y343302D01*
X467736Y344327D01*
Y345389D01*
X467575Y345992D01*
X468023Y346251D01*
X485264Y329010D01*
Y323110D01*
X487766D01*
Y316496D01*
X484824D01*
Y309575D01*
X492927D01*
Y316496D01*
X490825D01*
Y323110D01*
X493327D01*
Y331173D01*
X487427D01*
X463518Y355081D01*
X463022Y355413D01*
X462437Y355529D01*
D02*
G37*
G36*
X516235Y355173D02*
X516205D01*
Y351642D01*
X519736D01*
Y351673D01*
X519461Y352698D01*
X518931Y353617D01*
X518180Y354368D01*
X517261Y354899D01*
X516235Y355173D01*
D02*
G37*
G36*
X515205D02*
X515174D01*
X514149Y354899D01*
X513229Y354368D01*
X512479Y353617D01*
X511948Y352698D01*
X511673Y351673D01*
Y351642D01*
X515205D01*
Y355173D01*
D02*
G37*
G36*
X250961Y357624D02*
X250039D01*
X249149Y357385D01*
X248351Y356924D01*
X247699Y356273D01*
X247238Y355475D01*
X247000Y354584D01*
Y353663D01*
X247185Y352972D01*
X242765Y348551D01*
X238006D01*
Y340449D01*
X244928D01*
Y346388D01*
X245615Y347076D01*
X246077Y346885D01*
Y340449D01*
X248008D01*
Y331575D01*
X247173D01*
Y326425D01*
X251535D01*
Y331575D01*
X251067D01*
Y340449D01*
X252998D01*
Y348551D01*
X247744D01*
X247552Y349013D01*
X249348Y350809D01*
X250039Y350624D01*
X250961D01*
X251851Y350862D01*
X252649Y351323D01*
X253301Y351975D01*
X253762Y352773D01*
X254000Y353663D01*
Y354584D01*
X253762Y355475D01*
X253301Y356273D01*
X252649Y356924D01*
X251851Y357385D01*
X250961Y357624D01*
D02*
G37*
G36*
X541826Y355173D02*
X540765D01*
X539739Y354899D01*
X538820Y354368D01*
X538069Y353617D01*
X537538Y352698D01*
X537264Y351673D01*
Y350611D01*
X537538Y349586D01*
X538069Y348666D01*
X538820Y347916D01*
X539739Y347385D01*
X540765Y347110D01*
X541826D01*
X542851Y347385D01*
X543771Y347916D01*
X544521Y348666D01*
X545052Y349586D01*
X545327Y350611D01*
Y351673D01*
X545052Y352698D01*
X544521Y353617D01*
X543771Y354368D01*
X542851Y354899D01*
X541826Y355173D01*
D02*
G37*
G36*
X519736Y350642D02*
X516205D01*
Y347110D01*
X516235D01*
X517261Y347385D01*
X518180Y347916D01*
X518931Y348666D01*
X519461Y349586D01*
X519736Y350611D01*
Y350642D01*
D02*
G37*
G36*
X515205D02*
X511673D01*
Y350611D01*
X511948Y349586D01*
X512479Y348666D01*
X513229Y347916D01*
X514149Y347385D01*
X515174Y347110D01*
X515205D01*
Y350642D01*
D02*
G37*
G36*
X203167Y351791D02*
X197500D01*
Y346124D01*
X197607D01*
X198799Y346361D01*
X199921Y346826D01*
X200931Y347501D01*
X201790Y348360D01*
X202465Y349370D01*
X202930Y350492D01*
X203167Y351684D01*
Y351791D01*
D02*
G37*
G36*
X196500D02*
X190833D01*
Y351684D01*
X191070Y350492D01*
X191535Y349370D01*
X192209Y348360D01*
X193069Y347501D01*
X194079Y346826D01*
X195201Y346361D01*
X196393Y346124D01*
X196500D01*
Y351791D01*
D02*
G37*
G36*
X185057Y358459D02*
X172722D01*
Y357034D01*
X118504D01*
X118242Y357000D01*
X110252D01*
Y350000D01*
X115843D01*
X116487Y349506D01*
X117460Y349103D01*
X118504Y348966D01*
X172722D01*
Y346124D01*
X185057D01*
Y358459D01*
D02*
G37*
G36*
X489826Y348890D02*
X489795D01*
Y345358D01*
X493327D01*
Y345389D01*
X493052Y346414D01*
X492521Y347334D01*
X491771Y348084D01*
X490851Y348615D01*
X489826Y348890D01*
D02*
G37*
G36*
X434326D02*
X434295D01*
Y345358D01*
X437827D01*
Y345389D01*
X437552Y346414D01*
X437021Y347334D01*
X436271Y348084D01*
X435351Y348615D01*
X434326Y348890D01*
D02*
G37*
G36*
X380326D02*
X380295D01*
Y345358D01*
X383827D01*
Y345389D01*
X383552Y346414D01*
X383021Y347334D01*
X382271Y348084D01*
X381351Y348615D01*
X380326Y348890D01*
D02*
G37*
G36*
X488795D02*
X488764D01*
X487739Y348615D01*
X486820Y348084D01*
X486069Y347334D01*
X485538Y346414D01*
X485264Y345389D01*
Y345358D01*
X488795D01*
Y348890D01*
D02*
G37*
G36*
X433295D02*
X433264D01*
X432239Y348615D01*
X431320Y348084D01*
X430569Y347334D01*
X430038Y346414D01*
X429764Y345389D01*
Y345358D01*
X433295D01*
Y348890D01*
D02*
G37*
G36*
X379295D02*
X379264D01*
X378239Y348615D01*
X377320Y348084D01*
X376569Y347334D01*
X376039Y346414D01*
X375764Y345389D01*
Y345358D01*
X379295D01*
Y348890D01*
D02*
G37*
G36*
X264022Y352969D02*
X262978D01*
X261968Y352698D01*
X261063Y352176D01*
X260324Y351437D01*
X259802Y350532D01*
X259531Y349522D01*
Y348478D01*
X259802Y347468D01*
X260324Y346563D01*
X261063Y345824D01*
X261968Y345302D01*
X262978Y345031D01*
X264022D01*
X265032Y345302D01*
X265937Y345824D01*
X266676Y346563D01*
X267198Y347468D01*
X267469Y348478D01*
Y349522D01*
X267198Y350532D01*
X266676Y351437D01*
X265937Y352176D01*
X265032Y352698D01*
X264022Y352969D01*
D02*
G37*
G36*
X493327Y344358D02*
X489795D01*
Y340827D01*
X489826D01*
X490851Y341102D01*
X491771Y341632D01*
X492521Y342383D01*
X493052Y343302D01*
X493327Y344327D01*
Y344358D01*
D02*
G37*
G36*
X488795D02*
X485264D01*
Y344327D01*
X485538Y343302D01*
X486069Y342383D01*
X486820Y341632D01*
X487739Y341102D01*
X488764Y340827D01*
X488795D01*
Y344358D01*
D02*
G37*
G36*
X437827D02*
X434295D01*
Y340827D01*
X434326D01*
X435351Y341102D01*
X436271Y341632D01*
X437021Y342383D01*
X437552Y343302D01*
X437827Y344327D01*
Y344358D01*
D02*
G37*
G36*
X433295D02*
X429764D01*
Y344327D01*
X430038Y343302D01*
X430569Y342383D01*
X431320Y341632D01*
X432239Y341102D01*
X433264Y340827D01*
X433295D01*
Y344358D01*
D02*
G37*
G36*
X408736Y348890D02*
X407674D01*
X406649Y348615D01*
X405729Y348084D01*
X404979Y347334D01*
X404448Y346414D01*
X404173Y345389D01*
Y344327D01*
X404448Y343302D01*
X404979Y342383D01*
X405729Y341632D01*
X406649Y341102D01*
X406918Y341029D01*
X406852Y340529D01*
X381148D01*
X381082Y341029D01*
X381351Y341102D01*
X382271Y341632D01*
X383021Y342383D01*
X383552Y343302D01*
X383827Y344327D01*
Y344358D01*
X379795D01*
X375764D01*
Y344327D01*
X376039Y343302D01*
X376569Y342383D01*
X377320Y341632D01*
X378239Y341102D01*
X378508Y341029D01*
X378443Y340529D01*
X355557D01*
X355492Y341029D01*
X355761Y341102D01*
X356680Y341632D01*
X357431Y342383D01*
X357962Y343302D01*
X358236Y344327D01*
Y345389D01*
X357962Y346414D01*
X357431Y347334D01*
X356680Y348084D01*
X355761Y348615D01*
X354735Y348890D01*
X353674D01*
X352649Y348615D01*
X351729Y348084D01*
X350979Y347334D01*
X350448Y346414D01*
X350173Y345389D01*
Y344327D01*
X350448Y343302D01*
X350979Y342383D01*
X351729Y341632D01*
X352649Y341102D01*
X352918Y341029D01*
X352852Y340529D01*
X327199D01*
X327198Y340532D01*
X326676Y341437D01*
X325937Y342176D01*
X325032Y342698D01*
X324023Y342969D01*
X322977D01*
X321968Y342698D01*
X321063Y342176D01*
X320324Y341437D01*
X319802Y340532D01*
X319531Y339523D01*
Y338477D01*
X319802Y337468D01*
X320324Y336563D01*
X321063Y335824D01*
X321968Y335302D01*
X322977Y335032D01*
X324023D01*
X325032Y335302D01*
X325937Y335824D01*
X326676Y336563D01*
X327198Y337468D01*
X327199Y337471D01*
X421304D01*
X429764Y329010D01*
Y323110D01*
X432266D01*
Y316496D01*
X429324D01*
Y309575D01*
X437427D01*
Y316496D01*
X435325D01*
Y323110D01*
X437827D01*
Y331173D01*
X431927D01*
X423018Y340081D01*
X422522Y340413D01*
X421937Y340529D01*
X409557D01*
X409492Y341029D01*
X409761Y341102D01*
X410680Y341632D01*
X411431Y342383D01*
X411962Y343302D01*
X412236Y344327D01*
Y345389D01*
X411962Y346414D01*
X411431Y347334D01*
X410680Y348084D01*
X409761Y348615D01*
X408736Y348890D01*
D02*
G37*
G36*
X264022Y342969D02*
X262978D01*
X261968Y342698D01*
X261063Y342176D01*
X260324Y341437D01*
X259802Y340532D01*
X259531Y339523D01*
Y338477D01*
X259802Y337468D01*
X260324Y336563D01*
X261063Y335824D01*
X261968Y335302D01*
X262978Y335032D01*
X264022D01*
X265032Y335302D01*
X265937Y335824D01*
X266676Y336563D01*
X267198Y337468D01*
X267469Y338477D01*
Y339523D01*
X267198Y340532D01*
X266676Y341437D01*
X265937Y342176D01*
X265032Y342698D01*
X264022Y342969D01*
D02*
G37*
G36*
X375264Y333203D02*
X327146D01*
X326561Y333086D01*
X326065Y332755D01*
X325651Y332341D01*
X325032Y332698D01*
X324023Y332968D01*
X322977D01*
X321968Y332698D01*
X321063Y332176D01*
X320324Y331437D01*
X319802Y330532D01*
X319531Y329522D01*
Y328478D01*
X319802Y327468D01*
X320324Y326563D01*
X321063Y325824D01*
X321968Y325302D01*
X322977Y325031D01*
X324023D01*
X325032Y325302D01*
X325937Y325824D01*
X326676Y326563D01*
X327198Y327468D01*
X327468Y328478D01*
Y329522D01*
X327403Y329767D01*
X327780Y330144D01*
X350852D01*
X351044Y329682D01*
X350979Y329617D01*
X350448Y328698D01*
X350173Y327673D01*
Y326611D01*
X350448Y325586D01*
X350979Y324666D01*
X351729Y323916D01*
X352649Y323385D01*
X352675Y323378D01*
Y316496D01*
X348949D01*
Y309181D01*
X348949Y309181D01*
Y308819D01*
X348949D01*
X348949Y308681D01*
Y301504D01*
X357051D01*
Y306656D01*
X359220Y308825D01*
X363925D01*
Y308173D01*
X369075D01*
Y312535D01*
X368029D01*
Y315341D01*
X368649Y315699D01*
X369301Y316351D01*
X369761Y317149D01*
X370000Y318039D01*
Y318961D01*
X369761Y319851D01*
X369301Y320649D01*
X368649Y321301D01*
X367851Y321761D01*
X366961Y322000D01*
X366039D01*
X365149Y321761D01*
X364351Y321301D01*
X363699Y320649D01*
X363239Y319851D01*
X363000Y318961D01*
Y318039D01*
X363239Y317149D01*
X363699Y316351D01*
X364351Y315699D01*
X364971Y315341D01*
Y312535D01*
X363925D01*
Y311884D01*
X358587D01*
X358001Y311767D01*
X357551Y311467D01*
X357261Y311537D01*
X357051Y311624D01*
Y316496D01*
X355734D01*
Y323378D01*
X355761Y323385D01*
X356680Y323916D01*
X357431Y324666D01*
X357962Y325586D01*
X358236Y326611D01*
Y327673D01*
X357962Y328698D01*
X357431Y329617D01*
X357366Y329682D01*
X357557Y330144D01*
X374630D01*
X375764Y329010D01*
Y323110D01*
X377971D01*
Y316496D01*
X375449D01*
Y309575D01*
X383551D01*
Y316496D01*
X381029D01*
Y323110D01*
X383827D01*
Y331173D01*
X377927D01*
X376345Y332755D01*
X375849Y333086D01*
X375264Y333203D01*
D02*
G37*
G36*
X243961Y339000D02*
X243039D01*
X242149Y338761D01*
X241351Y338301D01*
X240699Y337649D01*
X240238Y336851D01*
X240000Y335961D01*
Y335039D01*
X240238Y334149D01*
X240699Y333351D01*
X241351Y332699D01*
X242043Y332299D01*
Y331575D01*
X241465D01*
Y326425D01*
X245827D01*
Y331575D01*
X245102D01*
Y332384D01*
X245649Y332699D01*
X246301Y333351D01*
X246761Y334149D01*
X247000Y335039D01*
Y335961D01*
X246761Y336851D01*
X246301Y337649D01*
X245649Y338301D01*
X244851Y338761D01*
X243961Y339000D01*
D02*
G37*
G36*
X264022Y332968D02*
X262978D01*
X261968Y332698D01*
X261063Y332176D01*
X260324Y331437D01*
X259802Y330532D01*
X259531Y329522D01*
Y328478D01*
X259802Y327468D01*
X260324Y326563D01*
X261063Y325824D01*
X261968Y325302D01*
X262978Y325031D01*
X264022D01*
X265032Y325302D01*
X265937Y325824D01*
X266676Y326563D01*
X267198Y327468D01*
X267469Y328478D01*
Y329522D01*
X267198Y330532D01*
X266676Y331437D01*
X265937Y332176D01*
X265032Y332698D01*
X264022Y332968D01*
D02*
G37*
G36*
X324023Y322969D02*
X322977D01*
X321968Y322698D01*
X321063Y322176D01*
X320324Y321437D01*
X319802Y320532D01*
X319531Y319523D01*
Y318478D01*
X319802Y317468D01*
X320324Y316563D01*
X321063Y315824D01*
X321968Y315302D01*
X322977Y315032D01*
X324023D01*
X325032Y315302D01*
X325937Y315824D01*
X326676Y316563D01*
X327198Y317468D01*
X327468Y318478D01*
Y319523D01*
X327198Y320532D01*
X326676Y321437D01*
X325937Y322176D01*
X325032Y322698D01*
X324023Y322969D01*
D02*
G37*
G36*
X264022D02*
X262978D01*
X261968Y322698D01*
X261063Y322176D01*
X260324Y321437D01*
X259802Y320532D01*
X259531Y319523D01*
Y318478D01*
X259802Y317468D01*
X260324Y316563D01*
X261063Y315824D01*
X261968Y315302D01*
X262978Y315032D01*
X264022D01*
X265032Y315302D01*
X265937Y315824D01*
X266676Y316563D01*
X267198Y317468D01*
X267469Y318478D01*
Y319523D01*
X267198Y320532D01*
X266676Y321437D01*
X265937Y322176D01*
X265032Y322698D01*
X264022Y322969D01*
D02*
G37*
G36*
X189961Y320000D02*
X189039D01*
X188149Y319761D01*
X187351Y319301D01*
X186699Y318649D01*
X186239Y317851D01*
X186000Y316961D01*
Y316039D01*
X186239Y315149D01*
X186699Y314351D01*
X187351Y313699D01*
X188149Y313239D01*
X189039Y313000D01*
X189961D01*
X190851Y313239D01*
X191649Y313699D01*
X192301Y314351D01*
X192762Y315149D01*
X193000Y316039D01*
Y316961D01*
X192762Y317851D01*
X192301Y318649D01*
X191649Y319301D01*
X190851Y319761D01*
X189961Y320000D01*
D02*
G37*
G36*
X464235Y331173D02*
X463174D01*
X462149Y330898D01*
X461229Y330368D01*
X460479Y329617D01*
X459948Y328698D01*
X459673Y327673D01*
Y326611D01*
X459948Y325586D01*
X460479Y324666D01*
X461229Y323916D01*
X462149Y323385D01*
X462175Y323378D01*
Y316496D01*
X460073D01*
Y309181D01*
X460073Y309181D01*
Y308819D01*
X460073D01*
X460073Y308681D01*
Y301504D01*
X468176D01*
Y306656D01*
X470344Y308825D01*
X474425D01*
Y308173D01*
X479575D01*
Y312535D01*
X478529D01*
Y315842D01*
X479149Y316199D01*
X479801Y316851D01*
X480262Y317649D01*
X480500Y318539D01*
Y319461D01*
X480262Y320351D01*
X479801Y321149D01*
X479149Y321801D01*
X478351Y322262D01*
X477461Y322500D01*
X476539D01*
X475649Y322262D01*
X474851Y321801D01*
X474199Y321149D01*
X473738Y320351D01*
X473500Y319461D01*
Y318539D01*
X473738Y317649D01*
X474199Y316851D01*
X474851Y316199D01*
X475471Y315842D01*
Y312535D01*
X474425D01*
Y311884D01*
X469711D01*
X469126Y311767D01*
X468676Y311467D01*
X468386Y311537D01*
X468176Y311624D01*
Y316496D01*
X465234D01*
Y323378D01*
X465261Y323385D01*
X466180Y323916D01*
X466931Y324666D01*
X467461Y325586D01*
X467736Y326611D01*
Y327673D01*
X467461Y328698D01*
X466931Y329617D01*
X466180Y330368D01*
X465261Y330898D01*
X464235Y331173D01*
D02*
G37*
G36*
X408736D02*
X407674D01*
X406649Y330898D01*
X405729Y330368D01*
X404979Y329617D01*
X404448Y328698D01*
X404173Y327673D01*
Y326611D01*
X404448Y325586D01*
X404979Y324666D01*
X405729Y323916D01*
X406649Y323385D01*
X406675Y323378D01*
Y316496D01*
X404573D01*
Y309181D01*
X404573Y309181D01*
Y308819D01*
X404573D01*
X404573Y308681D01*
Y301504D01*
X412676D01*
Y306656D01*
X414845Y308825D01*
X418925D01*
Y308173D01*
X424075D01*
Y312535D01*
X423029D01*
Y315341D01*
X423649Y315699D01*
X424301Y316351D01*
X424761Y317149D01*
X425000Y318039D01*
Y318961D01*
X424761Y319851D01*
X424301Y320649D01*
X423649Y321301D01*
X422851Y321761D01*
X421961Y322000D01*
X421039D01*
X420149Y321761D01*
X419351Y321301D01*
X418699Y320649D01*
X418238Y319851D01*
X418000Y318961D01*
Y318039D01*
X418238Y317149D01*
X418699Y316351D01*
X419351Y315699D01*
X419971Y315341D01*
Y312535D01*
X418925D01*
Y311884D01*
X414211D01*
X413626Y311767D01*
X413176Y311467D01*
X412886Y311537D01*
X412676Y311624D01*
Y316496D01*
X409734D01*
Y323378D01*
X409761Y323385D01*
X410680Y323916D01*
X411431Y324666D01*
X411962Y325586D01*
X412236Y326611D01*
Y327673D01*
X411962Y328698D01*
X411431Y329617D01*
X410680Y330368D01*
X409761Y330898D01*
X408736Y331173D01*
D02*
G37*
G36*
X197607Y312667D02*
X197500D01*
Y307000D01*
X203167D01*
Y307107D01*
X202930Y308299D01*
X202465Y309421D01*
X201790Y310431D01*
X200931Y311291D01*
X199921Y311965D01*
X198799Y312430D01*
X197607Y312667D01*
D02*
G37*
G36*
X196500D02*
X196393D01*
X195201Y312430D01*
X194079Y311965D01*
X193069Y311291D01*
X192209Y310431D01*
X191535Y309421D01*
X191070Y308299D01*
X190833Y307107D01*
Y307000D01*
X196500D01*
Y312667D01*
D02*
G37*
G36*
X492927Y308425D02*
X484824D01*
Y306175D01*
X479575D01*
Y306827D01*
X474425D01*
Y302465D01*
X479575D01*
Y303116D01*
X484824D01*
Y301504D01*
X492927D01*
Y308425D01*
D02*
G37*
G36*
X437427D02*
X429324D01*
Y306175D01*
X424075D01*
Y306827D01*
X418925D01*
Y302465D01*
X424075D01*
Y303116D01*
X429324D01*
Y301504D01*
X437427D01*
Y308425D01*
D02*
G37*
G36*
X383551D02*
X375449D01*
Y306175D01*
X369075D01*
Y306827D01*
X363925D01*
Y302465D01*
X369075D01*
Y303116D01*
X375449D01*
Y301504D01*
X383551D01*
Y308425D01*
D02*
G37*
G36*
X324023Y312968D02*
X322977D01*
X321968Y312698D01*
X321063Y312176D01*
X320324Y311437D01*
X319802Y310532D01*
X319531Y309523D01*
Y308477D01*
X319802Y307468D01*
X320324Y306563D01*
X321063Y305824D01*
X321968Y305302D01*
X322977Y305031D01*
X324023D01*
X325032Y305302D01*
X325937Y305824D01*
X326676Y306563D01*
X327198Y307468D01*
X327468Y308477D01*
Y309523D01*
X327198Y310532D01*
X326676Y311437D01*
X325937Y312176D01*
X325032Y312698D01*
X324023Y312968D01*
D02*
G37*
G36*
X264022D02*
X262978D01*
X261968Y312698D01*
X261063Y312176D01*
X260324Y311437D01*
X259802Y310532D01*
X259531Y309523D01*
Y308477D01*
X259802Y307468D01*
X260324Y306563D01*
X261063Y305824D01*
X261968Y305302D01*
X262978Y305031D01*
X264022D01*
X265032Y305302D01*
X265937Y305824D01*
X266676Y306563D01*
X267198Y307468D01*
X267469Y308477D01*
Y309523D01*
X267198Y310532D01*
X266676Y311437D01*
X265937Y312176D01*
X265032Y312698D01*
X264022Y312968D01*
D02*
G37*
G36*
X236961Y320000D02*
X236039D01*
X235149Y319761D01*
X234351Y319301D01*
X233699Y318649D01*
X233239Y317851D01*
X233000Y316961D01*
Y316039D01*
X233239Y315149D01*
X233699Y314351D01*
X234351Y313699D01*
X235149Y313239D01*
X236039Y313000D01*
X236961D01*
X237258Y313080D01*
X238324Y312013D01*
X238133Y311551D01*
X237506D01*
Y303449D01*
X244428D01*
Y311551D01*
X242493D01*
X242380Y312118D01*
X242048Y312614D01*
X239671Y314992D01*
X239761Y315149D01*
X240000Y316039D01*
Y316961D01*
X239761Y317851D01*
X239301Y318649D01*
X238649Y319301D01*
X237851Y319761D01*
X236961Y320000D01*
D02*
G37*
G36*
X324023Y302969D02*
X322977D01*
X321968Y302698D01*
X321063Y302176D01*
X320324Y301437D01*
X319802Y300532D01*
X319531Y299522D01*
Y298478D01*
X319802Y297468D01*
X320324Y296563D01*
X321063Y295824D01*
X321968Y295302D01*
X322977Y295031D01*
X324023D01*
X325032Y295302D01*
X325937Y295824D01*
X326676Y296563D01*
X327198Y297468D01*
X327468Y298478D01*
Y299522D01*
X327198Y300532D01*
X326676Y301437D01*
X325937Y302176D01*
X325032Y302698D01*
X324023Y302969D01*
D02*
G37*
G36*
X264022D02*
X262978D01*
X261968Y302698D01*
X261063Y302176D01*
X260324Y301437D01*
X259802Y300532D01*
X259531Y299522D01*
Y298478D01*
X259802Y297468D01*
X260324Y296563D01*
X261063Y295824D01*
X261968Y295302D01*
X262978Y295031D01*
X264022D01*
X265032Y295302D01*
X265937Y295824D01*
X266676Y296563D01*
X267198Y297468D01*
X267469Y298478D01*
Y299522D01*
X267198Y300532D01*
X266676Y301437D01*
X265937Y302176D01*
X265032Y302698D01*
X264022Y302969D01*
D02*
G37*
G36*
Y292969D02*
X264000D01*
Y289500D01*
X267469D01*
Y289523D01*
X267198Y290532D01*
X266676Y291437D01*
X265937Y292176D01*
X265032Y292698D01*
X264022Y292969D01*
D02*
G37*
G36*
X263000D02*
X262978D01*
X261968Y292698D01*
X261063Y292176D01*
X260324Y291437D01*
X259802Y290532D01*
X259531Y289523D01*
Y289500D01*
X263000D01*
Y292969D01*
D02*
G37*
G36*
X252498Y311551D02*
X245577D01*
Y303449D01*
X247508D01*
Y292575D01*
X246673D01*
Y287425D01*
X251035D01*
Y292575D01*
X250567D01*
Y303449D01*
X252498D01*
Y311551D01*
D02*
G37*
G36*
X243681Y301220D02*
X242760D01*
X241869Y300982D01*
X241071Y300521D01*
X240420Y299869D01*
X239959Y299071D01*
X239720Y298181D01*
Y297260D01*
X239959Y296370D01*
X240420Y295571D01*
X241071Y294920D01*
X241654Y294584D01*
Y292575D01*
X240965D01*
Y287425D01*
X245327D01*
Y292575D01*
X244712D01*
Y294540D01*
X245370Y294920D01*
X246021Y295571D01*
X246482Y296370D01*
X246720Y297260D01*
Y298181D01*
X246482Y299071D01*
X246021Y299869D01*
X245370Y300521D01*
X244571Y300982D01*
X243681Y301220D01*
D02*
G37*
G36*
X327468Y292969D02*
X319531D01*
Y285032D01*
X327468D01*
Y292969D01*
D02*
G37*
G36*
X267469Y288500D02*
X264000D01*
Y285032D01*
X264022D01*
X265032Y285302D01*
X265937Y285824D01*
X266676Y286563D01*
X267198Y287468D01*
X267469Y288477D01*
Y288500D01*
D02*
G37*
G36*
X263000D02*
X259531D01*
Y288477D01*
X259802Y287468D01*
X260324Y286563D01*
X261063Y285824D01*
X261968Y285302D01*
X262978Y285032D01*
X263000D01*
Y288500D01*
D02*
G37*
G36*
X324060Y283250D02*
X322940D01*
X321860Y282960D01*
X320890Y282401D01*
X320099Y281610D01*
X319540Y280640D01*
X319250Y279559D01*
Y278440D01*
X319540Y277360D01*
X320099Y276390D01*
X320890Y275599D01*
X321860Y275040D01*
X322940Y274750D01*
X324060D01*
X325140Y275040D01*
X326110Y275599D01*
X326901Y276390D01*
X327460Y277360D01*
X327750Y278440D01*
Y279559D01*
X327460Y280640D01*
X326901Y281610D01*
X326110Y282401D01*
X325140Y282960D01*
X324060Y283250D01*
D02*
G37*
G36*
X264059D02*
X262941D01*
X261860Y282960D01*
X260890Y282401D01*
X260099Y281610D01*
X259540Y280640D01*
X259250Y279559D01*
Y278440D01*
X259540Y277360D01*
X260099Y276390D01*
X260890Y275599D01*
X261860Y275040D01*
X262941Y274750D01*
X264059D01*
X265140Y275040D01*
X266110Y275599D01*
X266901Y276390D01*
X267460Y277360D01*
X267750Y278440D01*
Y279559D01*
X267460Y280640D01*
X266901Y281610D01*
X266110Y282401D01*
X265140Y282960D01*
X264059Y283250D01*
D02*
G37*
G36*
X125756Y277000D02*
X110252D01*
Y270000D01*
X125756D01*
Y271471D01*
X129341D01*
X129699Y270851D01*
X130351Y270199D01*
X131149Y269739D01*
X132039Y269500D01*
X132961D01*
X133851Y269739D01*
X134649Y270199D01*
X135301Y270851D01*
X135761Y271649D01*
X136000Y272539D01*
Y273461D01*
X135761Y274351D01*
X135301Y275149D01*
X134649Y275801D01*
X133851Y276261D01*
X132961Y276500D01*
X132039D01*
X131149Y276261D01*
X130351Y275801D01*
X129699Y275149D01*
X129341Y274529D01*
X125756D01*
Y277000D01*
D02*
G37*
G36*
X189961Y275500D02*
X189039D01*
X188149Y275261D01*
X187351Y274801D01*
X186699Y274149D01*
X186239Y273351D01*
X186000Y272461D01*
Y271539D01*
X186239Y270649D01*
X186699Y269851D01*
X187351Y269199D01*
X188149Y268739D01*
X189039Y268500D01*
X189961D01*
X190851Y268739D01*
X191649Y269199D01*
X192301Y269851D01*
X192762Y270649D01*
X193000Y271539D01*
Y272461D01*
X192762Y273351D01*
X192301Y274149D01*
X191649Y274801D01*
X190851Y275261D01*
X189961Y275500D01*
D02*
G37*
G36*
X197607Y265959D02*
X197500D01*
Y260291D01*
X203167D01*
Y260399D01*
X202930Y261590D01*
X202465Y262713D01*
X201790Y263723D01*
X200931Y264582D01*
X199921Y265257D01*
X198799Y265722D01*
X197607Y265959D01*
D02*
G37*
G36*
X196500D02*
X196393D01*
X195201Y265722D01*
X194079Y265257D01*
X193069Y264582D01*
X192209Y263723D01*
X191535Y262713D01*
X191070Y261590D01*
X190833Y260399D01*
Y260291D01*
X196500D01*
Y265959D01*
D02*
G37*
G36*
X236961Y275500D02*
X236039D01*
X235149Y275261D01*
X234351Y274801D01*
X233699Y274149D01*
X233239Y273351D01*
X233000Y272461D01*
Y271539D01*
X233239Y270649D01*
X233699Y269851D01*
X234351Y269199D01*
X235149Y268739D01*
X236039Y268500D01*
X236961D01*
X237490Y268143D01*
X237506Y268051D01*
X237506D01*
Y259949D01*
X244428D01*
Y268051D01*
X240858D01*
Y269172D01*
X240741Y269757D01*
X240410Y270253D01*
X239815Y270848D01*
X240000Y271539D01*
Y272461D01*
X239761Y273351D01*
X239301Y274149D01*
X238649Y274801D01*
X237851Y275261D01*
X236961Y275500D01*
D02*
G37*
G36*
X264022Y432969D02*
X262978D01*
X261968Y432698D01*
X261063Y432176D01*
X260324Y431437D01*
X259802Y430532D01*
X259531Y429523D01*
Y428477D01*
X259802Y427468D01*
X260324Y426563D01*
X261063Y425824D01*
X261968Y425302D01*
X262978Y425032D01*
X264022D01*
X265032Y425302D01*
X265351Y425486D01*
X280419Y410418D01*
Y257551D01*
X278029D01*
Y406000D01*
X277913Y406585D01*
X277581Y407081D01*
X267197Y417466D01*
X267198Y417468D01*
X267469Y418477D01*
Y419522D01*
X267198Y420532D01*
X266676Y421437D01*
X265937Y422176D01*
X265032Y422698D01*
X264022Y422968D01*
X262978D01*
X261968Y422698D01*
X261063Y422176D01*
X260324Y421437D01*
X259802Y420532D01*
X259531Y419522D01*
Y418477D01*
X259802Y417468D01*
X260324Y416563D01*
X261063Y415824D01*
X261968Y415302D01*
X262978Y415031D01*
X264022D01*
X265032Y415302D01*
X265034Y415303D01*
X274971Y405367D01*
Y257551D01*
X272449D01*
Y249449D01*
X280419D01*
Y245814D01*
X279919Y245680D01*
X279742Y245988D01*
X278988Y246742D01*
X278064Y247275D01*
X277033Y247551D01*
X275967D01*
X274936Y247275D01*
X274012Y246742D01*
X273258Y245988D01*
X272725Y245064D01*
X272449Y244033D01*
Y242967D01*
X272725Y241936D01*
X273258Y241013D01*
X274012Y240258D01*
X274936Y239725D01*
X275967Y239449D01*
X277033D01*
X278064Y239725D01*
X278988Y240258D01*
X279742Y241013D01*
X279919Y241320D01*
X280419Y241186D01*
Y241051D01*
X280536Y240466D01*
X280867Y239970D01*
X283419Y237419D01*
X283915Y237087D01*
X284500Y236971D01*
X291500D01*
X292085Y237087D01*
X292581Y237419D01*
X294905Y239743D01*
X294936Y239725D01*
X295967Y239449D01*
X297033D01*
X298064Y239725D01*
X298988Y240258D01*
X299742Y241013D01*
X300275Y241936D01*
X300551Y242967D01*
Y244033D01*
X300275Y245064D01*
X299742Y245988D01*
X298988Y246742D01*
X298064Y247275D01*
X297033Y247551D01*
X295967D01*
X294936Y247275D01*
X294012Y246742D01*
X293258Y245988D01*
X292725Y245064D01*
X292449Y244033D01*
Y242967D01*
X292725Y241936D01*
X292743Y241905D01*
X290866Y240029D01*
X289466D01*
X289259Y240529D01*
X289742Y241013D01*
X290275Y241936D01*
X290551Y242967D01*
Y244033D01*
X290275Y245064D01*
X290257Y245094D01*
X292133Y246970D01*
X292464Y247466D01*
X292581Y248051D01*
Y251186D01*
X293081Y251320D01*
X293258Y251012D01*
X294012Y250258D01*
X294936Y249725D01*
X295967Y249449D01*
X297033D01*
X298064Y249725D01*
X298988Y250258D01*
X299471Y250741D01*
X299971Y250534D01*
Y248500D01*
X300087Y247915D01*
X300419Y247419D01*
X302743Y245094D01*
X302725Y245064D01*
X302449Y244033D01*
Y242967D01*
X302725Y241936D01*
X303258Y241013D01*
X304012Y240258D01*
X304936Y239725D01*
X305967Y239449D01*
X307033D01*
X308064Y239725D01*
X308987Y240258D01*
X309742Y241013D01*
X310275Y241936D01*
X310551Y242967D01*
Y244033D01*
X310275Y245064D01*
X309742Y245988D01*
X308987Y246742D01*
X308064Y247275D01*
X307033Y247551D01*
X305967D01*
X304936Y247275D01*
X304906Y247257D01*
X303029Y249133D01*
Y250534D01*
X303529Y250741D01*
X304012Y250258D01*
X304936Y249725D01*
X305967Y249449D01*
X307033D01*
X308064Y249725D01*
X308987Y250258D01*
X309742Y251012D01*
X310275Y251936D01*
X310551Y252967D01*
Y254033D01*
X310275Y255064D01*
X309742Y255988D01*
X308987Y256742D01*
X308064Y257275D01*
X307033Y257551D01*
X305967D01*
X304936Y257275D01*
X304012Y256742D01*
X303529Y256259D01*
X303029Y256466D01*
Y346152D01*
X303351Y346238D01*
X304149Y346699D01*
X304801Y347351D01*
X305261Y348149D01*
X305500Y349039D01*
Y349961D01*
X305261Y350851D01*
X304801Y351649D01*
X304149Y352301D01*
X303351Y352762D01*
X302461Y353000D01*
X301539D01*
X300649Y352762D01*
X299851Y352301D01*
X299199Y351649D01*
X298739Y350851D01*
X298529Y350071D01*
X298029Y350136D01*
Y352841D01*
X298649Y353199D01*
X299301Y353851D01*
X299762Y354649D01*
X300000Y355539D01*
Y356461D01*
X299762Y357351D01*
X299301Y358149D01*
X298649Y358801D01*
X297851Y359261D01*
X296961Y359500D01*
X296039D01*
X295149Y359261D01*
X294351Y358801D01*
X293699Y358149D01*
X293238Y357351D01*
X293081Y356762D01*
X292581Y356827D01*
Y365918D01*
X298081Y371418D01*
X298081Y371419D01*
X321966Y395303D01*
X321968Y395302D01*
X322977Y395031D01*
X324023D01*
X325032Y395302D01*
X325937Y395824D01*
X326676Y396563D01*
X327198Y397468D01*
X327468Y398478D01*
Y399522D01*
X327198Y400532D01*
X326676Y401437D01*
X325937Y402176D01*
X325032Y402698D01*
X324023Y402969D01*
X322977D01*
X321968Y402698D01*
X321063Y402176D01*
X320324Y401437D01*
X319802Y400532D01*
X319531Y399522D01*
Y398478D01*
X319802Y397468D01*
X319803Y397466D01*
X295919Y373582D01*
X295919Y373581D01*
X289970Y367633D01*
X289638Y367137D01*
X289522Y366551D01*
Y256861D01*
X289060Y256669D01*
X288987Y256742D01*
X288064Y257275D01*
X288029Y257284D01*
Y371367D01*
X321966Y405303D01*
X321968Y405302D01*
X322977Y405031D01*
X324023D01*
X325032Y405302D01*
X325937Y405824D01*
X326676Y406563D01*
X327198Y407468D01*
X327468Y408477D01*
Y409522D01*
X327198Y410532D01*
X326676Y411437D01*
X325937Y412176D01*
X325032Y412698D01*
X324023Y412968D01*
X322977D01*
X321968Y412698D01*
X321063Y412176D01*
X320324Y411437D01*
X319802Y410532D01*
X319531Y409522D01*
Y408477D01*
X319802Y407468D01*
X319803Y407466D01*
X285419Y373081D01*
X285087Y372585D01*
X284971Y372000D01*
Y257284D01*
X284936Y257275D01*
X284013Y256742D01*
X283940Y256669D01*
X283478Y256861D01*
Y411051D01*
X283362Y411636D01*
X283030Y412133D01*
X267303Y427860D01*
X267469Y428477D01*
Y429523D01*
X267198Y430532D01*
X266676Y431437D01*
X265937Y432176D01*
X265032Y432698D01*
X264022Y432969D01*
D02*
G37*
G36*
X203167Y259291D02*
X197500D01*
Y253624D01*
X197607D01*
X198799Y253861D01*
X199921Y254326D01*
X200931Y255001D01*
X201790Y255860D01*
X202465Y256870D01*
X202930Y257992D01*
X203167Y259184D01*
Y259291D01*
D02*
G37*
G36*
X196500D02*
X190833D01*
Y259184D01*
X191070Y257992D01*
X191535Y256870D01*
X192209Y255860D01*
X193069Y255001D01*
X194079Y254326D01*
X195201Y253861D01*
X196393Y253624D01*
X196500D01*
Y259291D01*
D02*
G37*
G36*
X252498Y268051D02*
X245577D01*
Y259949D01*
X247508D01*
Y248575D01*
X246673D01*
Y243425D01*
X251035D01*
Y248575D01*
X250567D01*
Y259949D01*
X252498D01*
Y268051D01*
D02*
G37*
G36*
X243588Y257372D02*
X242667D01*
X241776Y257134D01*
X240978Y256673D01*
X240327Y256022D01*
X239866Y255223D01*
X239628Y254333D01*
Y253412D01*
X239866Y252522D01*
X240327Y251724D01*
X240978Y251072D01*
X241607Y250709D01*
Y248575D01*
X240965D01*
Y243425D01*
X245327D01*
Y248575D01*
X244666D01*
Y250719D01*
X245276Y251072D01*
X245928Y251724D01*
X246389Y252522D01*
X246627Y253412D01*
Y254333D01*
X246389Y255223D01*
X245928Y256022D01*
X245276Y256673D01*
X244478Y257134D01*
X243588Y257372D01*
D02*
G37*
G36*
X533759Y255500D02*
X531241D01*
X528753Y255106D01*
X526358Y254328D01*
X524114Y253184D01*
X522077Y251704D01*
X520296Y249923D01*
X518816Y247886D01*
X517672Y245642D01*
X516894Y243247D01*
X516500Y240759D01*
Y238241D01*
X516894Y235753D01*
X517672Y233358D01*
X518816Y231114D01*
X520296Y229077D01*
X522077Y227296D01*
X524114Y225816D01*
X526358Y224672D01*
X528753Y223894D01*
X531241Y223500D01*
X533759D01*
X536247Y223894D01*
X538642Y224672D01*
X540886Y225816D01*
X542923Y227296D01*
X544704Y229077D01*
X546184Y231114D01*
X547328Y233358D01*
X548106Y235753D01*
X548500Y238241D01*
Y240759D01*
X548106Y243247D01*
X547328Y245642D01*
X546184Y247886D01*
X544704Y249923D01*
X542923Y251704D01*
X540886Y253184D01*
X538642Y254328D01*
X536247Y255106D01*
X533759Y255500D01*
D02*
G37*
G36*
X121259D02*
X118741D01*
X116253Y255106D01*
X113858Y254328D01*
X111614Y253184D01*
X109577Y251704D01*
X107796Y249923D01*
X106316Y247886D01*
X105172Y245642D01*
X104394Y243247D01*
X104000Y240759D01*
Y238241D01*
X104394Y235753D01*
X105172Y233358D01*
X106316Y231114D01*
X107796Y229077D01*
X109577Y227296D01*
X111614Y225816D01*
X113858Y224672D01*
X116253Y223894D01*
X118741Y223500D01*
X121259D01*
X123747Y223894D01*
X126142Y224672D01*
X128386Y225816D01*
X130423Y227296D01*
X132204Y229077D01*
X133684Y231114D01*
X134828Y233358D01*
X135606Y235753D01*
X136000Y238241D01*
Y240759D01*
X135606Y243247D01*
X134828Y245642D01*
X133684Y247886D01*
X132204Y249923D01*
X130423Y251704D01*
X128386Y253184D01*
X126142Y254328D01*
X123747Y255106D01*
X121259Y255500D01*
D02*
G37*
%LPD*%
G36*
X298739Y348149D02*
X299199Y347351D01*
X299851Y346699D01*
X299971Y346630D01*
Y256466D01*
X299471Y256259D01*
X298988Y256742D01*
X298064Y257275D01*
X298029Y257284D01*
Y348864D01*
X298529Y348930D01*
X298739Y348149D01*
D02*
G37*
G36*
X293238Y354649D02*
X293699Y353851D01*
X294351Y353199D01*
X294971Y352841D01*
Y257284D01*
X294936Y257275D01*
X294012Y256742D01*
X293258Y255988D01*
X293081Y255680D01*
X292581Y255814D01*
Y355173D01*
X293081Y355239D01*
X293238Y354649D01*
D02*
G37*
D17*
X236500Y315500D02*
X237000D01*
X241467Y345091D02*
X250500Y354124D01*
X237000Y315500D02*
X240967Y311533D01*
Y307500D02*
Y311533D01*
X241467Y344500D02*
Y345091D01*
X239328Y265638D02*
Y269172D01*
X236500Y272000D02*
Y272000D01*
X239328Y265638D02*
X240967Y264000D01*
X236500Y272000D02*
X239328Y269172D01*
X202000Y249500D02*
X214000Y261500D01*
X167752Y249500D02*
X202000D01*
X214000Y261500D02*
Y329500D01*
X301500Y349000D02*
X302000Y349500D01*
X301500Y248500D02*
Y349000D01*
X327358Y392858D02*
X354205D01*
X301500Y248500D02*
X306500Y243500D01*
X249038Y246000D02*
Y264000D01*
X243137Y246009D02*
Y253863D01*
Y246009D02*
X243146Y246000D01*
X243127Y253872D02*
X243137Y253863D01*
X249038Y290000D02*
Y307500D01*
X243146Y290000D02*
X243183Y290037D01*
Y297683D02*
X243220Y297720D01*
X243183Y290037D02*
Y297683D01*
X249538Y329000D02*
Y344500D01*
X243573Y329073D02*
X243646Y329000D01*
X243500Y335500D02*
X243573Y335427D01*
Y329073D02*
Y335427D01*
X214000Y329500D02*
X263500Y379000D01*
X208000Y333500D02*
X263500Y389000D01*
X201500Y299000D02*
X208000Y305500D01*
Y333500D01*
X122627Y299000D02*
X201500D01*
X138752Y338500D02*
X203000D01*
X263500Y399000D01*
X118504Y273000D02*
X132500D01*
X118004Y273500D02*
X118504Y273000D01*
X167459Y249793D02*
X167752Y249500D01*
X133752Y283500D02*
X167459Y249793D01*
X118004Y303623D02*
Y313500D01*
Y303623D02*
X122627Y299000D01*
X118004Y293500D02*
X118504Y293000D01*
X129500Y303500D02*
X141500D01*
X118004Y333500D02*
X141500D01*
X118004Y353500D02*
X118504Y353000D01*
X157000Y402208D02*
Y402500D01*
Y402208D02*
X159000Y400209D01*
X129500Y283500D02*
X133752D01*
X129500Y343500D02*
X133752D01*
X138752Y338500D01*
X323500Y369000D02*
X327000Y365500D01*
X436346D02*
X463705Y392858D01*
X327000Y365500D02*
X436346D01*
X323500Y349000D02*
X328500Y354000D01*
X462437D02*
X489295Y327142D01*
X328500Y354000D02*
X462437D01*
X323000Y418500D02*
X323500Y419000D01*
X297500Y418500D02*
X323000D01*
X297000Y418000D02*
X297500Y418500D01*
X323000Y428500D02*
X323500Y429000D01*
X304000Y428500D02*
X323000D01*
X303500Y428000D02*
X304000Y428500D01*
X296500Y253500D02*
Y355000D01*
X281949Y241051D02*
Y411051D01*
X284500Y238500D02*
X291500D01*
X281949Y241051D02*
X284500Y238500D01*
X291500D02*
X296500Y243500D01*
X263500Y429000D02*
X264000D01*
X281949Y411051D01*
X276500Y253500D02*
Y406000D01*
X263500Y419000D02*
X276500Y406000D01*
X291051Y248051D02*
Y366551D01*
X297000Y372500D02*
X297000D01*
X291051Y366551D02*
X297000Y372500D01*
X297000D02*
X323500Y399000D01*
X286500Y243500D02*
X291051Y248051D01*
X286500Y253500D02*
Y372000D01*
X323500Y409000D01*
X375264Y331673D02*
X379795Y327142D01*
X327146Y331673D02*
X375264D01*
X323500Y339000D02*
X421937D01*
X431264Y329673D01*
X431264D02*
X433795Y327142D01*
X431264Y329673D02*
X431264D01*
X324473Y329000D02*
X327146Y331673D01*
X323500Y329000D02*
X324473D01*
X505847Y359000D02*
X516000Y369153D01*
X323500Y359000D02*
X505847D01*
X324173Y379673D02*
X395020D01*
X405673Y390327D02*
X408205Y392858D01*
X405673Y390327D02*
X405673D01*
X395020Y379673D02*
X405673Y390327D01*
X323500Y379000D02*
X324173Y379673D01*
X323500Y389000D02*
X327358Y392858D01*
X201000Y437965D02*
X202279Y436685D01*
X214500D01*
X477000Y310354D02*
Y319000D01*
X469711Y310354D02*
X477000D01*
X464518Y305161D02*
X469711Y310354D01*
X464124Y305161D02*
X464518D01*
X477000Y304646D02*
X488557D01*
X488876Y304965D01*
X463705Y313258D02*
Y327142D01*
Y313258D02*
X464124Y312839D01*
X489295Y313455D02*
Y327142D01*
X488876Y313035D02*
X489295Y313455D01*
X421500Y310354D02*
Y318500D01*
Y304646D02*
X433057D01*
X433376Y304965D01*
X414211Y310354D02*
X421500D01*
X409018Y305161D02*
X414211Y310354D01*
X408624Y305161D02*
X409018D01*
X408205Y313258D02*
Y327142D01*
Y313258D02*
X408624Y312839D01*
X433795Y313455D02*
Y327142D01*
X433376Y313035D02*
X433795Y313455D01*
X366500Y304646D02*
X379181D01*
X379500Y304965D01*
X353000Y312839D02*
X354205Y314043D01*
Y327142D01*
X379500Y313035D02*
Y326847D01*
X379795Y327142D01*
X358587Y310354D02*
X366500D01*
X353394Y305161D02*
X358587Y310354D01*
X353000Y305161D02*
X353394D01*
X366500Y310354D02*
Y318500D01*
X529000Y378000D02*
Y386646D01*
X516000Y369153D02*
Y384465D01*
X541295Y384457D02*
X541500Y384661D01*
X541295Y368858D02*
Y384457D01*
X529000Y386646D02*
X535413D01*
X541106Y392339D01*
X541500D01*
X516000Y392535D02*
X516181Y392354D01*
X529000D01*
X488876Y408161D02*
X489295Y407742D01*
Y392858D02*
Y407742D01*
X463285Y393278D02*
Y407965D01*
Y393278D02*
X463705Y392858D01*
X463966Y415354D02*
X476500D01*
X463285Y416035D02*
X463966Y415354D01*
X476500Y409646D02*
X482289D01*
X488482Y415839D01*
X488876D01*
X476500Y401500D02*
Y409646D01*
X421500Y401500D02*
Y410146D01*
X365911D02*
X366000Y410057D01*
Y401500D02*
Y410057D01*
X433795Y407957D02*
X434000Y408161D01*
X433795Y392858D02*
Y407957D01*
X408000Y393063D02*
Y407965D01*
Y393063D02*
X408205Y392858D01*
X353785Y393278D02*
Y407965D01*
Y393278D02*
X354205Y392858D01*
X379795Y407742D02*
X380215Y408161D01*
X379795Y392858D02*
Y407742D01*
X421500Y410146D02*
X427913D01*
X433606Y415839D01*
X434000D01*
X408000Y416035D02*
X408181Y415854D01*
X421500D01*
X365911Y410146D02*
X374128D01*
X379821Y415839D01*
X380215D01*
X353785Y416035D02*
X353966Y415854D01*
X365911D01*
X214500Y442394D02*
X214553Y442447D01*
X224947D01*
X225000Y442500D01*
D19*
X248854Y246000D02*
D03*
X243146D02*
D03*
X248854Y290000D02*
D03*
X243146D02*
D03*
X249354Y329000D02*
D03*
X243646D02*
D03*
D20*
X240967Y264000D02*
D03*
X249038D02*
D03*
X240967Y307500D02*
D03*
X249038D02*
D03*
X241467Y344500D02*
D03*
X249538D02*
D03*
D21*
X118004Y353500D02*
D03*
X129500Y343500D02*
D03*
X118004Y333500D02*
D03*
X129500Y323500D02*
D03*
X118004Y313500D02*
D03*
X129500Y303500D02*
D03*
X118004Y293500D02*
D03*
X129500Y283500D02*
D03*
X118004Y273500D02*
D03*
D22*
X488876Y313035D02*
D03*
Y304965D02*
D03*
X433376D02*
D03*
Y313035D02*
D03*
X379500D02*
D03*
Y304965D02*
D03*
X353785Y416035D02*
D03*
Y407965D02*
D03*
X201000Y446035D02*
D03*
Y437965D02*
D03*
X516000Y392535D02*
D03*
Y384465D02*
D03*
X463285Y416035D02*
D03*
Y407965D02*
D03*
X408000Y416035D02*
D03*
Y407965D02*
D03*
D23*
X477000Y304646D02*
D03*
Y310354D02*
D03*
X421500Y304646D02*
D03*
Y310354D02*
D03*
X366500Y304646D02*
D03*
Y310354D02*
D03*
X529000Y392354D02*
D03*
Y386646D02*
D03*
X421500Y415854D02*
D03*
Y410146D02*
D03*
X476500Y415354D02*
D03*
Y409646D02*
D03*
X365911Y415854D02*
D03*
Y410146D02*
D03*
X214500Y436685D02*
D03*
Y442394D02*
D03*
D24*
X464124Y305161D02*
D03*
Y312839D02*
D03*
X408624Y305161D02*
D03*
Y312839D02*
D03*
X353000Y305161D02*
D03*
Y312839D02*
D03*
X380215Y415839D02*
D03*
Y408161D02*
D03*
X541500Y384661D02*
D03*
Y392339D02*
D03*
X488876Y408161D02*
D03*
Y415839D02*
D03*
X434000Y408161D02*
D03*
Y415839D02*
D03*
D41*
X515705Y368858D02*
D03*
X463705Y392858D02*
D03*
X354205D02*
D03*
X379795Y327142D02*
D03*
X408205Y392858D02*
D03*
X489295Y327142D02*
D03*
X433795D02*
D03*
D42*
X541295Y368858D02*
D03*
X515705Y351142D02*
D03*
X541295D02*
D03*
X489295Y392858D02*
D03*
X463705Y375142D02*
D03*
X489295D02*
D03*
X379795D02*
D03*
X354205D02*
D03*
X379795Y392858D02*
D03*
X354205Y327142D02*
D03*
X379795Y344858D02*
D03*
X354205D02*
D03*
X433795Y392858D02*
D03*
X408205Y375142D02*
D03*
X433795D02*
D03*
X463705Y344858D02*
D03*
X489295D02*
D03*
X463705Y327142D02*
D03*
X408205Y344858D02*
D03*
X433795D02*
D03*
X408205Y327142D02*
D03*
D45*
X118504Y353000D02*
X178890D01*
X161890Y323500D02*
X178890Y306500D01*
X145681Y293000D02*
X178890Y259791D01*
X118504Y293000D02*
X145681D01*
X129500Y323500D02*
X161890D01*
D46*
X159000Y400209D02*
X207500D01*
D47*
X263500Y279000D02*
D03*
X323500D02*
D03*
X263500Y439000D02*
D03*
X323500D02*
D03*
D48*
X263500Y289000D02*
D03*
Y299000D02*
D03*
Y309000D02*
D03*
Y319000D02*
D03*
Y329000D02*
D03*
Y339000D02*
D03*
Y349000D02*
D03*
Y359000D02*
D03*
Y369000D02*
D03*
Y379000D02*
D03*
Y389000D02*
D03*
Y399000D02*
D03*
Y409000D02*
D03*
Y419000D02*
D03*
Y429000D02*
D03*
X323500D02*
D03*
Y419000D02*
D03*
Y409000D02*
D03*
Y399000D02*
D03*
Y389000D02*
D03*
Y379000D02*
D03*
Y369000D02*
D03*
Y359000D02*
D03*
Y349000D02*
D03*
Y339000D02*
D03*
Y329000D02*
D03*
Y319000D02*
D03*
Y309000D02*
D03*
Y299000D02*
D03*
D49*
Y289000D02*
D03*
D50*
X197000Y259791D02*
D03*
Y352291D02*
D03*
Y306500D02*
D03*
X207500Y400209D02*
D03*
D51*
X178890Y259791D02*
D03*
Y352291D02*
D03*
Y306500D02*
D03*
X225610Y400209D02*
D03*
D52*
X306500Y243500D02*
D03*
X296500D02*
D03*
X286500D02*
D03*
X276500D02*
D03*
X306500Y253500D02*
D03*
X296500D02*
D03*
X286500D02*
D03*
D53*
X276500D02*
D03*
D54*
X144402Y383996D02*
D03*
D55*
X132591Y402500D02*
D03*
D56*
X157000D02*
D03*
D57*
X189500Y272000D02*
D03*
Y363500D02*
D03*
Y316500D02*
D03*
X250500Y354124D02*
D03*
X236500Y316500D02*
D03*
Y272000D02*
D03*
X302000Y349500D02*
D03*
X243127Y253872D02*
D03*
X243220Y297720D02*
D03*
X243500Y335500D02*
D03*
X132500Y273000D02*
D03*
X141500Y303500D02*
D03*
Y333500D02*
D03*
X296500Y356000D02*
D03*
X297000Y418000D02*
D03*
X303500Y428000D02*
D03*
X477000Y319000D02*
D03*
X421500Y318500D02*
D03*
X366500D02*
D03*
X529000Y378000D02*
D03*
X476500Y401500D02*
D03*
X366000D02*
D03*
X421500D02*
D03*
X225000Y442500D02*
D03*
D58*
X532500Y443500D02*
D03*
X120000D02*
D03*
X532500Y239500D02*
D03*
X120000D02*
D03*
M02*
